<?xml version="1.0" standalone="no"?>
<!DOCTYPE svg PUBLIC "-//W3C//DTD SVG 1.1//EN" "http://www.w3.org/Graphics/SVG/1.1/DTD/svg11.dtd" >
<svg>
<metadata>
Created by FontForge 20120731 at Thu May 30 07:14:44 2019
 By www-data
Copyright \(c\) 2017 by Kastelov. All rights reserved.
</metadata>
<defs>
<font id="Axiforma-ExtraBold" horiz-adv-x="846" >
  <font-face 
    font-family="Axiforma"
    font-weight="800"
    font-stretch="normal"
    units-per-em="1000"
    panose-1="0 0 9 0 0 0 0 0 0 0"
    ascent="771"
    descent="-229"
    x-height="547"
    cap-height="739"
    bbox="-472 -363 1296 1058"
    underline-thickness="50"
    underline-position="-50"
    stemh="130"
    stemv="157"
    unicode-range="U+000D-25CA"
  />
<missing-glyph horiz-adv-x="130" 
 />
    <glyph glyph-name="f_b" unicode="fb" horiz-adv-x="1127" 
d="M110 548v4c0 157 77 236 209 236c55 0 105 -13 152 -39l-35 -121c-33 16 -61 24 -84 24c-53 0 -86 -32 -86 -89v-15h170v-130h-170v-418h-156v418h-81v130h81zM822 562c77 0 142 -28 194 -83c53 -55 79 -123 79 -205c0 -83 -26 -151 -78 -206s-117 -82 -195 -82
c-66 0 -121 25 -164 75v-61h-152v761h157v-267c43 45 96 68 159 68zM935 275c0 40 -13 74 -39 101c-26 28 -59 42 -100 42s-74 -14 -101 -42c-26 -27 -39 -61 -39 -101c0 -41 13 -75 39 -103c27 -28 60 -42 101 -42s74 14 100 42s39 62 39 103z" />
    <glyph glyph-name="f_f" unicode="ff" horiz-adv-x="864" 
d="M779 651c-60 0 -95 -32 -95 -89v-14h170v-130h-170v-418h-155v418h-263v-418h-155v418h-82v130h82v16c0 148 98 225 243 224c59 -1 115 -15 170 -43l-49 -121c-41 19 -74 28 -99 28c-65 0 -110 -33 -110 -89v-15h263v16c0 73 21 128 63 166c42 39 97 58 164 58
c52 0 106 -15 161 -44l-52 -118c-36 17 -65 25 -86 25z" />
    <glyph glyph-name="f_f_i" unicode="ffi" horiz-adv-x="1156" 
d="M1019 605c-55 0 -95 40 -95 93s42 93 95 93c52 0 93 -40 93 -93s-41 -93 -93 -93zM771 652c-53 0 -86 -32 -86 -89v-15h188v-130h-188v-418h-156v418h-263v-418h-156v418h-81v130h81v16c0 74 22 130 67 167c45 38 103 57 174 57c55 0 113 -14 175 -43l-49 -121
c-43 18 -78 27 -105 27c-64 0 -106 -33 -106 -89v-14h263v4c0 156 82 236 215 236c55 0 105 -13 152 -39l-42 -121c-32 16 -60 24 -83 24zM1096 0h-157v548h157v-548z" />
    <glyph glyph-name="f_f_j" unicode="ffj" horiz-adv-x="1156" 
d="M1018 605c-53 0 -94 40 -94 93s41 93 94 93c52 0 93 -40 93 -93s-41 -93 -93 -93zM864 548v-130h-180v-418h-156v418h-262v-418h-156v418h-81v130h81v16c0 74 22 130 67 167c45 38 103 57 174 57c60 0 117 -14 170 -43l-44 -121c-41 18 -76 27 -105 27
c-63 0 -106 -33 -106 -89v-14h262v4c0 156 83 236 216 236c53 0 104 -13 152 -39l-42 -121c-33 16 -61 24 -84 24c-53 0 -86 -32 -86 -89v-15h180zM939 10v538h157v-550c0 -155 -89 -232 -220 -232c-59 0 -104 10 -135 31l29 123c29 -11 55 -16 78 -16c61 0 91 35 91 106z
" />
    <glyph glyph-name="f_h" unicode="fh" horiz-adv-x="1097" 
d="M110 548v4c0 157 78 236 210 236c55 0 105 -13 152 -39l-36 -121c-33 16 -61 24 -84 24c-53 0 -86 -32 -86 -89v-15h170v-130h-170v-418h-156v418h-81v130h81zM832 563c59 0 109 -20 150 -59s62 -96 62 -169v-335h-157v294c0 80 -41 125 -106 125
c-71 0 -118 -52 -118 -129v-290h-157v761h153v-286c29 49 93 88 173 88z" />
    <glyph glyph-name="f_i" unicode="fi" horiz-adv-x="738" 
d="M600 605c-53 0 -94 40 -94 93s41 93 94 93c52 0 93 -40 93 -93s-41 -93 -93 -93zM110 548v4c0 156 82 236 215 236c55 0 105 -13 152 -39l-41 -121c-33 16 -61 24 -84 24c-53 0 -86 -32 -86 -89v-15h170v-130h-170v-418h-156v418h-81v130h81zM677 0h-157v548h157v-548z
" />
    <glyph glyph-name="f_j" unicode="fj" horiz-adv-x="738" 
d="M600 605c-53 0 -94 40 -94 93s41 93 94 93c52 0 93 -40 93 -93s-41 -93 -93 -93zM444 548v-130h-178v-418h-156v418h-81v130h81v4c0 156 82 236 215 236c55 0 105 -13 152 -39l-41 -121c-33 16 -61 24 -84 24c-53 0 -86 -32 -86 -89v-15h178zM520 10v538h157v-550
c0 -155 -90 -232 -219 -232c-59 0 -105 10 -136 31l30 123c28 -11 54 -16 78 -16c60 0 90 35 90 106z" />
    <glyph glyph-name="f_k" unicode="fk" horiz-adv-x="1043" 
d="M110 548v4c0 157 76 236 208 236c54 0 105 -13 153 -39l-35 -121c-33 16 -61 24 -84 24c-53 0 -86 -32 -86 -89v-15h170v-130h-170v-418h-156v418h-81v130h81zM1057 0h-190l-173 227l-31 -29v-198h-157v761h157v-388l184 175h194l-240 -223z" />
    <glyph glyph-name="f_l" unicode="fl" horiz-adv-x="723" 
d="M110 548v4c0 157 70 236 211 236c51 0 101 -13 149 -39l-34 -121c-33 16 -61 24 -84 24c-53 0 -86 -32 -86 -89v-15h170v-130h-170v-418h-156v418h-81v130h81zM506 0v761h157v-761h-157z" />
    <glyph glyph-name=".notdef" horiz-adv-x="130" 
 />
    <glyph glyph-name="NULL" horiz-adv-x="0" 
 />
    <glyph glyph-name="CR" unicode="&#xd;" horiz-adv-x="333" 
 />
    <glyph glyph-name="space" unicode=" " horiz-adv-x="247" 
 />
    <glyph glyph-name="CR.001" horiz-adv-x="130" 
 />
    <glyph glyph-name="CR.001" horiz-adv-x="130" 
 />
    <glyph glyph-name="exclam" unicode="!" horiz-adv-x="320" 
d="M234 214h-143l-9 544h163zM165 -13c-51 0 -90 38 -90 89c0 48 39 86 90 86c47 0 86 -38 86 -86c0 -51 -38 -89 -86 -89z" />
    <glyph glyph-name="quotedbl" unicode="&#x22;" horiz-adv-x="583" 
d="M184 421h-152l90 315h180zM455 421h-152l90 315h180z" />
    <glyph glyph-name="numbersign" unicode="#" horiz-adv-x="760" 
d="M729 576l-25 -132h-99l-28 -144h99l-24 -132h-100l-32 -168h-157l34 168h-114l-34 -168h-157l35 168h-95l26 132h97l30 144h-100l26 132h102l34 163h151l-33 -163h113l33 163h150l-31 -163h99zM309 300h114l29 144h-113z" />
    <glyph glyph-name="dollar" unicode="$" horiz-adv-x="600" 
d="M562 218c0 -113 -73 -194 -181 -221v-109h-145v105c-89 17 -158 65 -208 144l107 107c36 -60 100 -101 163 -101c49 0 82 27 82 64c0 27 -20 50 -60 69c-5 3 -15 8 -32 15l-41 20c-23 12 -59 31 -80 46c-68 46 -102 105 -102 178c0 107 69 185 174 210v98h145v-97
c59 -13 114 -44 163 -91l-86 -120c-51 43 -101 64 -148 64c-48 0 -76 -24 -76 -59c-1 -18 11 -32 24 -43l25 -17c5 -3 24 -12 28 -15l65 -33c37 -17 64 -32 83 -44c67 -42 100 -99 100 -170z" />
    <glyph glyph-name="percent" unicode="%" horiz-adv-x="911" 
d="M221 384c-53 0 -98 18 -135 53c-37 36 -56 79 -56 129c0 51 19 95 56 131s82 54 135 54s99 -18 136 -54s56 -80 56 -131c0 -50 -19 -93 -56 -129c-37 -35 -83 -53 -136 -53zM259 0h-150l537 739h150zM167 512c31 -28 77 -28 108 0c31 29 31 81 0 110s-77 29 -108 0
c-29 -29 -29 -81 0 -110zM689 -12c-53 0 -98 18 -135 53c-37 36 -56 79 -56 130s19 94 56 130s82 54 135 54s99 -18 136 -54s56 -79 56 -130s-19 -94 -56 -130c-37 -35 -83 -53 -136 -53zM689 95c43 0 78 32 78 77c0 43 -37 77 -78 77s-76 -33 -76 -77c0 -45 35 -77 76 -77z
" />
    <glyph glyph-name="ampersand" unicode="&#x26;" horiz-adv-x="705" 
d="M600 164l101 -90l-88 -93l-100 92c-66 -56 -141 -84 -225 -84c-77 0 -138 21 -185 62c-47 42 -70 94 -70 156c0 86 43 156 129 210c-29 46 -43 93 -43 141c0 51 20 95 59 134c40 39 92 59 157 59c53 0 99 -16 136 -49c38 -32 57 -71 57 -118c0 -49 -17 -90 -56 -123
c-39 -32 -63 -48 -118 -76l32 -29l120 -108l1 1c21 23 47 56 78 99l95 -79c-27 -39 -53 -74 -80 -105zM326 634c-44 0 -73 -36 -73 -80c0 -25 8 -51 23 -78l57 30c27 16 54 42 54 70c0 32 -25 58 -61 58zM298 123c41 0 80 13 117 40l-133 122l-38 35
c-37 -29 -55 -62 -55 -100c0 -56 44 -97 109 -97z" />
    <glyph glyph-name="quotesingle" unicode="'" horiz-adv-x="311" 
d="M184 421h-152l90 315h180z" />
    <glyph glyph-name="parenleft" unicode="(" horiz-adv-x="427" 
d="M423 -97l-73 -124c-207 108 -317 288 -317 515s111 408 323 515l68 -126c-147 -93 -220 -222 -220 -388c0 -162 73 -293 219 -392z" />
    <glyph glyph-name="parenright" unicode=")" horiz-adv-x="427" 
d="M77 -221l-73 124c146 99 219 230 219 392c0 166 -73 295 -219 388l67 126c213 -107 324 -288 324 -515c0 -225 -111 -407 -318 -515z" />
    <glyph glyph-name="asterisk" unicode="*" horiz-adv-x="506" 
d="M254 474l-96 -115l-85 76l91 102l-131 56l45 104l121 -58l-5 140h119l-5 -140l121 58l44 -103l-129 -57l89 -102l-85 -76z" />
    <glyph glyph-name="plus" unicode="+" horiz-adv-x="589" 
d="M369 421h188v-147h-188v-189l-147 -2v191h-190v147h190v189h147v-189z" />
    <glyph glyph-name="comma" unicode="," horiz-adv-x="269" 
d="M132 158c56 0 96 -44 96 -103c0 -79 -55 -155 -165 -226l-45 60c21 16 35 28 44 35c17 13 47 43 59 64h-3c-41 0 -77 37 -77 81c0 51 42 89 91 89z" />
    <glyph glyph-name="hyphen" unicode="-" horiz-adv-x="535" 
d="M477 204h-419v146h419v-146z" />
    <glyph glyph-name="period" unicode="." horiz-adv-x="253" 
d="M128 -16c-51 0 -89 37 -89 88c0 49 38 87 89 87c48 0 86 -39 86 -87c0 -51 -38 -88 -86 -88z" />
    <glyph glyph-name="slash" unicode="/" horiz-adv-x="693" 
d="M192 -123h-175l483 948h176z" />
    <glyph glyph-name="zero" unicode="0" horiz-adv-x="691" 
d="M345 -12c-97 0 -171 36 -224 107c-52 71 -78 163 -78 275s26 204 78 275c53 71 127 107 224 107c98 0 173 -36 225 -107c53 -71 79 -163 79 -275s-26 -204 -79 -275c-52 -71 -127 -107 -225 -107zM485 370c0 67 -12 121 -36 163c-23 43 -58 64 -103 64
c-46 0 -81 -21 -104 -64c-23 -42 -35 -96 -35 -163c0 -136 46 -227 139 -227s139 91 139 227z" />
    <glyph glyph-name="one" unicode="1" horiz-adv-x="429" 
d="M-5 555l236 184h120v-739h-161v522l-112 -85z" />
    <glyph glyph-name="two" unicode="2" horiz-adv-x="587" 
d="M384 259l-103 -108h259v-152h-489v138l227 236c38 39 62 68 71 86c10 18 15 36 15 53c0 51 -39 84 -91 84c-49 0 -103 -27 -162 -81l-89 119c81 79 170 118 267 118c71 0 129 -22 175 -65c47 -43 70 -97 70 -162c0 -81 -49 -161 -150 -266z" />
    <glyph glyph-name="three" unicode="3" horiz-adv-x="569" 
d="M256 -12c-85 0 -167 24 -246 73l68 132c60 -35 116 -53 167 -53c69 0 110 33 110 81c0 47 -40 78 -100 78h-95v148h77c64 0 102 31 102 76s-39 74 -92 74c-41 0 -88 -18 -142 -55l-78 119c60 56 150 91 241 91c67 0 124 -18 169 -55c46 -37 69 -82 69 -137
c0 -77 -53 -140 -124 -165v-4c92 -20 145 -93 145 -182c0 -65 -25 -119 -76 -160c-50 -41 -115 -61 -195 -61z" />
    <glyph glyph-name="four" unicode="4" horiz-adv-x="623" 
d="M507 303h79v-136h-79v-167h-153v167h-319l-32 107l381 465h123v-436zM354 514l-170 -211h170v211z" />
    <glyph glyph-name="five" unicode="5" horiz-adv-x="594" 
d="M309 474c71 0 130 -22 177 -65c48 -43 72 -100 72 -170c0 -72 -25 -132 -76 -180c-51 -47 -119 -71 -204 -71c-89 0 -173 26 -252 79l63 132c63 -39 123 -59 181 -59c79 0 123 43 123 99c0 55 -48 96 -113 96c-43 0 -83 -16 -118 -47l-92 81l38 370h400v-152h-278
l-13 -128c30 10 61 15 92 15z" />
    <glyph glyph-name="six" unicode="6" horiz-adv-x="640" 
d="M359 477c71 0 129 -22 174 -67c46 -45 69 -101 69 -169c0 -72 -25 -132 -76 -179c-50 -47 -115 -71 -194 -71c-194 1 -293 159 -289 356c0 105 27 203 78 279c52 77 140 126 248 126c77 0 147 -22 209 -66l-72 -124c-40 28 -83 42 -129 42c-52 0 -94 -19 -125 -57
c-31 -37 -48 -84 -53 -141c35 47 89 71 160 71zM439 238c0 59 -46 103 -106 103c-61 0 -109 -43 -109 -103c0 -61 47 -107 108 -107s107 47 107 107z" />
    <glyph glyph-name="seven" unicode="7" horiz-adv-x="532" 
d="M22 586v153h487v-117l-256 -622h-172l244 586h-303z" />
    <glyph glyph-name="eight" unicode="8" horiz-adv-x="639" 
d="M320 -12c-84 0 -152 20 -203 60c-51 41 -77 93 -77 157c0 84 52 158 136 187v2c-63 31 -105 87 -105 160c0 58 23 105 68 142c46 37 106 56 181 56c74 0 134 -19 180 -56s69 -85 69 -142c0 -73 -42 -129 -107 -160v-3c84 -29 138 -102 138 -186c0 -64 -26 -116 -78 -157
c-51 -40 -119 -60 -202 -60zM320 618c-60 0 -100 -35 -100 -83c0 -23 9 -43 27 -59c18 -15 42 -23 72 -23s54 8 71 23c18 15 27 35 27 59c0 48 -38 83 -97 83zM205 225c0 -55 47 -92 115 -92s114 38 114 91s-45 91 -114 91s-115 -38 -115 -90z" />
    <glyph glyph-name="nine" unicode="9" horiz-adv-x="633" 
d="M306 752c91 0 161 -33 210 -99s74 -152 74 -257c0 -214 -101 -408 -321 -408c-83 0 -152 22 -208 66l60 122c43 -29 88 -43 137 -43c100 0 158 72 173 188c-37 -37 -89 -56 -156 -56c-69 0 -125 22 -170 66c-45 45 -67 101 -67 170c0 73 25 133 74 180
c50 47 115 71 194 71zM303 402c61 0 106 44 106 104c0 61 -46 106 -106 106s-106 -43 -106 -106c0 -60 46 -104 106 -104z" />
    <glyph glyph-name="colon" unicode=":" horiz-adv-x="284" 
d="M143 340c-51 0 -89 37 -89 88c0 49 38 87 89 87c47 0 86 -39 86 -87c0 -51 -38 -88 -86 -88zM143 -16c-51 0 -89 37 -89 88c0 49 38 87 89 87c47 0 86 -39 86 -87c0 -51 -38 -88 -86 -88z" />
    <glyph glyph-name="semicolon" unicode=";" horiz-adv-x="303" 
d="M156 338c-52 0 -92 39 -92 91c0 51 40 90 92 90c49 0 89 -39 89 -90c0 -52 -40 -91 -89 -91zM149 158c56 0 96 -44 96 -103c0 -79 -55 -155 -165 -226l-45 60c21 16 35 28 44 35c17 13 47 43 59 64h-3c-41 0 -77 37 -77 81c0 51 42 89 91 89z" />
    <glyph glyph-name="less" unicode="&#x3c;" horiz-adv-x="552" 
d="M490 199v-158l-460 217v131l460 216v-155l-292 -125z" />
    <glyph glyph-name="equal" unicode="=" horiz-adv-x="585" 
d="M524 364h-462v128h462v-128zM524 163h-462v128h462v-128z" />
    <glyph glyph-name="greater" unicode="&#x3e;" horiz-adv-x="542" 
d="M513 258l-455 -222v158l280 126l-280 125v154l455 -220v-121z" />
    <glyph glyph-name="question" unicode="?" horiz-adv-x="564" 
d="M331 205h-152v63c0 59 27 109 62 141c52 47 115 89 115 147c0 47 -37 79 -88 79c-47 0 -97 -30 -148 -89l-97 108c68 86 154 129 257 129c73 0 132 -21 177 -62s67 -93 67 -155c0 -61 -31 -115 -68 -151c-55 -51 -125 -95 -125 -157v-53zM318 12c-33 -33 -88 -33 -124 0
c-35 35 -35 92 0 125s92 33 125 0s34 -90 -1 -125z" />
    <glyph glyph-name="at" unicode="@" horiz-adv-x="964" 
d="M577 450v39h117v-252c0 -40 19 -59 40 -59s41 14 58 43c18 29 27 66 27 109c0 87 -32 160 -96 219s-141 87 -232 86c-95 -1 -175 -36 -241 -103c-65 -67 -98 -149 -98 -244c0 -97 34 -180 103 -249s153 -103 251 -103c93 0 191 35 262 90l52 -89
c-33 -29 -78 -54 -136 -75s-119 -32 -182 -32c-85 0 -164 21 -235 63c-71 41 -127 97 -168 167c-40 70 -60 146 -60 229c0 125 44 232 132 319c88 88 196 132 323 132c126 0 230 -39 313 -118s125 -174 125 -285c0 -78 -21 -142 -63 -193c-41 -51 -93 -76 -154 -76
c-57 0 -97 24 -119 72c-35 -48 -84 -72 -149 -72c-57 0 -106 21 -145 62s-58 93 -58 155s19 114 58 156s87 63 146 63c54 0 97 -18 129 -54zM471 179c57 0 104 46 104 106c0 31 -10 57 -30 78c-19 21 -44 32 -73 32s-54 -10 -75 -31c-20 -21 -30 -46 -30 -77
c0 -61 45 -108 104 -108z" />
    <glyph glyph-name="A" unicode="A" horiz-adv-x="704" 
d="M697 0h-172l-49 149h-248l-51 -149h-172l277 739h144zM432 294l-79 234l-80 -234h159z" />
    <glyph glyph-name="B" unicode="B" horiz-adv-x="699" 
d="M522 405c92 -23 141 -97 141 -189c0 -61 -22 -113 -65 -154s-100 -62 -171 -62h-349v739h332c68 0 121 -18 158 -55c37 -36 56 -79 56 -128c0 -67 -41 -128 -102 -151zM381 597h-140v-145h133c56 0 86 34 86 74c0 39 -30 71 -79 71zM241 143h151c65 0 100 40 100 87
c0 48 -34 87 -97 87h-154v-174z" />
    <glyph glyph-name="C" unicode="C" horiz-adv-x="761" 
d="M418 -11c-108 0 -198 35 -271 105c-73 71 -109 162 -109 273c0 112 37 204 111 276c75 73 165 109 271 109c132 0 250 -59 317 -150l-108 -110c-56 67 -123 101 -200 101c-61 0 -113 -21 -156 -64s-64 -96 -64 -161c0 -63 21 -116 63 -158s94 -63 156 -63
c80 0 148 34 205 102l111 -104c-68 -92 -189 -156 -326 -156z" />
    <glyph glyph-name="D" unicode="D" horiz-adv-x="774" 
d="M368 0h-290v739h295c113 0 201 -33 264 -100c64 -66 96 -156 96 -270s-32 -204 -97 -270s-154 -99 -268 -99zM243 580v-421h132c60 0 106 20 138 60c33 41 49 91 49 151s-16 110 -49 150c-32 40 -78 60 -138 60h-132z" />
    <glyph glyph-name="E" unicode="E" horiz-adv-x="647" 
d="M593 0h-515v739h516v-154h-350v-137h324v-153h-324v-141h349v-154z" />
    <glyph glyph-name="F" unicode="F" horiz-adv-x="614" 
d="M243 0h-165v739h507v-156h-342v-146h301v-155h-301v-282z" />
    <glyph glyph-name="G" unicode="G" horiz-adv-x="809" 
d="M426 -11c-113 0 -206 36 -279 107c-73 72 -109 163 -109 273c0 111 38 203 113 275s169 108 280 108c119 0 227 -47 295 -115l-106 -120c-54 51 -117 76 -190 76c-65 0 -118 -21 -160 -64c-42 -42 -63 -95 -63 -158s21 -116 62 -159s95 -65 160 -65c72 0 143 30 184 70
v85h-188v142h338v-311c-96 -96 -208 -144 -337 -144z" />
    <glyph glyph-name="H" unicode="H" horiz-adv-x="775" 
d="M243 0h-165v739h165v-289h288v289h166v-739h-166v291h-288v-291z" />
    <glyph glyph-name="I" unicode="I" horiz-adv-x="322" 
d="M78 0v739h166v-739h-166z" />
    <glyph glyph-name="J" unicode="J" horiz-adv-x="594" 
d="M235 -12c-94 0 -172 30 -234 90l76 131c43 -41 91 -62 144 -62c85 0 138 57 138 149v443h165v-449c0 -101 -27 -177 -82 -227c-54 -50 -123 -75 -207 -75z" />
    <glyph glyph-name="K" unicode="K" horiz-adv-x="706" 
d="M719 0h-203l-186 281l-87 -105v-176h-165v739h165v-330l259 330h200l-264 -332z" />
    <glyph glyph-name="L" unicode="L" horiz-adv-x="626" 
d="M612 0h-534v739h166v-581h368v-158z" />
    <glyph glyph-name="M" unicode="M" horiz-adv-x="946" 
d="M241 0h-163v739h116l279 -402l277 402h118v-739h-165v391l-201 -287h-60l-201 287v-391z" />
    <glyph glyph-name="N" unicode="N" horiz-adv-x="799" 
d="M559 307v432h162v-739h-119l-361 428v-428h-163v739h112z" />
    <glyph glyph-name="O" unicode="O" 
d="M37 368c0 107 37 198 111 272c75 75 166 112 275 112s200 -37 274 -112c75 -74 112 -164 112 -271s-37 -197 -111 -271c-74 -73 -166 -110 -276 -110s-202 37 -275 110s-110 163 -110 270zM423 151c61 0 112 21 153 62c41 42 62 94 61 156c-1 63 -22 116 -63 157
c-41 42 -92 63 -151 63c-60 0 -111 -21 -152 -63s-62 -94 -62 -157c0 -62 21 -114 62 -156c41 -41 92 -62 152 -62z" />
    <glyph glyph-name="P" unicode="P" horiz-adv-x="650" 
d="M78 739h283c90 0 157 -24 201 -72c45 -48 67 -107 67 -178s-23 -129 -69 -175s-116 -69 -211 -69h-106v-245h-165v739zM243 394h112c68 0 105 44 105 97s-38 96 -98 96h-119v-193z" />
    <glyph glyph-name="Q" unicode="Q" 
d="M805 -5l23 -135c-47 -17 -94 -25 -143 -25c-123 0 -221 52 -294 155c-101 9 -186 49 -253 121s-101 158 -101 259c0 107 37 197 111 271c75 74 166 111 275 111s200 -37 274 -111c75 -74 112 -165 112 -272c0 -79 -21 -150 -64 -214c-42 -63 -98 -109 -168 -138
c29 -27 69 -41 119 -41c31 0 68 6 109 19zM423 592c-61 0 -112 -21 -155 -64c-42 -43 -63 -96 -63 -159s21 -116 63 -158s94 -63 155 -63s113 21 155 63s63 95 63 158s-21 116 -63 159s-94 64 -155 64z" />
    <glyph glyph-name="R" unicode="R" horiz-adv-x="686" 
d="M661 0h-192l-145 258h-81v-258h-165v739h294c85 0 149 -23 194 -69c45 -45 67 -102 67 -170c0 -95 -47 -179 -143 -219zM371 587h-128v-183h117c69 0 103 41 103 93c0 51 -33 90 -92 90z" />
    <glyph glyph-name="S" unicode="S" horiz-adv-x="621" 
d="M306 -13c-117 0 -222 47 -290 134l90 118c55 -65 122 -98 201 -98c56 0 97 26 97 67c0 27 -21 50 -64 69l-66 24c-42 16 -74 30 -95 41c-79 43 -119 106 -119 187c0 64 24 117 73 159s113 63 190 63c98 0 182 -33 251 -98l-82 -123c-43 41 -112 66 -167 66
c-56 0 -88 -25 -88 -61c0 -25 20 -47 60 -65l72 -29c38 -15 66 -26 85 -35c89 -40 133 -103 133 -188c0 -67 -26 -123 -78 -166c-51 -43 -119 -65 -203 -65z" />
    <glyph glyph-name="T" unicode="T" horiz-adv-x="611" 
d="M223 0v580h-209v159h583v-159h-208v-580h-166z" />
    <glyph glyph-name="U" unicode="U" horiz-adv-x="731" 
d="M366 -13c-84 0 -154 24 -211 73s-85 121 -85 218v461h166v-454c0 -92 51 -138 130 -138c77 0 129 47 129 138v454h166v-461c0 -97 -28 -169 -84 -218s-126 -73 -211 -73z" />
    <glyph glyph-name="V" unicode="V" horiz-adv-x="748" 
d="M375 248l180 491h189l-299 -739h-140l-303 739h191z" />
    <glyph glyph-name="W" unicode="W" horiz-adv-x="1078" 
d="M395 0h-149l-242 739h182l138 -481l159 481h111l161 -481l136 481h182l-241 -739h-149l-144 460z" />
    <glyph glyph-name="X" unicode="X" horiz-adv-x="684" 
d="M196 0h-193l233 373l-216 366h191l132 -241l140 241h193l-229 -366l227 -373h-191l-142 248z" />
    <glyph glyph-name="Y" unicode="Y" horiz-adv-x="693" 
d="M493 739h193l-257 -486v-253h-165v253l-255 486h193l144 -306z" />
    <glyph glyph-name="Z" unicode="Z" horiz-adv-x="662" 
d="M624 0h-588v121l353 466h-339v152h563v-127l-345 -460h356v-152z" />
    <glyph glyph-name="bracketleft" unicode="[" horiz-adv-x="420" 
d="M399 -227h-327v1038h327v-141h-167v-756h167v-141z" />
    <glyph glyph-name="backslash" unicode="\" horiz-adv-x="681" 
d="M193 825l471 -948h-173l-473 948h175z" />
    <glyph glyph-name="bracketright" unicode="]" horiz-adv-x="420" 
d="M348 -227h-327v141h167v756h-167v141h327v-1038z" />
    <glyph glyph-name="asciicircum" unicode="^" horiz-adv-x="550" 
d="M186 431h-154l189 340h108l189 -340h-154l-89 179z" />
    <glyph glyph-name="underscore" unicode="_" horiz-adv-x="594" 
d="M594 -199h-594v145h594v-145z" />
    <glyph glyph-name="grave" unicode="`" horiz-adv-x="379" 
d="M211 799l63 -179h-140l-94 179h171z" />
    <glyph glyph-name="a" unicode="a" horiz-adv-x="681" 
d="M472 490v58h148v-548h-148v56c-47 -47 -103 -70 -169 -70c-78 0 -143 28 -194 83c-51 56 -76 125 -76 208c0 82 26 150 77 204s116 81 193 81c66 0 122 -24 169 -72zM190 275c0 -41 13 -75 39 -104c27 -28 60 -42 101 -42s74 14 101 43s41 63 41 103s-14 74 -41 102
s-60 42 -101 42s-74 -14 -101 -42c-26 -28 -39 -62 -39 -102z" />
    <glyph glyph-name="b" unicode="b" horiz-adv-x="682" 
d="M376 562c77 0 142 -28 194 -83c53 -55 79 -123 79 -205c0 -83 -26 -151 -78 -206s-117 -82 -195 -82c-66 0 -121 25 -164 75v-61h-152v761h157v-267c43 45 96 68 159 68zM489 275c0 40 -13 74 -39 101c-26 28 -59 42 -100 42s-74 -14 -101 -42c-26 -27 -39 -61 -39 -101
c0 -41 13 -75 39 -103c27 -28 60 -42 101 -42s74 14 100 42s39 62 39 103z" />
    <glyph glyph-name="c" unicode="c" horiz-adv-x="605" 
d="M324 -12c-86 0 -156 27 -210 80c-54 54 -81 123 -81 207s27 153 82 206c55 54 125 81 212 81c113 0 213 -56 258 -156l-125 -67c-32 52 -75 78 -130 78c-41 0 -74 -14 -101 -41s-40 -61 -40 -101c0 -41 13 -76 39 -103c27 -27 60 -40 100 -40c55 0 106 32 129 77l127 -75
c-48 -89 -145 -146 -260 -146z" />
    <glyph glyph-name="d" unicode="d" horiz-adv-x="679" 
d="M461 495v266h157v-761h-152v59c-43 -49 -97 -73 -163 -73c-77 0 -141 27 -193 82c-51 55 -77 123 -77 206c0 82 26 150 77 205c52 55 116 83 193 83c62 0 115 -22 158 -67zM469 275c0 40 -13 74 -40 102c-26 28 -59 42 -100 42s-74 -14 -101 -42
c-26 -28 -39 -62 -39 -102c0 -41 13 -76 39 -104c27 -28 60 -42 101 -42s74 14 100 42c27 28 40 63 40 104z" />
    <glyph glyph-name="e" unicode="e" horiz-adv-x="632" 
d="M600 287c0 -19 -2 -41 -5 -66h-403c19 -69 69 -103 149 -103c62 0 119 18 171 53l62 -107c-67 -51 -147 -76 -240 -76c-97 0 -171 28 -223 83c-51 55 -77 123 -77 204c0 83 27 151 80 205c53 55 123 82 209 82c81 0 147 -25 199 -74s78 -116 78 -201zM323 435
c-64 0 -115 -38 -132 -102h258c-15 63 -61 102 -126 102z" />
    <glyph glyph-name="f" unicode="f" horiz-adv-x="446" 
d="M362 651c-61 0 -96 -32 -96 -89v-14h169v-130h-169v-418h-156v418h-81v130h81v18c0 73 21 128 63 166c43 38 98 57 165 57c56 0 112 -15 167 -44l-51 -119c-37 17 -68 25 -92 25z" />
    <glyph glyph-name="g" unicode="g" horiz-adv-x="678" 
d="M475 494v54h143v-494c0 -88 -29 -158 -87 -209c-57 -52 -131 -78 -220 -78c-95 0 -181 27 -256 82l60 116c63 -43 127 -64 190 -64c104 0 163 60 163 141v21c-41 -43 -95 -64 -162 -64c-81 0 -146 26 -197 79s-76 120 -76 201c0 83 27 151 80 204s120 79 199 79
c65 0 120 -23 163 -68zM470 278c0 81 -59 140 -139 140c-40 0 -73 -13 -100 -40c-27 -26 -40 -59 -40 -100s13 -75 40 -102s60 -41 100 -41s73 13 99 40c27 27 40 62 40 103z" />
    <glyph glyph-name="h" unicode="h" horiz-adv-x="652" 
d="M217 0h-157v761h153v-286c29 49 93 88 173 88c59 0 109 -20 150 -59s62 -96 62 -169v-335h-157v294c0 80 -41 125 -106 125c-71 0 -118 -52 -118 -129v-290z" />
    <glyph glyph-name="i" unicode="i" horiz-adv-x="278" 
d="M143 604c-53 0 -94 40 -94 93s41 93 94 93c52 0 93 -40 93 -93s-41 -93 -93 -93zM220 548v-548h-157v548h157z" />
    <glyph glyph-name="j" unicode="j" horiz-adv-x="302" 
d="M163 604c-53 0 -94 40 -94 93s41 93 94 93c52 0 93 -40 93 -93s-41 -93 -93 -93zM21 -234c-59 0 -104 10 -135 31l30 123c28 -11 54 -16 78 -16c60 0 90 35 90 106v538h157v-550c0 -155 -89 -232 -220 -232z" />
    <glyph glyph-name="k" unicode="k" horiz-adv-x="597" 
d="M611 0h-190l-173 227l-31 -29v-198h-157v761h157v-388l184 175h194l-240 -223z" />
    <glyph glyph-name="l" unicode="l" horiz-adv-x="277" 
d="M217 761v-761h-157v761h157z" />
    <glyph glyph-name="m" unicode="m" horiz-adv-x="1012" 
d="M733 563c65 0 118 -20 161 -60s64 -97 64 -170v-333h-157v303c0 76 -41 116 -101 116c-65 0 -112 -46 -112 -121v-298h-157v302c0 73 -42 117 -103 117c-64 0 -111 -46 -111 -122v-297h-157v548h153v-78c31 59 98 94 169 93c67 0 128 -30 157 -93c41 60 115 93 194 93z
" />
    <glyph glyph-name="n" unicode="n" horiz-adv-x="652" 
d="M217 0h-157v548h153v-76c29 52 94 91 173 91c59 0 110 -20 151 -59s62 -96 62 -169v-335h-157v294c0 80 -42 125 -107 125c-71 0 -118 -52 -118 -129v-290z" />
    <glyph glyph-name="o" unicode="o" horiz-adv-x="657" 
d="M328 -15c-87 0 -158 28 -213 83c-55 56 -82 125 -82 206s27 150 82 205c55 56 126 84 213 84s159 -28 214 -84c55 -55 83 -124 83 -205s-28 -150 -83 -206c-55 -55 -127 -83 -214 -83zM468 275c0 39 -14 73 -41 100c-27 28 -60 42 -99 42s-72 -14 -99 -42
c-27 -27 -40 -61 -40 -100c0 -41 13 -75 40 -103c27 -27 60 -41 99 -41s72 14 99 41c27 28 41 62 41 103z" />
    <glyph glyph-name="p" unicode="p" horiz-adv-x="684" 
d="M382 562c78 0 142 -28 193 -84c51 -55 76 -123 76 -203c0 -81 -26 -149 -77 -205s-115 -84 -192 -84c-65 0 -120 23 -165 70v-282h-157v774h155v-61c45 50 101 75 167 75zM492 274c0 40 -13 74 -39 101c-26 28 -59 42 -100 42c-40 0 -73 -14 -99 -42
c-26 -27 -39 -61 -39 -101c0 -81 57 -144 138 -144s139 63 139 144z" />
    <glyph glyph-name="q" unicode="q" horiz-adv-x="684" 
d="M469 488v60h155v-774h-157v282c-45 -47 -100 -70 -165 -70c-77 0 -142 28 -193 84s-76 124 -76 205c0 80 25 148 76 203c51 56 116 84 193 84c65 0 121 -25 167 -74zM470 274c0 40 -13 74 -39 101c-26 28 -59 42 -100 42s-74 -14 -100 -42c-26 -27 -39 -61 -39 -101
c0 -81 58 -144 139 -144s139 63 139 144z" />
    <glyph glyph-name="r" unicode="r" horiz-adv-x="432" 
d="M217 0h-157v548h150v-71c35 57 84 86 149 86c21 0 43 -4 68 -13l-13 -150c-23 8 -46 12 -69 12c-77 0 -128 -50 -128 -162v-250z" />
    <glyph glyph-name="s" unicode="s" horiz-adv-x="511" 
d="M254 -15c-97 0 -175 34 -234 101l77 102c47 -48 99 -72 157 -72c39 0 67 17 67 44c0 16 -11 29 -34 40c-8 4 -30 12 -65 24c-35 13 -59 22 -71 28c-65 31 -98 80 -98 145c0 50 19 91 58 122s91 47 156 47c79 0 145 -25 198 -76l-73 -102c-41 34 -84 51 -128 51
c-35 0 -57 -16 -57 -39c0 -20 16 -35 49 -46c59 -19 102 -35 130 -50c62 -33 93 -79 93 -140c0 -51 -21 -94 -62 -128s-95 -51 -163 -51z" />
    <glyph glyph-name="t" unicode="t" horiz-adv-x="473" 
d="M426 156l44 -125c-47 -30 -103 -45 -168 -45c-131 0 -196 74 -196 221v211h-87v130h88v194h156v-194h176v-130h-176v-196c0 -62 24 -93 73 -93c25 0 55 9 90 27z" />
    <glyph glyph-name="u" unicode="u" horiz-adv-x="620" 
d="M310 -14c-159 0 -257 92 -257 249v313h157v-314c0 -63 37 -104 100 -104s100 41 100 104v314h157v-313c0 -159 -97 -249 -257 -249z" />
    <glyph glyph-name="v" unicode="v" horiz-adv-x="608" 
d="M306 212l125 336h171l-237 -547h-123l-236 547h173z" />
    <glyph glyph-name="w" unicode="w" horiz-adv-x="890" 
d="M332 1h-139l-187 547h165l103 -341l115 341h111l117 -341l101 341h165l-185 -547h-139l-114 320z" />
    <glyph glyph-name="x" unicode="x" horiz-adv-x="568" 
d="M387 275l172 -275h-181l-95 171l-101 -171h-179l177 278l-157 270h179l84 -160l92 160h176z" />
    <glyph glyph-name="y" unicode="y" horiz-adv-x="614" 
d="M319 209l118 339h170l-217 -563c-56 -145 -130 -218 -247 -218c-45 0 -82 10 -111 29l29 130c24 -13 48 -19 71 -19c43 0 79 28 106 84l7 16l-239 541h181z" />
    <glyph glyph-name="z" unicode="z" horiz-adv-x="549" 
d="M504 438l-255 -308h266v-130h-482v109l261 308h-249v130h459v-109z" />
    <glyph glyph-name="braceleft" unicode="{" horiz-adv-x="420" 
d="M201 291v-4c51 -15 97 -58 97 -119c0 -16 -2 -45 -6 -86s-6 -69 -6 -86c0 -49 25 -74 75 -74h26v-153h-77c-123 0 -185 64 -185 192c0 18 1 46 4 85s5 68 5 85c0 69 -38 88 -115 95v128c77 8 115 26 115 95c0 17 -2 45 -5 86s-4 71 -4 92c0 123 65 184 194 184h68v-153
h-26c-50 0 -75 -24 -75 -73c0 -17 2 -46 6 -88s6 -71 6 -86c0 -61 -46 -104 -97 -120z" />
    <glyph glyph-name="bar" unicode="|" horiz-adv-x="303" 
d="M231 -179h-159v1026h159v-1026z" />
    <glyph glyph-name="braceright" unicode="}" horiz-adv-x="420" 
d="M219 287v4c-51 16 -97 59 -97 120c0 15 2 44 6 86s6 71 6 88c0 49 -25 73 -75 73h-26v153h68c129 0 194 -61 194 -184c0 -21 -2 -51 -5 -92s-4 -69 -4 -86c0 -69 38 -87 115 -95v-128c-77 -7 -115 -26 -115 -95c0 -17 1 -46 4 -85s5 -67 5 -85c0 -128 -62 -192 -185 -192
h-77v153h26c50 0 75 25 75 74c0 17 -2 45 -6 86s-6 70 -6 86c0 61 46 104 97 119z" />
    <glyph glyph-name="asciitilde" unicode="~" horiz-adv-x="710" 
d="M463 225c-39 0 -82 10 -129 31c-46 21 -78 32 -95 32c-32 0 -55 -14 -96 -65l-100 80c41 81 116 124 201 124c39 0 81 -11 128 -32s80 -31 99 -31c32 0 55 16 95 71l104 -83c-50 -85 -119 -127 -207 -127z" />
    <glyph glyph-name="exclamdown" unicode="&#xa1;" horiz-adv-x="284" 
d="M160 527c48 0 86 -38 86 -89c0 -48 -39 -86 -86 -86c-51 0 -90 38 -90 86c0 51 39 89 90 89zM77 -244l9 544h143l11 -544h-163z" />
    <glyph glyph-name="cent" unicode="&#xa2;" horiz-adv-x="623" 
d="M370 413v-276c43 11 74 35 92 72l127 -75c-41 -79 -122 -132 -219 -144v-76h-83v76c-75 9 -135 40 -181 92c-45 52 -68 116 -68 193c0 76 23 140 68 192c46 52 106 83 181 92v75h83v-74c97 -11 179 -65 220 -154l-125 -67c-25 39 -56 64 -95 74zM194 275
c0 -64 37 -117 93 -136v270c-56 -19 -93 -71 -93 -134z" />
    <glyph glyph-name="sterling" unicode="&#xa3;" horiz-adv-x="594" 
d="M293 307v-9c-1 -54 -21 -103 -60 -147h317v-151h-497v128c53 55 80 113 80 174v5h-86v122h57c-12 39 -18 72 -18 101c0 63 24 115 72 158s105 64 172 64c99 0 185 -48 228 -117l-104 -100c-25 37 -66 61 -107 61c-56 0 -96 -41 -96 -94c0 -16 5 -40 15 -73h223v-122h-196
z" />
    <glyph glyph-name="currency" unicode="&#xa4;" horiz-adv-x="647" 
d="M559 367c0 -43 -12 -83 -35 -120l77 -76l-71 -71l-79 77c-39 -24 -82 -36 -130 -36c-47 0 -90 11 -127 34l-77 -75l-70 71l74 73c-25 37 -37 78 -37 123c0 49 14 93 42 132l-79 79l70 72l85 -84c37 20 76 30 119 30c45 0 86 -10 122 -31l87 85l71 -72l-83 -81
c27 -39 41 -82 41 -130zM241 287c21 -22 48 -33 80 -33s59 11 80 33c22 23 33 50 33 82s-11 59 -33 81c-21 22 -48 33 -80 33s-59 -11 -80 -33s-32 -49 -32 -81s11 -59 32 -82z" />
    <glyph glyph-name="yen" unicode="&#xa5;" horiz-adv-x="710" 
d="M499 739h185l-167 -322h85v-119h-147l-18 -35v-7h165v-119h-165v-137h-165v137h-166v119h166v8l-18 34h-148v119h87l-165 322h185l142 -309z" />
    <glyph glyph-name="brokenbar" unicode="&#xa6;" horiz-adv-x="303" 
d="M231 434h-159v413h159v-413zM72 234h159v-413h-159v413z" />
    <glyph glyph-name="section" unicode="&#xa7;" horiz-adv-x="636" 
d="M600 215c0 -58 -23 -105 -70 -140c20 -29 30 -63 30 -100c0 -60 -24 -110 -71 -151s-109 -61 -185 -61c-105 0 -204 44 -269 131l104 109c40 -52 103 -88 162 -88c49 0 81 26 81 61c0 26 -25 52 -74 77c-12 6 -34 17 -67 32c-56 25 -87 43 -128 76c-41 35 -63 78 -63 130
c0 57 23 104 70 140c-21 31 -31 65 -31 102c0 65 24 118 72 158c48 41 109 61 183 61c94 0 171 -35 231 -105l-112 -105c-34 38 -72 57 -114 57c-52 0 -87 -28 -87 -64c0 -22 14 -37 34 -54c11 -8 40 -22 52 -29l32 -15l32 -14c55 -24 86 -42 126 -75c41 -33 62 -78 62 -133
zM308 221c49 -23 85 -40 108 -52c10 11 15 23 15 34c0 31 -31 51 -96 82c-57 27 -92 45 -107 54c-10 -12 -15 -24 -15 -35c0 -31 31 -51 95 -83z" />
    <glyph glyph-name="dieresis" unicode="&#xa8;" horiz-adv-x="514" 
d="M133 620c-52 0 -90 37 -90 89c0 49 39 88 90 88s89 -39 89 -88c0 -52 -38 -89 -89 -89zM357 620c-52 0 -90 37 -90 89c0 49 39 88 90 88s89 -39 89 -88c0 -52 -38 -89 -89 -89z" />
    <glyph glyph-name="copyright" unicode="&#xa9;" 
d="M38 369c0 105 38 195 113 270s166 113 272 113s197 -38 272 -113s113 -165 113 -270s-38 -194 -113 -269s-166 -112 -272 -112s-197 37 -272 112s-113 164 -113 269zM423 77c81 1 150 29 207 86c58 57 87 126 87 206c0 81 -29 150 -87 207c-57 57 -126 86 -207 86
s-150 -29 -208 -86c-57 -57 -86 -126 -86 -207c0 -80 29 -149 86 -206s127 -85 208 -86zM426 163c-60 0 -110 19 -149 58s-58 89 -58 148s19 109 58 148s89 59 149 59c75 0 139 -37 175 -102l-80 -48c-26 34 -57 51 -93 51c-61 0 -106 -45 -106 -108s44 -108 105 -108
c40 0 71 16 94 49l79 -54c-38 -62 -96 -93 -174 -93z" />
    <glyph glyph-name="ordfeminine" unicode="&#xaa;" horiz-adv-x="407" 
d="M196 736c89 0 157 -51 157 -160v-186h-89v34c-25 -27 -61 -41 -106 -41c-76 0 -120 46 -120 109c0 71 58 105 149 105c11 0 36 -1 73 -2c-5 37 -30 56 -76 56c-35 0 -69 -8 -101 -24l-29 72c41 25 89 37 142 37zM177 461c47 0 82 29 83 73c-34 1 -56 2 -66 1
c-43 -1 -64 -14 -64 -38s16 -36 47 -36z" />
    <glyph glyph-name="guillemotleft" unicode="&#xab;" horiz-adv-x="611" 
d="M329 88h-165l-134 203l134 203h165l-139 -203zM568 88h-167l-132 203l133 203h166l-139 -203z" />
    <glyph glyph-name="logicalnot" unicode="&#xac;" horiz-adv-x="602" 
d="M395 243h-335v144h476v-251h-141v107z" />
    <glyph glyph-name="uni00AD" unicode="&#xad;" horiz-adv-x="496" 
d="M439 255h-382v146h382v-146z" />
    <glyph glyph-name="registered" unicode="&#xae;" horiz-adv-x="602" 
d="M302 783c72 0 133 -25 184 -76s77 -112 77 -184s-26 -133 -77 -184s-112 -76 -184 -76c-73 0 -135 25 -186 76s-76 112 -76 184s25 133 76 184s113 76 186 76zM302 329c53 0 98 19 135 57s56 84 56 137s-19 99 -56 137s-82 57 -135 57c-54 0 -99 -19 -136 -57
s-55 -84 -55 -137s18 -99 55 -137s82 -57 136 -57zM404 565c0 -35 -15 -59 -45 -72l50 -88h-69l-43 79h-28v-79h-64v241h115c48 0 84 -34 84 -81zM304 594h-35v-59h35c23 0 35 10 35 31c0 19 -12 28 -35 28z" />
    <glyph glyph-name="overscore" unicode="&#xaf;" horiz-adv-x="448" 
d="M374 635l-334 -2v137h334v-135z" />
    <glyph glyph-name="degree" unicode="&#xb0;" horiz-adv-x="367" 
d="M28 679c0 43 15 79 45 108c31 30 68 45 111 45s80 -15 110 -45c30 -29 45 -65 45 -108c0 -42 -15 -78 -45 -107s-67 -44 -110 -44s-80 15 -111 44c-30 29 -45 65 -45 107zM140 635c24 -24 64 -24 88 0s24 64 0 88s-64 24 -88 0s-24 -64 0 -88z" />
    <glyph glyph-name="plusminus" unicode="&#xb1;" horiz-adv-x="628" 
d="M575 496v-145h-188v-170h188v-141h-522v141h190v170h-190v145h190v189h144v-189h188z" />
    <glyph glyph-name="uni00B2" unicode="&#xb2;" horiz-adv-x="347" 
d="M254 672l-75 -76h133v-89h-276v81l129 130c28 29 42 52 42 68c0 21 -17 36 -42 36s-57 -18 -96 -55l-48 74c43 47 94 71 151 71c80 0 138 -52 138 -125c0 -37 -19 -76 -56 -115z" />
    <glyph glyph-name="uni00B3" unicode="&#xb3;" horiz-adv-x="334" 
d="M147 501c-47 0 -94 13 -139 40l40 78c38 -18 69 -27 94 -27c38 0 57 13 57 38c0 21 -23 36 -56 36h-54v85h47c27 0 54 11 54 36c0 21 -16 32 -47 32c-23 0 -48 -9 -77 -26l-48 71c39 32 85 48 138 48c39 0 71 -10 97 -30c27 -20 40 -45 40 -74c0 -43 -29 -76 -72 -89v-2
c53 -12 83 -49 83 -96c0 -71 -64 -120 -157 -120z" />
    <glyph glyph-name="acute" unicode="&#xb4;" horiz-adv-x="390" 
d="M180 620h-140l62 179h172z" />
    <glyph glyph-name="paragraph" unicode="&#xb6;" horiz-adv-x="797" 
d="M269 734h482v-156h-79v-781h-160v781h-71v-781h-160v474h-29c-65 0 -119 21 -162 63c-42 42 -63 98 -63 167c0 70 22 126 66 169c45 43 103 64 176 64z" />
    <glyph glyph-name="middot" unicode="&#xb7;" horiz-adv-x="268" 
d="M136 -16c-51 0 -89 37 -89 88c0 49 38 87 89 87c48 0 86 -39 86 -87c0 -51 -38 -88 -86 -88z" />
    <glyph glyph-name="cedilla" unicode="&#xb8;" horiz-adv-x="355" 
d="M239 18l-27 -66c60 -4 107 -44 107 -103c0 -67 -56 -123 -152 -123c-40 0 -82 10 -127 31l32 88c29 -14 56 -21 81 -21c33 0 51 16 51 36c0 22 -19 33 -57 33h-53l-8 29l39 98z" />
    <glyph glyph-name="uni00B9" unicode="&#xb9;" horiz-adv-x="281" 
d="M8 792l147 110h76v-395h-102v254l-69 -50z" />
    <glyph glyph-name="ordmasculine" unicode="&#xba;" horiz-adv-x="424" 
d="M32 556c0 51 17 93 51 126c35 34 78 51 129 51s94 -17 128 -51c35 -33 52 -75 52 -126c0 -50 -17 -92 -52 -125c-34 -33 -77 -50 -128 -50s-94 17 -129 50c-34 33 -51 75 -51 125zM212 474c49 0 84 35 84 83c0 47 -36 84 -85 84c-47 0 -83 -37 -83 -84
c0 -48 36 -83 84 -83z" />
    <glyph glyph-name="guillemotright" unicode="&#xbb;" horiz-adv-x="611" 
d="M342 291l-132 -203h-167l139 203l-139 203h166zM581 291l-134 -203h-165l139 203l-139 203h165z" />
    <glyph glyph-name="onequarter" unicode="&#xbc;" horiz-adv-x="893" 
d="M252 347h-101v255l-70 -51l-52 81l148 110h75v-395zM105 0l578 739h124l-577 -739h-125zM807 167h42v-81h-42v-86h-93v86h-175l-21 61l209 249h80v-229zM714 271l-89 -104h89v104z" />
    <glyph glyph-name="onehalf" unicode="&#xbd;" horiz-adv-x="874" 
d="M253 347h-101v255l-70 -51l-52 81l148 110h75v-395zM84 0l578 739h124l-577 -739h-125zM775 165l-75 -76h133v-89h-276v81l129 130c28 29 42 52 42 68c0 21 -17 36 -42 36s-57 -18 -96 -55l-48 74c43 47 94 71 151 71c80 0 138 -52 138 -125c0 -37 -19 -76 -56 -115z" />
    <glyph glyph-name="threequarters" unicode="&#xbe;" horiz-adv-x="852" 
d="M154 432c38 0 57 13 57 38c0 21 -23 36 -56 36h-54v85h47c27 0 54 11 54 36c0 21 -16 32 -47 32c-23 0 -48 -9 -77 -26l-48 71c39 32 85 48 138 48c39 0 71 -10 97 -30c27 -20 40 -45 40 -74c0 -43 -29 -76 -72 -89v-2c53 -12 83 -49 83 -96c0 -71 -64 -120 -157 -120
c-47 0 -94 13 -139 40l40 78c38 -18 69 -27 94 -27zM104 0l578 739h124l-577 -739h-125zM676 396h80v-229h42v-81h-42v-86h-93v86h-175l-21 61zM663 271l-89 -104h89v104z" />
    <glyph glyph-name="questiondown" unicode="&#xbf;" horiz-adv-x="557" 
d="M240 502c35 35 89 35 124 0c36 -33 36 -91 1 -124s-92 -33 -125 0s-33 91 0 124zM228 310h152v-63c0 -59 -27 -109 -62 -141c-51 -47 -115 -89 -115 -147c0 -47 37 -79 88 -79c47 0 97 30 148 89l97 -108c-68 -86 -154 -129 -257 -129c-73 0 -132 21 -177 62
s-67 93 -67 155c0 61 31 115 68 150c56 52 125 96 125 158v53z" />
    <glyph glyph-name="Agrave" unicode="&#xc0;" horiz-adv-x="704" 
d="M362 984l66 -189h-149l-99 189h182zM697 0h-172l-49 149h-248l-51 -149h-172l277 739h144zM432 294l-79 234l-80 -234h159z" />
    <glyph glyph-name="Aacute" unicode="&#xc1;" horiz-adv-x="704" 
d="M351 982h180l-98 -188h-147zM697 0h-172l-49 149h-248l-51 -149h-172l277 739h144zM432 294l-79 234l-80 -234h159z" />
    <glyph glyph-name="Acircumflex" unicode="&#xc2;" horiz-adv-x="704" 
d="M418 794l-65 90l-66 -90h-153l159 190h124l159 -190h-158zM697 0h-172l-49 149h-248l-51 -149h-172l277 739h144zM432 294l-79 234l-80 -234h159z" />
    <glyph glyph-name="Atilde" unicode="&#xc3;" horiz-adv-x="704" 
d="M287 839c-25 0 -48 -18 -68 -53l-102 51c40 84 86 125 158 125c23 0 49 -8 78 -23s48 -22 59 -22c24 0 38 14 61 51l102 -49c-33 -83 -82 -125 -147 -125c-21 0 -47 7 -77 22s-51 23 -64 23zM697 0h-172l-49 149h-248l-51 -149h-172l277 739h144zM432 294l-79 234
l-80 -234h159z" />
    <glyph glyph-name="Adieresis" unicode="&#xc4;" horiz-adv-x="704" 
d="M143 884c0 49 40 89 91 89s90 -38 90 -89c0 -52 -38 -90 -90 -90s-91 38 -91 90zM461 794c-52 0 -91 38 -91 90c0 49 40 89 91 89s90 -40 90 -89c0 -52 -39 -90 -90 -90zM697 0h-172l-49 149h-248l-51 -149h-172l277 739h144zM432 294l-79 234l-80 -234h159z" />
    <glyph glyph-name="Aring" unicode="&#xc5;" horiz-adv-x="704" 
d="M355 778c-41 0 -75 13 -103 40s-42 60 -42 99s14 73 42 100s62 41 103 41c40 0 74 -14 103 -42c29 -27 43 -60 43 -99s-14 -72 -43 -99s-63 -40 -103 -40zM355 972c-31 0 -55 -24 -55 -53c0 -31 24 -54 55 -54c29 0 53 23 53 54c0 29 -24 53 -53 53zM697 0h-172l-49 149
h-248l-51 -149h-172l277 739h144zM432 294l-79 234l-80 -234h159z" />
    <glyph glyph-name="AE" unicode="&#xc6;" horiz-adv-x="1062" 
d="M1009 739v-154h-353v-137h326v-153h-326v-141h352v-154h-519v158h-239l-89 -158h-180l441 739h587zM489 582l-157 -278h157v278z" />
    <glyph glyph-name="Ccedilla" unicode="&#xc7;" horiz-adv-x="760" 
d="M632 249l111 -104c-59 -79 -158 -138 -273 -153l-16 -40c60 -4 107 -44 107 -103c0 -67 -56 -123 -152 -123c-40 0 -82 10 -127 31l32 88c29 -14 56 -21 81 -21c33 0 51 16 51 36c0 22 -19 33 -57 33h-53l-8 29l28 71c-93 13 -169 54 -229 122s-90 152 -90 252
c0 112 37 204 111 276c75 73 165 109 271 109c132 0 250 -59 317 -150l-108 -110c-56 67 -123 101 -200 101c-61 0 -113 -21 -156 -64s-64 -96 -64 -161c0 -63 21 -116 63 -158s94 -63 156 -63c80 0 148 34 205 102z" />
    <glyph glyph-name="Egrave" unicode="&#xc8;" horiz-adv-x="647" 
d="M354 984l66 -189h-149l-99 189h182zM593 0h-515v739h516v-154h-350v-137h324v-153h-324v-141h349v-154z" />
    <glyph glyph-name="Eacute" unicode="&#xc9;" horiz-adv-x="647" 
d="M403 794h-147l65 188h180zM593 0h-515v739h516v-154h-350v-137h324v-153h-324v-141h349v-154z" />
    <glyph glyph-name="Ecircumflex" unicode="&#xca;" horiz-adv-x="647" 
d="M269 794h-153l159 190h124l159 -190h-158l-65 90zM593 0h-515v739h516v-154h-350v-137h324v-153h-324v-141h349v-154z" />
    <glyph glyph-name="Edieresis" unicode="&#xcb;" horiz-adv-x="647" 
d="M132 884c0 49 40 89 91 89s90 -38 90 -89c0 -52 -38 -90 -90 -90s-91 38 -91 90zM450 794c-52 0 -91 38 -91 90c0 49 40 89 91 89s90 -40 90 -89c0 -52 -39 -90 -90 -90zM593 0h-515v739h516v-154h-350v-137h324v-153h-324v-141h349v-154z" />
    <glyph glyph-name="Igrave" unicode="&#xcc;" horiz-adv-x="322" 
d="M175 984l66 -189h-149l-99 189h182zM79 0v739h166v-739h-166z" />
    <glyph glyph-name="Iacute" unicode="&#xcd;" horiz-adv-x="321" 
d="M231 795h-147l65 188h180zM78 0v739h166v-739h-166z" />
    <glyph glyph-name="Icircumflex" unicode="&#xce;" horiz-adv-x="322" 
d="M95 796h-153l159 190h124l159 -190h-158l-65 90zM79 0v739h166v-739h-166z" />
    <glyph glyph-name="Idieresis" unicode="&#xcf;" horiz-adv-x="322" 
d="M48 794c-53 0 -93 39 -93 92c0 51 41 91 93 91c51 0 91 -40 91 -91c0 -53 -39 -92 -91 -92zM186 886c0 51 41 91 92 91c52 0 92 -40 92 -91c0 -53 -40 -92 -92 -92s-92 39 -92 92zM79 0v739h166v-739h-166z" />
    <glyph glyph-name="Eth" unicode="&#xd0;" horiz-adv-x="789" 
d="M92 739h295c113 0 201 -33 264 -100c64 -66 96 -156 96 -270s-32 -204 -97 -270s-154 -99 -268 -99h-290v304h-75v132h75v303zM257 159h132c60 0 106 20 138 60c33 41 49 91 49 151s-16 110 -49 150c-32 40 -78 60 -138 60h-132v-144h184v-132h-184v-145z" />
    <glyph glyph-name="Ntilde" unicode="&#xd1;" horiz-adv-x="799" 
d="M273 791l-102 51c40 84 86 125 158 125c23 0 49 -8 78 -23s48 -22 59 -22c24 0 38 14 61 51l102 -49c-33 -83 -82 -125 -147 -125c-21 0 -47 7 -77 22s-51 23 -64 23c-25 0 -48 -18 -68 -53zM559 307v432h162v-739h-119l-361 428v-428h-163v739h112z" />
    <glyph glyph-name="Ograve" unicode="&#xd2;" 
d="M442 984l66 -189h-149l-99 189h182zM37 368c0 107 37 198 111 272c75 75 166 112 275 112s200 -37 274 -112c75 -74 112 -164 112 -271s-37 -197 -111 -271c-74 -73 -166 -110 -276 -110s-202 37 -275 110s-110 163 -110 270zM423 151c61 0 112 21 153 62
c41 42 62 94 61 156c-1 63 -22 116 -63 157c-41 42 -92 63 -151 63c-60 0 -111 -21 -152 -63s-62 -94 -62 -157c0 -62 21 -114 62 -156c41 -41 92 -62 152 -62z" />
    <glyph glyph-name="Oacute" unicode="&#xd3;" 
d="M497 794h-147l65 188h180zM37 368c0 107 37 198 111 272c75 75 166 112 275 112s200 -37 274 -112c75 -74 112 -164 112 -271s-37 -197 -111 -271c-74 -73 -166 -110 -276 -110s-202 37 -275 110s-110 163 -110 270zM423 151c61 0 112 21 153 62c41 42 62 94 61 156
c-1 63 -22 116 -63 157c-41 42 -92 63 -151 63c-60 0 -111 -21 -152 -63s-62 -94 -62 -157c0 -62 21 -114 62 -156c41 -41 92 -62 152 -62z" />
    <glyph glyph-name="Ocircumflex" unicode="&#xd4;" 
d="M356 794h-153l159 190h124l159 -190h-158l-65 90zM37 368c0 107 37 198 111 272c75 75 166 112 275 112s200 -37 274 -112c75 -74 112 -164 112 -271s-37 -197 -111 -271c-74 -73 -166 -110 -276 -110s-202 37 -275 110s-110 163 -110 270zM423 151c61 0 112 21 153 62
c41 42 62 94 61 156c-1 63 -22 116 -63 157c-41 42 -92 63 -151 63c-60 0 -111 -21 -152 -63s-62 -94 -62 -157c0 -62 21 -114 62 -156c41 -41 92 -62 152 -62z" />
    <glyph glyph-name="Otilde" unicode="&#xd5;" 
d="M298 786l-102 51c40 84 86 125 158 125c23 0 48 -8 77 -23s49 -22 60 -22c24 0 38 14 61 51l102 -49c-33 -83 -82 -125 -147 -125c-21 0 -46 7 -76 22s-52 23 -65 23c-25 0 -48 -18 -68 -53zM37 368c0 107 37 198 111 272c75 75 166 112 275 112s200 -37 274 -112
c75 -74 112 -164 112 -271s-37 -197 -111 -271c-74 -73 -166 -110 -276 -110s-202 37 -275 110s-110 163 -110 270zM423 151c61 0 112 21 153 62c41 42 62 94 61 156c-1 63 -22 116 -63 157c-41 42 -92 63 -151 63c-60 0 -111 -21 -152 -63s-62 -94 -62 -157
c0 -62 21 -114 62 -156c41 -41 92 -62 152 -62z" />
    <glyph glyph-name="Odieresis" unicode="&#xd6;" 
d="M221 884c0 49 40 89 91 89s90 -38 90 -89c0 -52 -38 -90 -90 -90s-91 38 -91 90zM539 794c-52 0 -91 38 -91 90c0 49 40 89 91 89s90 -40 90 -89c0 -52 -39 -90 -90 -90zM37 368c0 107 37 198 111 272c75 75 166 112 275 112s200 -37 274 -112c75 -74 112 -164 112 -271
s-37 -197 -111 -271c-74 -73 -166 -110 -276 -110s-202 37 -275 110s-110 163 -110 270zM423 151c61 0 112 21 153 62c41 42 62 94 61 156c-1 63 -22 116 -63 157c-41 42 -92 63 -151 63c-60 0 -111 -21 -152 -63s-62 -94 -62 -157c0 -62 21 -114 62 -156
c41 -41 92 -62 152 -62z" />
    <glyph glyph-name="multiply" unicode="&#xd7;" horiz-adv-x="569" 
d="M430 583l98 -94l-149 -150l148 -147l-94 -100l-150 150l-149 -150l-94 100l147 147l-146 146l93 98l149 -148z" />
    <glyph glyph-name="Oslash" unicode="&#xd8;" 
d="M760 735l-65 -92c76 -74 114 -165 114 -274c0 -107 -37 -197 -111 -271c-74 -73 -166 -110 -276 -110c-59 0 -113 11 -164 34l-61 -86l-93 63l59 84c-79 71 -126 173 -126 285c0 107 37 198 111 272c75 75 166 112 275 112c65 0 125 -15 182 -44l63 90zM209 369
c0 -57 18 -105 53 -146l246 349c-27 11 -55 17 -85 17c-60 0 -111 -21 -152 -63s-62 -94 -62 -157zM423 151c61 0 112 21 153 62c41 42 62 94 61 156c0 50 -14 94 -42 132l-239 -340c23 -7 46 -10 67 -10z" />
    <glyph glyph-name="Ugrave" unicode="&#xd9;" horiz-adv-x="731" 
d="M383 984l66 -189h-149l-99 189h182zM366 -13c-84 0 -154 24 -211 73s-85 121 -85 218v461h166v-454c0 -92 51 -138 130 -138c77 0 129 47 129 138v454h166v-461c0 -97 -28 -169 -84 -218s-126 -73 -211 -73z" />
    <glyph glyph-name="Uacute" unicode="&#xda;" horiz-adv-x="731" 
d="M435 794h-147l65 188h180zM366 -13c-84 0 -154 24 -211 73s-85 121 -85 218v461h166v-454c0 -92 51 -138 130 -138c77 0 129 47 129 138v454h166v-461c0 -97 -28 -169 -84 -218s-126 -73 -211 -73z" />
    <glyph glyph-name="Ucircumflex" unicode="&#xdb;" horiz-adv-x="731" 
d="M299 794h-153l159 190h124l159 -190h-158l-65 90zM366 -13c-84 0 -154 24 -211 73s-85 121 -85 218v461h166v-454c0 -92 51 -138 130 -138c77 0 129 47 129 138v454h166v-461c0 -97 -28 -169 -84 -218s-126 -73 -211 -73z" />
    <glyph glyph-name="Udieresis" unicode="&#xdc;" horiz-adv-x="731" 
d="M161 884c0 49 40 89 91 89s90 -38 90 -89c0 -52 -38 -90 -90 -90s-91 38 -91 90zM479 794c-52 0 -91 38 -91 90c0 49 40 89 91 89s90 -40 90 -89c0 -52 -39 -90 -90 -90zM366 -13c-84 0 -154 24 -211 73s-85 121 -85 218v461h166v-454c0 -92 51 -138 130 -138
c77 0 129 47 129 138v454h166v-461c0 -97 -28 -169 -84 -218s-126 -73 -211 -73z" />
    <glyph glyph-name="Yacute" unicode="&#xdd;" horiz-adv-x="693" 
d="M415 794h-147l65 188h180zM493 739h193l-257 -486v-253h-165v253l-255 486h193l144 -306z" />
    <glyph glyph-name="Thorn" unicode="&#xde;" horiz-adv-x="662" 
d="M243 623h123c188 0 263 -123 263 -246c0 -69 -23 -127 -69 -174c-45 -46 -114 -69 -206 -69h-111v-134h-165v739h165v-116zM243 285h115c68 0 101 43 101 94s-35 90 -94 90h-122v-184z" />
    <glyph glyph-name="germandbls" unicode="&#xdf;" horiz-adv-x="675" 
d="M510 397c81 -27 132 -104 132 -193c0 -64 -24 -117 -71 -159s-107 -63 -181 -63c-49 0 -91 8 -128 23l31 131c23 -9 48 -14 77 -14c68 0 114 40 114 95c0 65 -63 99 -162 99v123c75 0 122 46 122 103c0 52 -40 90 -100 90c-79 0 -126 -65 -126 -170v-639h-158v657
c0 111 40 196 100 239c60 44 124 63 191 63c73 0 134 -21 182 -63s72 -94 72 -157c0 -74 -32 -129 -95 -165z" />
    <glyph glyph-name="agrave" unicode="&#xe0;" horiz-adv-x="683" 
d="M350 807l63 -179h-140l-94 179h171zM472 490v58h148v-548h-148v56c-47 -47 -103 -70 -169 -70c-78 0 -143 28 -194 83c-51 56 -76 125 -76 208c0 82 26 150 77 204s116 81 193 81c66 0 122 -24 169 -72zM190 275c0 -41 13 -75 39 -104c27 -28 60 -42 101 -42
s74 14 101 43s41 63 41 103s-14 74 -41 102s-60 42 -101 42s-74 -14 -101 -42c-26 -28 -39 -62 -39 -102z" />
    <glyph glyph-name="aacute" unicode="&#xe1;" horiz-adv-x="683" 
d="M331 807h172l-94 -179h-140zM472 490v58h148v-548h-148v56c-47 -47 -103 -70 -169 -70c-78 0 -143 28 -194 83c-51 56 -76 125 -76 208c0 82 26 150 77 204s116 81 193 81c66 0 122 -24 169 -72zM190 275c0 -41 13 -75 39 -104c27 -28 60 -42 101 -42s74 14 101 43
s41 63 41 103s-14 74 -41 102s-60 42 -101 42s-74 -14 -101 -42c-26 -28 -39 -62 -39 -102z" />
    <glyph glyph-name="acircumflex" unicode="&#xe2;" horiz-adv-x="683" 
d="M402 627l-62 86l-63 -86h-145l151 181h118l151 -181h-150zM472 490v58h148v-548h-148v56c-47 -47 -103 -70 -169 -70c-78 0 -143 28 -194 83c-51 56 -76 125 -76 208c0 82 26 150 77 204s116 81 193 81c66 0 122 -24 169 -72zM190 275c0 -41 13 -75 39 -104
c27 -28 60 -42 101 -42s74 14 101 43s41 63 41 103s-14 74 -41 102s-60 42 -101 42s-74 -14 -101 -42c-26 -28 -39 -62 -39 -102z" />
    <glyph glyph-name="atilde" unicode="&#xe3;" horiz-adv-x="683" 
d="M287 670c-25 0 -47 -17 -66 -51l-99 49c39 81 84 121 153 121c22 0 47 -7 75 -22c28 -14 47 -21 58 -21c23 0 38 13 59 49l99 -47c-31 -79 -81 -122 -142 -122c-21 0 -46 7 -75 22s-49 22 -62 22zM472 490v58h148v-548h-148v56c-47 -47 -103 -70 -169 -70
c-78 0 -143 28 -194 83c-51 56 -76 125 -76 208c0 82 26 150 77 204s116 81 193 81c66 0 122 -24 169 -72zM190 275c0 -41 13 -75 39 -104c27 -28 60 -42 101 -42s74 14 101 43s41 63 41 103s-14 74 -41 102s-60 42 -101 42s-74 -14 -101 -42c-26 -28 -39 -62 -39 -102z" />
    <glyph glyph-name="adieresis" unicode="&#xe4;" horiz-adv-x="683" 
d="M234 617c-52 0 -90 37 -90 89c0 49 39 88 90 88s89 -39 89 -88c0 -52 -38 -89 -89 -89zM458 617c-52 0 -90 37 -90 89c0 49 39 88 90 88s89 -39 89 -88c0 -52 -38 -89 -89 -89zM472 490v58h148v-548h-148v56c-47 -47 -103 -70 -169 -70c-78 0 -143 28 -194 83
c-51 56 -76 125 -76 208c0 82 26 150 77 204s116 81 193 81c66 0 122 -24 169 -72zM190 275c0 -41 13 -75 39 -104c27 -28 60 -42 101 -42s74 14 101 43s41 63 41 103s-14 74 -41 102s-60 42 -101 42s-74 -14 -101 -42c-26 -28 -39 -62 -39 -102z" />
    <glyph glyph-name="aring" unicode="&#xe5;" horiz-adv-x="683" 
d="M481 741c0 -37 -14 -68 -41 -94s-59 -39 -98 -39s-71 13 -98 38c-27 26 -40 58 -40 95s13 69 40 95s59 39 98 39s71 -13 98 -39s41 -58 41 -95zM342 793c-29 0 -52 -22 -52 -50c0 -29 23 -52 52 -52c28 0 51 23 51 52c0 28 -23 50 -51 50zM472 490v58h148v-548h-148v56
c-47 -47 -103 -70 -169 -70c-78 0 -143 28 -194 83c-51 56 -76 125 -76 208c0 82 26 150 77 204s116 81 193 81c66 0 122 -24 169 -72zM190 275c0 -41 13 -75 39 -104c27 -28 60 -42 101 -42s74 14 101 43s41 63 41 103s-14 74 -41 102s-60 42 -101 42s-74 -14 -101 -42
c-26 -28 -39 -62 -39 -102z" />
    <glyph glyph-name="ae" unicode="&#xe6;" horiz-adv-x="976" 
d="M944 296c0 -27 -2 -50 -6 -68l-391 1c16 -67 67 -113 143 -113c57 0 110 18 161 54l66 -105c-68 -51 -147 -77 -236 -77c-101 0 -176 34 -227 103c-51 -69 -124 -103 -219 -103c-131 0 -208 73 -208 177c0 64 31 112 82 136c52 25 108 35 175 35h109
c-15 66 -59 99 -132 99c-59 0 -113 -16 -161 -47l-51 109c61 39 150 65 226 65c87 0 153 -29 196 -88c53 59 123 88 209 88c75 0 138 -23 188 -69c51 -46 76 -112 76 -197zM549 336h256c-12 63 -61 100 -125 100s-114 -37 -131 -100zM254 116c64 0 123 38 140 114h-106
c-76 0 -114 -19 -114 -58c0 -35 32 -56 80 -56z" />
    <glyph glyph-name="ccedilla" unicode="&#xe7;" horiz-adv-x="605" 
d="M328 132c55 0 106 32 129 77l127 -75c-41 -77 -119 -130 -215 -143l-16 -39c60 -4 107 -44 107 -103c0 -67 -56 -123 -152 -123c-40 0 -82 10 -127 31l32 88c29 -14 56 -21 81 -21c33 0 51 16 51 36c0 22 -19 33 -57 33h-53l-8 29l29 73c-68 13 -122 45 -163 96
c-40 51 -60 112 -60 184c0 84 27 153 82 206c55 54 125 81 212 81c113 0 213 -56 258 -156l-125 -67c-32 52 -75 78 -130 78c-41 0 -74 -14 -101 -41s-40 -61 -40 -101c0 -41 13 -76 39 -103c27 -27 60 -40 100 -40z" />
    <glyph glyph-name="egrave" unicode="&#xe8;" horiz-adv-x="632" 
d="M337 806l63 -179h-140l-94 179h171zM600 287c0 -19 -2 -41 -5 -66h-403c19 -69 69 -103 149 -103c62 0 119 18 171 53l62 -107c-67 -51 -147 -76 -240 -76c-97 0 -171 28 -223 83c-51 55 -77 123 -77 204c0 83 27 151 80 205c53 55 123 82 209 82c81 0 147 -25 199 -74
s78 -116 78 -201zM323 435c-64 0 -115 -38 -132 -102h258c-15 63 -61 102 -126 102z" />
    <glyph glyph-name="eacute" unicode="&#xe9;" horiz-adv-x="632" 
d="M306 807h172l-94 -179h-140zM600 287c0 -19 -2 -41 -5 -66h-403c19 -69 69 -103 149 -103c62 0 119 18 171 53l62 -107c-67 -51 -147 -76 -240 -76c-97 0 -171 28 -223 83c-51 55 -77 123 -77 204c0 83 27 151 80 205c53 55 123 82 209 82c81 0 147 -25 199 -74
s78 -116 78 -201zM323 435c-64 0 -115 -38 -132 -102h258c-15 63 -61 102 -126 102z" />
    <glyph glyph-name="ecircumflex" unicode="&#xea;" horiz-adv-x="632" 
d="M384 630l-62 86l-63 -86h-145l151 181h118l151 -181h-150zM600 287c0 -19 -2 -41 -5 -66h-403c19 -69 69 -103 149 -103c62 0 119 18 171 53l62 -107c-67 -51 -147 -76 -240 -76c-97 0 -171 28 -223 83c-51 55 -77 123 -77 204c0 83 27 151 80 205c53 55 123 82 209 82
c81 0 147 -25 199 -74s78 -116 78 -201zM323 435c-64 0 -115 -38 -132 -102h258c-15 63 -61 102 -126 102z" />
    <glyph glyph-name="edieresis" unicode="&#xeb;" horiz-adv-x="632" 
d="M221 611c-52 0 -90 37 -90 89c0 49 39 88 90 88s89 -39 89 -88c0 -52 -38 -89 -89 -89zM445 611c-52 0 -90 37 -90 89c0 49 39 88 90 88s89 -39 89 -88c0 -52 -38 -89 -89 -89zM600 287c0 -19 -2 -41 -5 -66h-403c19 -69 69 -103 149 -103c62 0 119 18 171 53l62 -107
c-67 -51 -147 -76 -240 -76c-97 0 -171 28 -223 83c-51 55 -77 123 -77 204c0 83 27 151 80 205c53 55 123 82 209 82c81 0 147 -25 199 -74s78 -116 78 -201zM323 435c-64 0 -115 -38 -132 -102h258c-15 63 -61 102 -126 102z" />
    <glyph glyph-name="igrave" unicode="&#xec;" horiz-adv-x="281" 
d="M152 806l63 -179h-140l-94 179h171zM220 548v-548h-157v548h157z" />
    <glyph glyph-name="iacute" unicode="&#xed;" horiz-adv-x="274" 
d="M206 628h-140l62 179h172zM217 548v-548h-157v548h157z" />
    <glyph glyph-name="icircumflex" unicode="&#xee;" horiz-adv-x="278" 
d="M78 627h-145l151 181h118l151 -181h-150l-62 86zM220 548v-548h-157v548h157z" />
    <glyph glyph-name="idieresis" unicode="&#xef;" horiz-adv-x="278" 
d="M30 616c-52 0 -90 37 -90 89c0 49 39 88 90 88s89 -39 89 -88c0 -52 -38 -89 -89 -89zM254 616c-52 0 -90 37 -90 89c0 49 39 88 90 88s89 -39 89 -88c0 -52 -38 -89 -89 -89zM220 548v-548h-157v548h157z" />
    <glyph glyph-name="eth" unicode="&#xf0;" horiz-adv-x="655" 
d="M561 749l-75 -55c87 -113 131 -230 131 -349c0 -102 -29 -187 -88 -255s-134 -102 -225 -102c-80 0 -145 25 -196 76s-76 114 -76 188s25 135 76 183s110 72 177 72c72 0 129 -30 170 -90c-17 69 -48 132 -92 188l-79 -58l-57 71l75 54c-26 26 -58 54 -96 84l111 105
c40 -30 77 -63 110 -99l80 58zM441 257c0 35 -12 65 -37 89c-24 24 -53 36 -88 36c-72 0 -126 -56 -126 -128c0 -35 12 -65 35 -90c24 -25 54 -37 89 -37s65 12 90 37s37 56 37 93z" />
    <glyph glyph-name="ntilde" unicode="&#xf1;" horiz-adv-x="652" 
d="M209 620l-99 49c39 81 84 121 153 121c22 0 47 -7 75 -22c28 -14 47 -21 58 -21c23 0 38 13 59 49l99 -47c-31 -79 -81 -122 -142 -122c-21 0 -46 7 -75 22s-49 22 -62 22c-25 0 -47 -17 -66 -51zM217 0h-157v548h153v-76c29 52 94 91 173 91c59 0 110 -20 151 -59
s62 -96 62 -169v-335h-157v294c0 80 -42 125 -107 125c-71 0 -118 -52 -118 -129v-290z" />
    <glyph glyph-name="ograve" unicode="&#xf2;" horiz-adv-x="657" 
d="M342 806l63 -179h-140l-94 179h171zM328 -15c-87 0 -158 28 -213 83c-55 56 -82 125 -82 206s27 150 82 205c55 56 126 84 213 84s159 -28 214 -84c55 -55 83 -124 83 -205s-28 -150 -83 -206c-55 -55 -127 -83 -214 -83zM468 275c0 39 -14 73 -41 100
c-27 28 -60 42 -99 42s-72 -14 -99 -42c-27 -27 -40 -61 -40 -100c0 -41 13 -75 40 -103c27 -27 60 -41 99 -41s72 14 99 41c27 28 41 62 41 103z" />
    <glyph glyph-name="oacute" unicode="&#xf3;" horiz-adv-x="657" 
d="M391 628h-140l62 179h172zM328 -15c-87 0 -158 28 -213 83c-55 56 -82 125 -82 206s27 150 82 205c55 56 126 84 213 84s159 -28 214 -84c55 -55 83 -124 83 -205s-28 -150 -83 -206c-55 -55 -127 -83 -214 -83zM468 275c0 39 -14 73 -41 100c-27 28 -60 42 -99 42
s-72 -14 -99 -42c-27 -27 -40 -61 -40 -100c0 -41 13 -75 40 -103c27 -27 60 -41 99 -41s72 14 99 41c27 28 41 62 41 103z" />
    <glyph glyph-name="ocircumflex" unicode="&#xf4;" horiz-adv-x="657" 
d="M263 628h-145l151 181h118l151 -181h-150l-62 86zM328 -15c-87 0 -158 28 -213 83c-55 56 -82 125 -82 206s27 150 82 205c55 56 126 84 213 84s159 -28 214 -84c55 -55 83 -124 83 -205s-28 -150 -83 -206c-55 -55 -127 -83 -214 -83zM468 275c0 39 -14 73 -41 100
c-27 28 -60 42 -99 42s-72 -14 -99 -42c-27 -27 -40 -61 -40 -100c0 -41 13 -75 40 -103c27 -27 60 -41 99 -41s72 14 99 41c27 28 41 62 41 103z" />
    <glyph glyph-name="otilde" unicode="&#xf5;" horiz-adv-x="657" 
d="M208 620l-99 49c39 81 84 121 153 121c22 0 47 -7 75 -22c28 -14 47 -21 58 -21c23 0 38 13 59 49l99 -47c-31 -79 -81 -122 -142 -122c-21 0 -46 7 -75 22s-49 22 -62 22c-25 0 -47 -17 -66 -51zM328 -15c-87 0 -158 28 -213 83c-55 56 -82 125 -82 206s27 150 82 205
c55 56 126 84 213 84s159 -28 214 -84c55 -55 83 -124 83 -205s-28 -150 -83 -206c-55 -55 -127 -83 -214 -83zM468 275c0 39 -14 73 -41 100c-27 28 -60 42 -99 42s-72 -14 -99 -42c-27 -27 -40 -61 -40 -100c0 -41 13 -75 40 -103c27 -27 60 -41 99 -41s72 14 99 41
c27 28 41 62 41 103z" />
    <glyph glyph-name="odieresis" unicode="&#xf6;" horiz-adv-x="657" 
d="M217 616c-52 0 -90 37 -90 89c0 49 39 88 90 88s89 -39 89 -88c0 -52 -38 -89 -89 -89zM441 616c-52 0 -90 37 -90 89c0 49 39 88 90 88s89 -39 89 -88c0 -52 -38 -89 -89 -89zM328 -15c-87 0 -158 28 -213 83c-55 56 -82 125 -82 206s27 150 82 205c55 56 126 84 213 84
s159 -28 214 -84c55 -55 83 -124 83 -205s-28 -150 -83 -206c-55 -55 -127 -83 -214 -83zM468 275c0 39 -14 73 -41 100c-27 28 -60 42 -99 42s-72 -14 -99 -42c-27 -27 -40 -61 -40 -100c0 -41 13 -75 40 -103c27 -27 60 -41 99 -41s72 14 99 41c27 28 41 62 41 103z" />
    <glyph glyph-name="divide" unicode="&#xf7;" horiz-adv-x="554" 
d="M277 456c-47 0 -83 35 -83 82s36 82 83 82c44 0 81 -37 81 -82c0 -47 -37 -82 -81 -82zM515 282h-476v130h476v-130zM278 76c-47 0 -83 35 -83 82s36 82 83 82c44 0 81 -37 81 -82c0 -47 -37 -82 -81 -82z" />
    <glyph glyph-name="oslash" unicode="&#xf8;" horiz-adv-x="657" 
d="M577 565l-50 -72c65 -56 98 -129 98 -219c0 -81 -28 -150 -83 -206c-55 -55 -127 -83 -214 -83c-47 0 -91 9 -132 28l-54 -79l-68 46l53 77c-63 56 -94 128 -94 217c0 81 27 150 82 205c55 56 126 84 213 84c47 0 90 -9 129 -26l50 73zM189 275c0 -33 9 -62 28 -87
l153 223c-13 4 -27 6 -42 6c-39 0 -72 -14 -99 -42c-27 -27 -40 -61 -40 -100zM328 131c39 0 72 14 99 41c27 28 41 62 41 103c0 33 -10 63 -30 89l-155 -226c16 -5 31 -7 45 -7z" />
    <glyph glyph-name="ugrave" unicode="&#xf9;" horiz-adv-x="620" 
d="M324 807l63 -179h-140l-94 179h171zM310 -14c-159 0 -257 92 -257 249v313h157v-314c0 -63 37 -104 100 -104s100 41 100 104v314h157v-313c0 -159 -97 -249 -257 -249z" />
    <glyph glyph-name="uacute" unicode="&#xfa;" horiz-adv-x="620" 
d="M376 628h-140l62 179h172zM310 -14c-159 0 -257 92 -257 249v313h157v-314c0 -63 37 -104 100 -104s100 41 100 104v314h157v-313c0 -159 -97 -249 -257 -249z" />
    <glyph glyph-name="ucircumflex" unicode="&#xfb;" horiz-adv-x="620" 
d="M247 629h-145l151 181h118l151 -181h-150l-62 86zM310 -14c-159 0 -257 92 -257 249v313h157v-314c0 -63 37 -104 100 -104s100 41 100 104v314h157v-313c0 -159 -97 -249 -257 -249z" />
    <glyph glyph-name="udieresis" unicode="&#xfc;" horiz-adv-x="620" 
d="M199 615c-52 0 -90 37 -90 89c0 49 39 88 90 88s89 -39 89 -88c0 -52 -38 -89 -89 -89zM423 615c-52 0 -90 37 -90 89c0 49 39 88 90 88s89 -39 89 -88c0 -52 -38 -89 -89 -89zM310 -14c-159 0 -257 92 -257 249v313h157v-314c0 -63 37 -104 100 -104s100 41 100 104v314
h157v-313c0 -159 -97 -249 -257 -249z" />
    <glyph glyph-name="yacute" unicode="&#xfd;" horiz-adv-x="614" 
d="M295 806h172l-94 -179h-140zM319 209l118 339h170l-217 -563c-56 -145 -130 -218 -247 -218c-45 0 -82 10 -111 29l29 130c24 -13 48 -19 71 -19c43 0 79 28 106 84l7 16l-239 541h181z" />
    <glyph glyph-name="thorn" unicode="&#xfe;" horiz-adv-x="686" 
d="M379 562c78 0 143 -28 196 -84c53 -55 79 -123 79 -203s-26 -148 -79 -205c-53 -56 -117 -84 -194 -84c-63 0 -117 24 -164 73v-285h-157v987h155v-272c45 49 100 73 164 73zM492 274c0 40 -13 74 -40 101c-26 28 -59 42 -100 42s-74 -14 -100 -42
c-26 -27 -39 -61 -39 -101c0 -81 58 -144 139 -144c41 0 74 14 100 41c27 28 40 62 40 103z" />
    <glyph glyph-name="ydieresis" unicode="&#xff;" horiz-adv-x="614" 
d="M203 616c-52 0 -90 37 -90 89c0 49 39 88 90 88s89 -39 89 -88c0 -52 -38 -89 -89 -89zM427 616c-52 0 -90 37 -90 89c0 49 39 88 90 88s89 -39 89 -88c0 -52 -38 -89 -89 -89zM319 209l118 339h170l-217 -563c-56 -145 -130 -218 -247 -218c-45 0 -82 10 -111 29l29 130
c24 -13 48 -19 71 -19c43 0 79 28 106 84l7 16l-239 541h181z" />
    <glyph glyph-name="Amacron" unicode="&#x100;" horiz-adv-x="704" 
d="M165 944h378v-135l-378 -2v137zM697 0h-172l-49 149h-248l-51 -149h-172l277 739h144zM432 294l-79 234l-80 -234h159z" />
    <glyph glyph-name="amacron" unicode="&#x101;" horiz-adv-x="683" 
d="M175 771h334v-135l-334 -2v137zM472 490v58h148v-548h-148v56c-47 -47 -103 -70 -169 -70c-78 0 -143 28 -194 83c-51 56 -76 125 -76 208c0 82 26 150 77 204s116 81 193 81c66 0 122 -24 169 -72zM190 275c0 -41 13 -75 39 -104c27 -28 60 -42 101 -42s74 14 101 43
s41 63 41 103s-14 74 -41 102s-60 42 -101 42s-74 -14 -101 -42c-26 -28 -39 -62 -39 -102z" />
    <glyph glyph-name="Abreve" unicode="&#x102;" horiz-adv-x="704" 
d="M353 785c-117 0 -194 74 -202 195h127c3 -51 28 -87 75 -87c48 0 74 36 75 87h129c-8 -121 -85 -195 -204 -195zM697 0h-172l-49 149h-248l-51 -149h-172l277 739h144zM432 294l-79 234l-80 -234h159z" />
    <glyph glyph-name="abreve" unicode="&#x103;" horiz-adv-x="683" 
d="M147 807h121c3 -48 27 -82 72 -82s70 34 71 82h123c-8 -116 -82 -185 -194 -185s-185 69 -193 185zM472 490v58h148v-548h-148v56c-47 -47 -103 -70 -169 -70c-78 0 -143 28 -194 83c-51 56 -76 125 -76 208c0 82 26 150 77 204s116 81 193 81c66 0 122 -24 169 -72z
M190 275c0 -41 13 -75 39 -104c27 -28 60 -42 101 -42s74 14 101 43s41 63 41 103s-14 74 -41 102s-60 42 -101 42s-74 -14 -101 -42c-26 -28 -39 -62 -39 -102z" />
    <glyph glyph-name="Aogonek" unicode="&#x104;" horiz-adv-x="701" 
d="M683 -137l30 -98c-36 -20 -73 -30 -112 -30c-79 0 -124 49 -124 116c0 56 32 106 96 149h-48l-49 149h-248l-51 -149h-172l277 739h144l271 -739h1c-52 -24 -94 -71 -94 -110c0 -24 16 -38 37 -38c11 0 25 4 42 11zM432 294l-79 234l-80 -234h159z" />
    <glyph glyph-name="aogonek" unicode="&#x105;" horiz-adv-x="676" 
d="M606 -137l30 -98c-36 -20 -73 -30 -112 -30c-79 0 -124 49 -124 116c0 56 32 106 96 149h-24v56c-47 -47 -103 -70 -169 -70c-78 0 -143 28 -194 83c-51 56 -76 125 -76 208c0 82 26 150 77 204s116 81 193 81c66 0 122 -24 169 -72v58h148v-548h1
c-52 -24 -94 -71 -94 -110c0 -24 16 -38 37 -38c11 0 25 4 42 11zM190 275c0 -41 13 -75 39 -104c27 -28 60 -42 101 -42s74 14 101 43s41 63 41 103s-14 74 -41 102s-60 42 -101 42s-74 -14 -101 -42c-26 -28 -39 -62 -39 -102z" />
    <glyph glyph-name="Cacute" unicode="&#x106;" horiz-adv-x="761" 
d="M497 794h-147l65 188h180zM418 -11c-108 0 -198 35 -271 105c-73 71 -109 162 -109 273c0 112 37 204 111 276c75 73 165 109 271 109c132 0 250 -59 317 -150l-108 -110c-56 67 -123 101 -200 101c-61 0 -113 -21 -156 -64s-64 -96 -64 -161c0 -63 21 -116 63 -158
s94 -63 156 -63c80 0 148 34 205 102l111 -104c-68 -92 -189 -156 -326 -156z" />
    <glyph glyph-name="cacute" unicode="&#x107;" horiz-adv-x="605" 
d="M391 628h-140l62 179h172zM324 -12c-86 0 -156 27 -210 80c-54 54 -81 123 -81 207s27 153 82 206c55 54 125 81 212 81c113 0 213 -56 258 -156l-125 -67c-32 52 -75 78 -130 78c-41 0 -74 -14 -101 -41s-40 -61 -40 -101c0 -41 13 -76 39 -103c27 -27 60 -40 100 -40
c55 0 106 32 129 77l127 -75c-48 -89 -145 -146 -260 -146z" />
    <glyph glyph-name="Ccircumflex" unicode="&#x108;" horiz-adv-x="761" 
d="M348 794h-153l159 190h124l159 -190h-158l-65 90zM418 -11c-108 0 -198 35 -271 105c-73 71 -109 162 -109 273c0 112 37 204 111 276c75 73 165 109 271 109c132 0 250 -59 317 -150l-108 -110c-56 67 -123 101 -200 101c-61 0 -113 -21 -156 -64s-64 -96 -64 -161
c0 -63 21 -116 63 -158s94 -63 156 -63c80 0 148 34 205 102l111 -104c-68 -92 -189 -156 -326 -156z" />
    <glyph glyph-name="ccircumflex" unicode="&#x109;" horiz-adv-x="605" 
d="M259 627h-145l151 181h118l151 -181h-150l-62 86zM324 -12c-86 0 -156 27 -210 80c-54 54 -81 123 -81 207s27 153 82 206c55 54 125 81 212 81c113 0 213 -56 258 -156l-125 -67c-32 52 -75 78 -130 78c-41 0 -74 -14 -101 -41s-40 -61 -40 -101c0 -41 13 -76 39 -103
c27 -27 60 -40 100 -40c55 0 106 32 129 77l127 -75c-48 -89 -145 -146 -260 -146z" />
    <glyph glyph-name="Cdotaccent" unicode="&#x10a;" horiz-adv-x="761" 
d="M418 793c-53 0 -94 40 -94 93s41 93 94 93c52 0 93 -40 93 -93s-41 -93 -93 -93zM418 -11c-108 0 -198 35 -271 105c-73 71 -109 162 -109 273c0 112 37 204 111 276c75 73 165 109 271 109c132 0 250 -59 317 -150l-108 -110c-56 67 -123 101 -200 101
c-61 0 -113 -21 -156 -64s-64 -96 -64 -161c0 -63 21 -116 63 -158s94 -63 156 -63c80 0 148 34 205 102l111 -104c-68 -92 -189 -156 -326 -156z" />
    <glyph glyph-name="cdotaccent" unicode="&#x10b;" horiz-adv-x="605" 
d="M324 606c-53 0 -94 40 -94 93s41 93 94 93c52 0 93 -40 93 -93s-41 -93 -93 -93zM324 -12c-86 0 -156 27 -210 80c-54 54 -81 123 -81 207s27 153 82 206c55 54 125 81 212 81c113 0 213 -56 258 -156l-125 -67c-32 52 -75 78 -130 78c-41 0 -74 -14 -101 -41
s-40 -61 -40 -101c0 -41 13 -76 39 -103c27 -27 60 -40 100 -40c55 0 106 32 129 77l127 -75c-48 -89 -145 -146 -260 -146z" />
    <glyph glyph-name="Ccaron" unicode="&#x10c;" horiz-adv-x="761" 
d="M364 795l-151 181h145l63 -86l62 86h150l-151 -181h-118zM418 -11c-108 0 -198 35 -271 105c-73 71 -109 162 -109 273c0 112 37 204 111 276c75 73 165 109 271 109c132 0 250 -59 317 -150l-108 -110c-56 67 -123 101 -200 101c-61 0 -113 -21 -156 -64
s-64 -96 -64 -161c0 -63 21 -116 63 -158s94 -63 156 -63c80 0 148 34 205 102l111 -104c-68 -92 -189 -156 -326 -156z" />
    <glyph glyph-name="ccaron" unicode="&#x10d;" horiz-adv-x="605" 
d="M268 627l-151 181h145l63 -86l62 86h150l-151 -181h-118zM324 -12c-86 0 -156 27 -210 80c-54 54 -81 123 -81 207s27 153 82 206c55 54 125 81 212 81c113 0 213 -56 258 -156l-125 -67c-32 52 -75 78 -130 78c-41 0 -74 -14 -101 -41s-40 -61 -40 -101
c0 -41 13 -76 39 -103c27 -27 60 -40 100 -40c55 0 106 32 129 77l127 -75c-48 -89 -145 -146 -260 -146z" />
    <glyph glyph-name="Dcaron" unicode="&#x10e;" horiz-adv-x="774" 
d="M295 795l-151 181h145l63 -86l62 86h150l-151 -181h-118zM368 0h-290v739h295c113 0 201 -33 264 -100c64 -66 96 -156 96 -270s-32 -204 -97 -270s-154 -99 -268 -99zM243 580v-421h132c60 0 106 20 138 60c33 41 49 91 49 151s-16 110 -49 150c-32 40 -78 60 -138 60
h-132z" />
    <glyph glyph-name="dcaron" unicode="&#x10f;" horiz-adv-x="708" 
d="M653 626l67 184h162l-96 -184h-133zM461 495v266h157v-761h-152v59c-43 -49 -97 -73 -163 -73c-77 0 -141 27 -193 82c-51 55 -77 123 -77 206c0 82 26 150 77 205c52 55 116 83 193 83c62 0 115 -22 158 -67zM469 275c0 40 -13 74 -40 102c-26 28 -59 42 -100 42
s-74 -14 -101 -42c-26 -28 -39 -62 -39 -102c0 -41 13 -76 39 -104c27 -28 60 -42 101 -42s74 14 100 42c27 28 40 63 40 104z" />
    <glyph glyph-name="Dcroat" unicode="&#x110;" horiz-adv-x="789" 
d="M92 739h295c113 0 201 -33 264 -100c64 -66 96 -156 96 -270s-32 -204 -97 -270s-154 -99 -268 -99h-290v304h-75v132h75v303zM257 159h132c60 0 106 20 138 60c33 41 49 91 49 151s-16 110 -49 150c-32 40 -78 60 -138 60h-132v-144h184v-132h-184v-145z" />
    <glyph glyph-name="dslash" unicode="&#x111;" horiz-adv-x="678" 
d="M618 688h75v-95h-75v-593h-152v59c-43 -49 -97 -73 -163 -73c-77 0 -141 27 -193 82c-51 55 -77 123 -77 206c0 82 26 150 77 205c52 55 116 83 193 83c62 0 115 -22 158 -67v98h-132v95h132v73h157v-73zM469 275c0 40 -13 74 -40 102c-26 28 -59 42 -100 42
s-74 -14 -101 -42c-26 -28 -39 -62 -39 -102c0 -41 13 -76 39 -104c27 -28 60 -42 101 -42s74 14 100 42c27 28 40 63 40 104z" />
    <glyph glyph-name="Emacron" unicode="&#x112;" horiz-adv-x="647" 
d="M528 807l-378 -2v137h378v-135zM593 0h-515v739h516v-154h-350v-137h324v-153h-324v-141h349v-154z" />
    <glyph glyph-name="emacron" unicode="&#x113;" horiz-adv-x="632" 
d="M153 773h334v-135l-334 -2v137zM600 287c0 -19 -2 -41 -5 -66h-403c19 -69 69 -103 149 -103c62 0 119 18 171 53l62 -107c-67 -51 -147 -76 -240 -76c-97 0 -171 28 -223 83c-51 55 -77 123 -77 204c0 83 27 151 80 205c53 55 123 82 209 82c81 0 147 -25 199 -74
s78 -116 78 -201zM323 435c-64 0 -115 -38 -132 -102h258c-15 63 -61 102 -126 102z" />
    <glyph glyph-name="Ebreve" unicode="&#x114;" horiz-adv-x="647" 
d="M343 785c-117 0 -194 74 -202 195h127c3 -51 28 -87 75 -87c48 0 74 36 75 87h129c-8 -121 -85 -195 -204 -195zM593 0h-515v739h516v-154h-350v-137h324v-153h-324v-141h349v-154z" />
    <glyph glyph-name="ebreve" unicode="&#x115;" horiz-adv-x="632" 
d="M133 805h121c3 -48 27 -82 72 -82s70 34 71 82h123c-8 -116 -82 -185 -194 -185s-185 69 -193 185zM600 287c0 -19 -2 -41 -5 -66h-403c19 -69 69 -103 149 -103c62 0 119 18 171 53l62 -107c-67 -51 -147 -76 -240 -76c-97 0 -171 28 -223 83c-51 55 -77 123 -77 204
c0 83 27 151 80 205c53 55 123 82 209 82c81 0 147 -25 199 -74s78 -116 78 -201zM323 435c-64 0 -115 -38 -132 -102h258c-15 63 -61 102 -126 102z" />
    <glyph glyph-name="Edotaccent" unicode="&#x116;" horiz-adv-x="647" 
d="M339 793c-53 0 -94 40 -94 93s41 93 94 93c52 0 93 -40 93 -93s-41 -93 -93 -93zM593 0h-515v739h516v-154h-350v-137h324v-153h-324v-141h349v-154z" />
    <glyph glyph-name="edotaccent" unicode="&#x117;" horiz-adv-x="632" 
d="M329 609c-53 0 -94 40 -94 93s41 93 94 93c52 0 93 -40 93 -93s-41 -93 -93 -93zM600 287c0 -19 -2 -41 -5 -66h-403c19 -69 69 -103 149 -103c62 0 119 18 171 53l62 -107c-67 -51 -147 -76 -240 -76c-97 0 -171 28 -223 83c-51 55 -77 123 -77 204c0 83 27 151 80 205
c53 55 123 82 209 82c81 0 147 -25 199 -74s78 -116 78 -201zM323 435c-64 0 -115 -38 -132 -102h258c-15 63 -61 102 -126 102z" />
    <glyph glyph-name="Eogonek" unicode="&#x118;" horiz-adv-x="641" 
d="M578 -137l30 -98c-36 -20 -73 -30 -112 -30c-79 0 -124 49 -124 116c0 56 32 106 96 149h-390v739h516v-154h-350v-137h324v-153h-324v-141h349v-154c-52 -24 -94 -71 -94 -110c0 -24 16 -38 37 -38c11 0 25 4 42 11z" />
    <glyph glyph-name="eogonek" unicode="&#x119;" horiz-adv-x="631" 
d="M599 287c0 -19 -2 -41 -5 -66h-403c19 -69 69 -103 149 -103c62 0 119 18 171 53l62 -107c-34 -27 -75 -47 -124 -60c-51 -25 -90 -71 -90 -108c0 -24 16 -38 37 -38c11 0 25 4 42 11l30 -98c-36 -20 -73 -30 -112 -30c-79 0 -124 49 -124 116c0 49 24 93 73 132
c-88 6 -155 36 -202 90c-47 55 -70 120 -70 196c0 83 27 151 80 205c53 55 123 82 209 82c81 0 147 -25 199 -74s78 -116 78 -201zM322 435c-64 0 -115 -38 -132 -102h258c-15 63 -61 102 -126 102z" />
    <glyph glyph-name="Ecaron" unicode="&#x11a;" horiz-adv-x="647" 
d="M284 795l-151 181h145l63 -86l62 86h150l-151 -181h-118zM593 0h-515v739h516v-154h-350v-137h324v-153h-324v-141h349v-154z" />
    <glyph glyph-name="ecaron" unicode="&#x11b;" horiz-adv-x="632" 
d="M535 807l-151 -181h-118l-151 181h145l63 -86l62 86h150zM600 287c0 -19 -2 -41 -5 -66h-403c19 -69 69 -103 149 -103c62 0 119 18 171 53l62 -107c-67 -51 -147 -76 -240 -76c-97 0 -171 28 -223 83c-51 55 -77 123 -77 204c0 83 27 151 80 205c53 55 123 82 209 82
c81 0 147 -25 199 -74s78 -116 78 -201zM323 435c-64 0 -115 -38 -132 -102h258c-15 63 -61 102 -126 102z" />
    <glyph glyph-name="Gcircumflex" unicode="&#x11c;" horiz-adv-x="809" 
d="M366 796h-153l159 190h124l159 -190h-158l-65 90zM426 -11c-113 0 -206 36 -279 107c-73 72 -109 163 -109 273c0 111 38 203 113 275s169 108 280 108c119 0 227 -47 295 -115l-106 -120c-54 51 -117 76 -190 76c-65 0 -118 -21 -160 -64c-42 -42 -63 -95 -63 -158
s21 -116 62 -159s95 -65 160 -65c72 0 143 30 184 70v85h-188v142h338v-311c-96 -96 -208 -144 -337 -144z" />
    <glyph glyph-name="gcircumflex" unicode="&#x11d;" horiz-adv-x="678" 
d="M389 626l-62 86l-63 -86h-145l151 181h118l151 -181h-150zM475 494v54h143v-494c0 -88 -29 -158 -87 -209c-57 -52 -131 -78 -220 -78c-95 0 -181 27 -256 82l60 116c63 -43 127 -64 190 -64c104 0 163 60 163 141v21c-41 -43 -95 -64 -162 -64c-81 0 -146 26 -197 79
s-76 120 -76 201c0 83 27 151 80 204s120 79 199 79c65 0 120 -23 163 -68zM470 278c0 81 -59 140 -139 140c-40 0 -73 -13 -100 -40c-27 -26 -40 -59 -40 -100s13 -75 40 -102s60 -41 100 -41s73 13 99 40c27 27 40 62 40 103z" />
    <glyph glyph-name="Gbreve" unicode="&#x11e;" horiz-adv-x="809" 
d="M426 788c-117 0 -194 74 -202 195h127c3 -51 28 -87 75 -87c48 0 74 36 75 87h129c-8 -121 -85 -195 -204 -195zM426 -11c-113 0 -206 36 -279 107c-73 72 -109 163 -109 273c0 111 38 203 113 275s169 108 280 108c119 0 227 -47 295 -115l-106 -120
c-54 51 -117 76 -190 76c-65 0 -118 -21 -160 -64c-42 -42 -63 -95 -63 -158s21 -116 62 -159s95 -65 160 -65c72 0 143 30 184 70v85h-188v142h338v-311c-96 -96 -208 -144 -337 -144z" />
    <glyph glyph-name="gbreve" unicode="&#x11f;" horiz-adv-x="678" 
d="M131 806h121c3 -48 27 -82 72 -82s70 34 71 82h123c-8 -116 -82 -185 -194 -185s-185 69 -193 185zM475 494v54h143v-494c0 -88 -29 -158 -87 -209c-57 -52 -131 -78 -220 -78c-95 0 -181 27 -256 82l60 116c63 -43 127 -64 190 -64c104 0 163 60 163 141v21
c-41 -43 -95 -64 -162 -64c-81 0 -146 26 -197 79s-76 120 -76 201c0 83 27 151 80 204s120 79 199 79c65 0 120 -23 163 -68zM470 278c0 81 -59 140 -139 140c-40 0 -73 -13 -100 -40c-27 -26 -40 -59 -40 -100s13 -75 40 -102s60 -41 100 -41s73 13 99 40
c27 27 40 62 40 103z" />
    <glyph glyph-name="Gdotaccent" unicode="&#x120;" horiz-adv-x="809" 
d="M430 791c-53 0 -94 40 -94 93s41 93 94 93c52 0 93 -40 93 -93s-41 -93 -93 -93zM426 -11c-113 0 -206 36 -279 107c-73 72 -109 163 -109 273c0 111 38 203 113 275s169 108 280 108c119 0 227 -47 295 -115l-106 -120c-54 51 -117 76 -190 76c-65 0 -118 -21 -160 -64
c-42 -42 -63 -95 -63 -158s21 -116 62 -159s95 -65 160 -65c72 0 143 30 184 70v85h-188v142h338v-311c-96 -96 -208 -144 -337 -144z" />
    <glyph glyph-name="gdotaccent" unicode="&#x121;" horiz-adv-x="678" 
d="M328 608c-53 0 -94 40 -94 93s41 93 94 93c52 0 93 -40 93 -93s-41 -93 -93 -93zM475 494v54h143v-494c0 -88 -29 -158 -87 -209c-57 -52 -131 -78 -220 -78c-95 0 -181 27 -256 82l60 116c63 -43 127 -64 190 -64c104 0 163 60 163 141v21c-41 -43 -95 -64 -162 -64
c-81 0 -146 26 -197 79s-76 120 -76 201c0 83 27 151 80 204s120 79 199 79c65 0 120 -23 163 -68zM470 278c0 81 -59 140 -139 140c-40 0 -73 -13 -100 -40c-27 -26 -40 -59 -40 -100s13 -75 40 -102s60 -41 100 -41s73 13 99 40c27 27 40 62 40 103z" />
    <glyph glyph-name="Gcommaaccent" unicode="&#x122;" horiz-adv-x="809" 
d="M425 302v142h338v-311c-96 -96 -208 -144 -337 -144c-113 0 -206 36 -279 107c-73 72 -109 163 -109 273c0 111 38 203 113 275s169 108 280 108c119 0 227 -47 295 -115l-106 -120c-54 51 -117 76 -190 76c-65 0 -118 -21 -160 -64c-42 -42 -63 -95 -63 -158
s21 -116 62 -159s95 -65 160 -65c72 0 143 30 184 70v85h-188zM426 -40c53 0 96 -39 96 -98c0 -67 -49 -124 -156 -201l-55 69c35 26 62 48 81 66c-32 11 -55 42 -55 78c0 48 38 86 89 86z" />
    <glyph glyph-name="gcommaaccent" unicode="&#x123;" horiz-adv-x="678" 
d="M326 601c-51 0 -93 38 -93 95c0 65 48 119 152 195l53 -67c-39 -29 -65 -51 -78 -64c31 -11 53 -41 53 -76c0 -45 -38 -83 -87 -83zM475 494v54h143v-494c0 -88 -29 -158 -87 -209c-57 -52 -131 -78 -220 -78c-95 0 -181 27 -256 82l60 116c63 -43 127 -64 190 -64
c104 0 163 60 163 141v21c-41 -43 -95 -64 -162 -64c-81 0 -146 26 -197 79s-76 120 -76 201c0 83 27 151 80 204s120 79 199 79c65 0 120 -23 163 -68zM470 278c0 81 -59 140 -139 140c-40 0 -73 -13 -100 -40c-27 -26 -40 -59 -40 -100s13 -75 40 -102s60 -41 100 -41
s73 13 99 40c27 27 40 62 40 103z" />
    <glyph glyph-name="Hcircumflex" unicode="&#x124;" horiz-adv-x="775" 
d="M321 794h-153l159 190h124l159 -190h-158l-65 90zM243 0h-165v739h165v-289h288v289h166v-739h-166v291h-288v-291z" />
    <glyph glyph-name="hcircumflex" unicode="&#x125;" horiz-adv-x="653" 
d="M71 799h-153l159 190h124l159 -190h-158l-65 90zM219 0h-157v761h153v-286c29 49 93 88 173 88c59 0 109 -20 150 -59s62 -96 62 -169v-335h-157v294c0 80 -41 125 -106 125c-71 0 -118 -52 -118 -129v-290z" />
    <glyph glyph-name="Hbar" unicode="&#x126;" horiz-adv-x="804" 
d="M708 645h77v-108h-77v-537h-166v291h-288v-291h-165v537h-75v108h75v94h165v-94h288v94h166v-94zM254 450h288v87h-288v-87z" />
    <glyph glyph-name="hbar" unicode="&#x127;" horiz-adv-x="653" 
d="M388 563c59 0 109 -20 150 -59s62 -96 62 -169v-335h-157v294c0 80 -41 125 -106 125c-71 0 -118 -52 -118 -129v-290h-157v593h-66v95h66v73h153v-73h145v-95h-145v-118c29 49 93 88 173 88z" />
    <glyph glyph-name="Itilde" unicode="&#x128;" horiz-adv-x="322" 
d="M34 794l-102 51c40 84 86 125 158 125c23 0 49 -8 77 -23c29 -15 49 -22 60 -22c24 0 38 14 61 51l102 -49c-33 -83 -82 -125 -147 -125c-21 0 -46 7 -76 22s-52 23 -65 23c-25 0 -48 -18 -68 -53zM79 0v739h166v-739h-166z" />
    <glyph glyph-name="itilde" unicode="&#x129;" horiz-adv-x="278" 
d="M19 620l-99 49c39 81 84 121 153 121c22 0 47 -7 75 -22c28 -14 47 -21 58 -21c23 0 38 13 59 49l99 -47c-31 -79 -81 -122 -142 -122c-21 0 -46 7 -75 22s-49 22 -62 22c-25 0 -47 -17 -66 -51zM220 548v-548h-157v548h157z" />
    <glyph glyph-name="Imacron" unicode="&#x12a;" horiz-adv-x="322" 
d="M352 816l-378 -2v137h378v-135zM79 0v739h166v-739h-166z" />
    <glyph glyph-name="imacron" unicode="&#x12b;" horiz-adv-x="278" 
d="M310 639l-334 -2v137h334v-135zM220 548v-548h-157v548h157z" />
    <glyph glyph-name="Ibreve" unicode="&#x12c;" horiz-adv-x="322" 
d="M161 788c-117 0 -194 74 -202 195h127c3 -51 28 -87 75 -87c48 0 74 36 75 87h129c-8 -121 -85 -195 -204 -195zM79 0v739h166v-739h-166z" />
    <glyph glyph-name="ibreve" unicode="&#x12d;" horiz-adv-x="278" 
d="M-52 808h121c3 -48 27 -82 72 -82s70 34 71 82h123c-8 -116 -82 -185 -194 -185s-185 69 -193 185zM220 548v-548h-157v548h157z" />
    <glyph glyph-name="Iogonek" unicode="&#x12e;" horiz-adv-x="322" 
d="M230 -137l30 -98c-36 -20 -73 -30 -112 -30c-79 0 -124 49 -124 116c0 56 32 106 96 149h-41v739h166v-739c-52 -24 -94 -71 -94 -110c0 -24 16 -38 37 -38c11 0 25 4 42 11z" />
    <glyph glyph-name="iogonek" unicode="&#x12f;" horiz-adv-x="278" 
d="M143 604c-53 0 -94 40 -94 93s41 93 94 93c52 0 93 -40 93 -93s-41 -93 -93 -93zM164 -148c11 0 25 4 42 11l30 -98c-36 -20 -73 -30 -112 -30c-79 0 -124 49 -124 116c0 56 32 106 96 149h-33v548h157v-548h1c-52 -24 -94 -71 -94 -110c0 -24 16 -38 37 -38z" />
    <glyph glyph-name="Idot" unicode="&#x130;" horiz-adv-x="322" 
d="M159 790c-53 0 -94 40 -94 93s41 93 94 93c52 0 93 -40 93 -93s-41 -93 -93 -93zM76 0v739h166v-739h-166z" />
    <glyph glyph-name="dotlessi" unicode="&#x131;" horiz-adv-x="278" 
d="M217 548v-548h-157v548h157z" />
    <glyph glyph-name="IJ" unicode="&#x132;" horiz-adv-x="910" 
d="M78 0v739h166v-739h-166zM556 -12c-94 0 -172 30 -234 90l76 131c43 -41 91 -62 144 -62c85 0 138 57 138 149v443h165v-449c0 -101 -27 -177 -82 -227c-54 -50 -123 -75 -207 -75z" />
    <glyph glyph-name="ij" unicode="&#x133;" horiz-adv-x="597" 
d="M143 604c-53 0 -94 40 -94 93s41 93 94 93c52 0 93 -40 93 -93s-41 -93 -93 -93zM427 604c-53 0 -94 40 -94 93s41 93 94 93c52 0 93 -40 93 -93s-41 -93 -93 -93zM220 548v-548h-157v548h157zM285 -234c-59 0 -104 10 -135 31l30 123c28 -11 54 -16 78 -16
c60 0 90 35 90 106v538h157v-550c0 -155 -89 -232 -220 -232z" />
    <glyph glyph-name="Jcircumflex" unicode="&#x134;" horiz-adv-x="589" 
d="M373 794h-153l159 190h124l159 -190h-158l-65 90zM235 -12c-94 0 -172 30 -234 90l76 131c43 -41 91 -62 144 -62c85 0 138 57 138 149v443h165v-449c0 -101 -27 -177 -82 -227c-54 -50 -123 -75 -207 -75z" />
    <glyph glyph-name="jcircumflex" unicode="&#x135;" horiz-adv-x="302" 
d="M97 627h-145l151 181h118l151 -181h-150l-62 86zM21 -234c-59 0 -104 10 -135 31l30 123c28 -11 54 -16 78 -16c60 0 90 35 90 106v538h157v-550c0 -155 -89 -232 -220 -232z" />
    <glyph glyph-name="Kcommaaccent" unicode="&#x136;" horiz-adv-x="706" 
d="M702 739l-264 -332l281 -407h-203l-186 281l-87 -105v-176h-165v739h165v-330l259 330h200zM371 -31c53 0 96 -39 96 -98c0 -67 -49 -124 -156 -201l-55 69c35 26 62 48 81 66c-32 11 -55 42 -55 78c0 48 38 86 89 86z" />
    <glyph glyph-name="kcommaaccent" unicode="&#x137;" horiz-adv-x="597" 
d="M595 548l-240 -223l256 -325h-190l-173 227l-31 -29v-198h-157v761h157v-388l184 175h194zM312 -15c51 0 93 -38 93 -95c0 -65 -48 -119 -152 -195l-53 67c39 29 65 51 78 64c-31 11 -53 41 -53 76c0 45 38 83 87 83z" />
    <glyph glyph-name="kgreenlandic" unicode="&#x138;" horiz-adv-x="584" 
d="M594 0h-183l-160 214l-39 -39v-175h-152v548h152v-193l191 193h185l-235 -233z" />
    <glyph glyph-name="Lacute" unicode="&#x139;" horiz-adv-x="626" 
d="M237 794h-147l65 188h180zM612 0h-534v739h166v-581h368v-158z" />
    <glyph glyph-name="lacute" unicode="&#x13a;" horiz-adv-x="274" 
d="M211 796h-147l65 188h180zM217 761v-761h-157v761h157z" />
    <glyph glyph-name="Lcommaaccent" unicode="&#x13b;" horiz-adv-x="626" 
d="M244 739v-581h368v-158h-534v739h166zM352 -32c53 0 96 -39 96 -98c0 -67 -49 -124 -156 -201l-55 69c35 26 62 48 81 66c-32 11 -55 42 -55 78c0 48 38 86 89 86z" />
    <glyph glyph-name="lcommaaccent" unicode="&#x13c;" horiz-adv-x="277" 
d="M63 761h157v-761h-157v761zM136 -41c51 0 93 -38 93 -95c0 -65 -48 -119 -152 -195l-53 67c39 29 65 51 78 64c-31 11 -53 41 -53 76c0 45 38 83 87 83z" />
    <glyph glyph-name="Lcaron" unicode="&#x13d;" horiz-adv-x="631" 
d="M517 626h-133l67 184h162zM612 0h-534v739h166v-581h368v-158z" />
    <glyph glyph-name="lcaron" unicode="&#x13e;" horiz-adv-x="304" 
d="M375 625h-133l67 184h162zM217 761v-761h-157v761h157z" />
    <glyph glyph-name="Ldot" unicode="&#x13f;" horiz-adv-x="628" 
d="M612 0h-534v739h166v-581h368v-158zM476 328c-51 0 -89 37 -89 88c0 49 38 87 89 87c48 0 86 -39 86 -87c0 -51 -38 -88 -86 -88z" />
    <glyph glyph-name="ldot" unicode="&#x140;" horiz-adv-x="432" 
d="M217 761v-761h-157v761h157zM356 279c-51 0 -89 37 -89 88c0 49 38 87 89 87c48 0 86 -38 86 -87c0 -51 -38 -88 -86 -88z" />
    <glyph glyph-name="Lslash" unicode="&#x141;" horiz-adv-x="641" 
d="M259 349v-191h368v-158h-534v247l-68 -42v145l68 42v347h166v-243l103 64v-147z" />
    <glyph glyph-name="lslash" unicode="&#x142;" horiz-adv-x="359" 
d="M258 519l70 51v-150l-70 -51v-369h-157v255l-63 -46v150l63 46v356h157v-242z" />
    <glyph glyph-name="Nacute" unicode="&#x143;" horiz-adv-x="799" 
d="M464 794h-147l65 188h180zM559 307v432h162v-739h-119l-361 428v-428h-163v739h112z" />
    <glyph glyph-name="nacute" unicode="&#x144;" horiz-adv-x="652" 
d="M395 628h-140l62 179h172zM217 0h-157v548h153v-76c29 52 94 91 173 91c59 0 110 -20 151 -59s62 -96 62 -169v-335h-157v294c0 80 -42 125 -107 125c-71 0 -118 -52 -118 -129v-290z" />
    <glyph glyph-name="Ncommaaccent" unicode="&#x145;" horiz-adv-x="799" 
d="M559 307v432h162v-739h-119l-361 428v-428h-163v739h112zM410 -21c53 0 96 -39 96 -98c0 -67 -49 -124 -156 -201l-55 69c35 26 62 48 81 66c-32 11 -55 42 -55 78c0 48 38 86 89 86z" />
    <glyph glyph-name="ncommaaccent" unicode="&#x146;" horiz-adv-x="652" 
d="M386 563c59 0 110 -20 151 -59s62 -96 62 -169v-335h-157v294c0 80 -42 125 -107 125c-71 0 -118 -52 -118 -129v-290h-157v548h153v-76c29 52 94 91 173 91zM331 -25c51 0 93 -38 93 -95c0 -65 -48 -119 -152 -195l-53 67c39 29 65 51 78 64c-31 11 -53 41 -53 76
c0 45 38 83 87 83z" />
    <glyph glyph-name="Ncaron" unicode="&#x147;" horiz-adv-x="799" 
d="M347 795l-151 181h145l63 -86l62 86h150l-151 -181h-118zM559 307v432h162v-739h-119l-361 428v-428h-163v739h112z" />
    <glyph glyph-name="ncaron" unicode="&#x148;" horiz-adv-x="652" 
d="M274 625l-151 181h145l63 -86l62 86h150l-151 -181h-118zM217 0h-157v548h153v-76c29 52 94 91 173 91c59 0 110 -20 151 -59s62 -96 62 -169v-335h-157v294c0 80 -42 125 -107 125c-71 0 -118 -52 -118 -129v-290z" />
    <glyph glyph-name="napostrophe" unicode="&#x149;" horiz-adv-x="718" 
d="M89 626h-133l67 184h162zM282 0h-157v548h153v-76c29 52 94 91 173 91c59 0 110 -20 151 -59s62 -96 62 -169v-335h-157v294c0 80 -42 125 -107 125c-71 0 -118 -52 -118 -129v-290z" />
    <glyph glyph-name="Eng" unicode="&#x14a;" horiz-adv-x="799" 
d="M559 301v438h162v-688c0 -101 -26 -177 -79 -227s-120 -75 -201 -75c-51 0 -101 11 -150 32l39 148c30 -16 64 -24 101 -24c76 0 129 49 129 134v7l-319 382v-428h-163v739h112z" />
    <glyph glyph-name="eng" unicode="&#x14b;" horiz-adv-x="652" 
d="M319 -229l2 138c80 -7 120 18 120 98v290c0 77 -40 122 -105 122c-71 0 -119 -52 -119 -129v-290h-157v548h153v-73c29 49 93 88 173 88c59 0 109 -20 150 -59s62 -96 62 -169v-332c0 -197 -133 -250 -279 -232z" />
    <glyph glyph-name="Omacron" unicode="&#x14c;" 
d="M612 809l-378 -2v137h378v-135zM37 368c0 107 37 198 111 272c75 75 166 112 275 112s200 -37 274 -112c75 -74 112 -164 112 -271s-37 -197 -111 -271c-74 -73 -166 -110 -276 -110s-202 37 -275 110s-110 163 -110 270zM423 151c61 0 112 21 153 62c41 42 62 94 61 156
c-1 63 -22 116 -63 157c-41 42 -92 63 -151 63c-60 0 -111 -21 -152 -63s-62 -94 -62 -157c0 -62 21 -114 62 -156c41 -41 92 -62 152 -62z" />
    <glyph glyph-name="omacron" unicode="&#x14d;" horiz-adv-x="657" 
d="M497 637l-334 -2v137h334v-135zM328 -15c-87 0 -158 28 -213 83c-55 56 -82 125 -82 206s27 150 82 205c55 56 126 84 213 84s159 -28 214 -84c55 -55 83 -124 83 -205s-28 -150 -83 -206c-55 -55 -127 -83 -214 -83zM468 275c0 39 -14 73 -41 100c-27 28 -60 42 -99 42
s-72 -14 -99 -42c-27 -27 -40 -61 -40 -100c0 -41 13 -75 40 -103c27 -27 60 -41 99 -41s72 14 99 41c27 28 41 62 41 103z" />
    <glyph glyph-name="Obreve" unicode="&#x14e;" 
d="M427 785c-117 0 -194 74 -202 195h127c3 -51 28 -87 75 -87c48 0 74 36 75 87h129c-8 -121 -85 -195 -204 -195zM37 368c0 107 37 198 111 272c75 75 166 112 275 112s200 -37 274 -112c75 -74 112 -164 112 -271s-37 -197 -111 -271c-74 -73 -166 -110 -276 -110
s-202 37 -275 110s-110 163 -110 270zM423 151c61 0 112 21 153 62c41 42 62 94 61 156c-1 63 -22 116 -63 157c-41 42 -92 63 -151 63c-60 0 -111 -21 -152 -63s-62 -94 -62 -157c0 -62 21 -114 62 -156c41 -41 92 -62 152 -62z" />
    <glyph glyph-name="obreve" unicode="&#x14f;" horiz-adv-x="657" 
d="M134 808h121c3 -48 27 -82 72 -82s70 34 71 82h123c-8 -116 -82 -185 -194 -185s-185 69 -193 185zM328 -15c-87 0 -158 28 -213 83c-55 56 -82 125 -82 206s27 150 82 205c55 56 126 84 213 84s159 -28 214 -84c55 -55 83 -124 83 -205s-28 -150 -83 -206
c-55 -55 -127 -83 -214 -83zM468 275c0 39 -14 73 -41 100c-27 28 -60 42 -99 42s-72 -14 -99 -42c-27 -27 -40 -61 -40 -100c0 -41 13 -75 40 -103c27 -27 60 -41 99 -41s72 14 99 41c27 28 41 62 41 103z" />
    <glyph glyph-name="Ohungarumlaut" unicode="&#x150;" 
d="M382 795h-135l45 188h171zM603 795h-141l65 188h177zM37 368c0 107 37 198 111 272c75 75 166 112 275 112s200 -37 274 -112c75 -74 112 -164 112 -271s-37 -197 -111 -271c-74 -73 -166 -110 -276 -110s-202 37 -275 110s-110 163 -110 270zM423 151
c61 0 112 21 153 62c41 42 62 94 61 156c-1 63 -22 116 -63 157c-41 42 -92 63 -151 63c-60 0 -111 -21 -152 -63s-62 -94 -62 -157c0 -62 21 -114 62 -156c41 -41 92 -62 152 -62z" />
    <glyph glyph-name="ohungarumlaut" unicode="&#x151;" horiz-adv-x="657" 
d="M291 627h-129l43 179h163zM501 627h-134l62 179h168zM328 -15c-87 0 -158 28 -213 83c-55 56 -82 125 -82 206s27 150 82 205c55 56 126 84 213 84s159 -28 214 -84c55 -55 83 -124 83 -205s-28 -150 -83 -206c-55 -55 -127 -83 -214 -83zM468 275c0 39 -14 73 -41 100
c-27 28 -60 42 -99 42s-72 -14 -99 -42c-27 -27 -40 -61 -40 -100c0 -41 13 -75 40 -103c27 -27 60 -41 99 -41s72 14 99 41c27 28 41 62 41 103z" />
    <glyph glyph-name="OE" unicode="&#x152;" horiz-adv-x="1042" 
d="M990 739v-154h-350v-137h324v-153h-324v-141h349v-154h-508c-21 -2 -41 -3 -60 -3c-125 0 -220 34 -285 102c-64 69 -96 159 -96 270s32 201 95 270c64 69 158 103 281 103c20 0 40 -1 60 -3h514zM473 159v421c-15 3 -32 4 -49 4c-158 0 -212 -110 -212 -214
c0 -59 17 -110 51 -152s88 -63 161 -63c17 0 34 1 49 4z" />
    <glyph glyph-name="oe" unicode="&#x153;" horiz-adv-x="1064" 
d="M1032 287c0 -19 -2 -41 -5 -66h-403c19 -69 69 -103 149 -103c62 0 119 18 171 53l62 -107c-67 -51 -147 -76 -240 -76c-97 0 -173 29 -226 87c-56 -58 -128 -87 -215 -87c-86 0 -156 28 -211 83c-54 55 -81 123 -81 204c0 80 27 148 81 203c55 55 125 83 211 83
c87 0 158 -29 214 -87c55 59 127 88 216 88c81 0 147 -25 199 -74s78 -116 78 -201zM755 435c-64 0 -115 -38 -132 -102h258c-15 63 -61 102 -126 102zM464 276c0 39 -14 73 -41 100s-59 41 -98 41s-72 -14 -99 -41s-40 -61 -40 -100c0 -41 13 -75 40 -103
c27 -27 60 -41 99 -41s72 14 99 41c27 28 40 62 40 103z" />
    <glyph glyph-name="Racute" unicode="&#x154;" horiz-adv-x="686" 
d="M296 982h180l-98 -188h-147zM661 0h-192l-145 258h-81v-258h-165v739h294c85 0 149 -23 194 -69c45 -45 67 -102 67 -170c0 -95 -47 -179 -143 -219zM371 587h-128v-183h117c69 0 103 41 103 93c0 51 -33 90 -92 90z" />
    <glyph glyph-name="racute" unicode="&#x155;" horiz-adv-x="444" 
d="M306 628h-140l62 179h172zM217 0h-157v548h150v-71c35 57 84 86 149 86c21 0 43 -4 68 -13l-13 -150c-23 8 -46 12 -69 12c-77 0 -128 -50 -128 -162v-250z" />
    <glyph glyph-name="Rcommaaccent" unicode="&#x156;" horiz-adv-x="686" 
d="M490 281l171 -281h-192l-145 258h-81v-258h-165v739h294c85 0 149 -23 194 -69c45 -45 67 -102 67 -170c0 -95 -47 -179 -143 -219zM371 587h-128v-183h117c69 0 103 41 103 93c0 51 -33 90 -92 90zM349 -24c53 0 96 -39 96 -98c0 -67 -49 -124 -156 -201l-55 69
c35 26 62 48 81 66c-32 11 -55 42 -55 78c0 48 38 86 89 86z" />
    <glyph glyph-name="rcommaaccent" unicode="&#x157;" horiz-adv-x="446" 
d="M361 563c21 0 43 -4 68 -13l-13 -150c-23 8 -46 12 -69 12c-77 0 -128 -50 -128 -162v-250h-157v548h150v-71c35 57 84 86 149 86zM137 -33c51 0 93 -38 93 -95c0 -65 -48 -119 -152 -195l-53 67c39 29 65 51 78 64c-31 11 -53 41 -53 76c0 45 38 83 87 83z" />
    <glyph glyph-name="Rcaron" unicode="&#x158;" horiz-adv-x="686" 
d="M536 976l-151 -181h-118l-151 181h145l63 -86l62 86h150zM661 0h-192l-145 258h-81v-258h-165v739h294c85 0 149 -23 194 -69c45 -45 67 -102 67 -170c0 -95 -47 -179 -143 -219zM371 587h-128v-183h117c69 0 103 41 103 93c0 51 -33 90 -92 90z" />
    <glyph glyph-name="rcaron" unicode="&#x159;" horiz-adv-x="444" 
d="M190 627l-151 181h145l63 -86l62 86h150l-151 -181h-118zM219 0h-157v548h150v-71c35 57 84 86 149 86c21 0 43 -4 68 -13l-13 -150c-23 8 -46 12 -69 12c-77 0 -128 -50 -128 -162v-250z" />
    <glyph glyph-name="Sacute" unicode="&#x15a;" horiz-adv-x="610" 
d="M379 792h-147l65 188h180zM306 -13c-117 0 -222 47 -290 134l90 118c55 -65 122 -98 201 -98c56 0 97 26 97 67c0 27 -21 50 -64 69l-66 24c-42 16 -74 30 -95 41c-79 43 -119 106 -119 187c0 64 24 117 73 159s113 63 190 63c98 0 182 -33 251 -98l-82 -123
c-43 41 -112 66 -167 66c-56 0 -88 -25 -88 -61c0 -25 20 -47 60 -65l72 -29c38 -15 66 -26 85 -35c89 -40 133 -103 133 -188c0 -67 -26 -123 -78 -166c-51 -43 -119 -65 -203 -65z" />
    <glyph glyph-name="sacute" unicode="&#x15b;" horiz-adv-x="503" 
d="M326 628h-140l62 179h172zM254 -15c-97 0 -175 34 -234 101l77 102c47 -48 99 -72 157 -72c39 0 67 17 67 44c0 16 -11 29 -34 40c-8 4 -30 12 -65 24c-35 13 -59 22 -71 28c-65 31 -98 80 -98 145c0 50 19 91 58 122s91 47 156 47c79 0 145 -25 198 -76l-73 -102
c-41 34 -84 51 -128 51c-35 0 -57 -16 -57 -39c0 -20 16 -35 49 -46c59 -19 102 -35 130 -50c62 -33 93 -79 93 -140c0 -51 -21 -94 -62 -128s-95 -51 -163 -51z" />
    <glyph glyph-name="Scircumflex" unicode="&#x15c;" horiz-adv-x="610" 
d="M257 792h-153l159 190h124l159 -190h-158l-65 90zM306 -13c-117 0 -222 47 -290 134l90 118c55 -65 122 -98 201 -98c56 0 97 26 97 67c0 27 -21 50 -64 69l-66 24c-42 16 -74 30 -95 41c-79 43 -119 106 -119 187c0 64 24 117 73 159s113 63 190 63
c98 0 182 -33 251 -98l-82 -123c-43 41 -112 66 -167 66c-56 0 -88 -25 -88 -61c0 -25 20 -47 60 -65l72 -29c38 -15 66 -26 85 -35c89 -40 133 -103 133 -188c0 -67 -26 -123 -78 -166c-51 -43 -119 -65 -203 -65z" />
    <glyph glyph-name="scircumflex" unicode="&#x15d;" horiz-adv-x="500" 
d="M195 627h-145l151 181h118l151 -181h-150l-62 86zM254 -15c-97 0 -175 34 -234 101l77 102c47 -48 99 -72 157 -72c39 0 67 17 67 44c0 16 -11 29 -34 40c-8 4 -30 12 -65 24c-35 13 -59 22 -71 28c-65 31 -98 80 -98 145c0 50 19 91 58 122s91 47 156 47
c79 0 145 -25 198 -76l-73 -102c-41 34 -84 51 -128 51c-35 0 -57 -16 -57 -39c0 -20 16 -35 49 -46c59 -19 102 -35 130 -50c62 -33 93 -79 93 -140c0 -51 -21 -94 -62 -128s-95 -51 -163 -51z" />
    <glyph glyph-name="Scedilla" unicode="&#x15e;" horiz-adv-x="610" 
d="M587 218c0 -61 -21 -112 -64 -154c-42 -41 -99 -66 -170 -74l-15 -38c60 -4 107 -44 107 -103c0 -67 -56 -123 -152 -123c-40 0 -82 10 -127 31l32 88c29 -14 56 -21 81 -21c33 0 51 16 51 36c0 22 -19 33 -57 33h-53l-8 29l28 70c-94 16 -169 59 -224 129l90 118
c55 -65 122 -98 201 -98c56 0 97 26 97 67c0 27 -21 50 -64 69l-66 24c-42 16 -74 30 -95 41c-79 43 -119 106 -119 187c0 64 24 117 73 159s113 63 190 63c98 0 182 -33 251 -98l-82 -123c-43 41 -112 66 -167 66c-56 0 -88 -25 -88 -61c0 -25 20 -47 60 -65l72 -29
c38 -15 66 -26 85 -35c89 -40 133 -103 133 -188z" />
    <glyph glyph-name="scedilla" unicode="&#x15f;" horiz-adv-x="503" 
d="M479 164c0 -95 -74 -166 -193 -178l-13 -32c60 -4 107 -44 107 -103c0 -67 -56 -123 -152 -123c-40 0 -82 10 -127 31l32 88c29 -14 56 -21 81 -21c33 0 51 16 51 36c0 22 -19 33 -57 33h-53l-8 29l28 70c-61 15 -113 45 -155 92l77 102c47 -48 99 -72 157 -72
c39 0 67 17 67 44c0 16 -11 29 -34 40c-8 4 -30 12 -65 24c-35 13 -59 22 -71 28c-65 31 -98 80 -98 145c0 50 19 91 58 122s91 47 156 47c79 0 145 -25 198 -76l-73 -102c-41 34 -84 51 -128 51c-35 0 -57 -16 -57 -39c0 -20 16 -35 49 -46c59 -19 102 -35 130 -50
c62 -33 93 -79 93 -140z" />
    <glyph glyph-name="Scaron" unicode="&#x160;" horiz-adv-x="610" 
d="M268 794l-151 181h145l63 -86l62 86h150l-151 -181h-118zM306 -13c-117 0 -222 47 -290 134l90 118c55 -65 122 -98 201 -98c56 0 97 26 97 67c0 27 -21 50 -64 69l-66 24c-42 16 -74 30 -95 41c-79 43 -119 106 -119 187c0 64 24 117 73 159s113 63 190 63
c98 0 182 -33 251 -98l-82 -123c-43 41 -112 66 -167 66c-56 0 -88 -25 -88 -61c0 -25 20 -47 60 -65l72 -29c38 -15 66 -26 85 -35c89 -40 133 -103 133 -188c0 -67 -26 -123 -78 -166c-51 -43 -119 -65 -203 -65z" />
    <glyph glyph-name="scaron" unicode="&#x161;" horiz-adv-x="500" 
d="M202 626l-151 181h145l63 -86l62 86h150l-151 -181h-118zM254 -15c-97 0 -175 34 -234 101l77 102c47 -48 99 -72 157 -72c39 0 67 17 67 44c0 16 -11 29 -34 40c-8 4 -30 12 -65 24c-35 13 -59 22 -71 28c-65 31 -98 80 -98 145c0 50 19 91 58 122s91 47 156 47
c79 0 145 -25 198 -76l-73 -102c-41 34 -84 51 -128 51c-35 0 -57 -16 -57 -39c0 -20 16 -35 49 -46c59 -19 102 -35 130 -50c62 -33 93 -79 93 -140c0 -51 -21 -94 -62 -128s-95 -51 -163 -51z" />
    <glyph glyph-name="Tcaron" unicode="&#x164;" horiz-adv-x="611" 
d="M250 795l-151 181h145l63 -86l62 86h150l-151 -181h-118zM223 0v580h-209v159h583v-159h-208v-580h-166z" />
    <glyph glyph-name="tcaron" unicode="&#x165;" horiz-adv-x="467" 
d="M347 624l67 184h162l-96 -184h-133zM336 129c25 0 55 9 90 27l44 -125c-47 -30 -103 -45 -168 -45c-131 0 -196 74 -196 221v211h-87v130h88v194h156v-194h176v-130h-176v-196c0 -62 24 -93 73 -93z" />
    <glyph glyph-name="Tbar" unicode="&#x166;" horiz-adv-x="628" 
d="M605 739v-159h-208v-142h129v-132h-129v-306h-166v306h-129v132h129v142h-209v159h583z" />
    <glyph glyph-name="tbar" unicode="&#x167;" horiz-adv-x="479" 
d="M430 156l44 -125c-47 -30 -103 -45 -168 -45c-131 0 -196 74 -196 221v37h-86v102h86v72h-87v130h88v194h156v-194h176v-130h-176v-72h170v-102h-170v-22c0 -62 24 -93 73 -93c25 0 55 9 90 27z" />
    <glyph glyph-name="Utilde" unicode="&#x168;" horiz-adv-x="731" 
d="M241 789l-102 51c40 84 86 125 158 125c23 0 49 -8 78 -23s48 -22 59 -22c24 0 38 14 61 51l102 -49c-33 -83 -82 -125 -147 -125c-21 0 -47 7 -77 22s-51 23 -64 23c-25 0 -48 -18 -68 -53zM366 -13c-84 0 -154 24 -211 73s-85 121 -85 218v461h166v-454
c0 -92 51 -138 130 -138c77 0 129 47 129 138v454h166v-461c0 -97 -28 -169 -84 -218s-126 -73 -211 -73z" />
    <glyph glyph-name="utilde" unicode="&#x169;" horiz-adv-x="620" 
d="M186 620l-99 49c39 81 84 121 153 121c22 0 47 -7 75 -22c28 -14 47 -21 58 -21c23 0 38 13 59 49l99 -47c-31 -79 -81 -122 -142 -122c-21 0 -46 7 -75 22s-49 22 -62 22c-25 0 -47 -17 -66 -51zM310 -14c-159 0 -257 92 -257 249v313h157v-314c0 -63 37 -104 100 -104
s100 41 100 104v314h157v-313c0 -159 -97 -249 -257 -249z" />
    <glyph glyph-name="Umacron" unicode="&#x16a;" horiz-adv-x="731" 
d="M556 812l-378 -2v137h378v-135zM366 -13c-84 0 -154 24 -211 73s-85 121 -85 218v461h166v-454c0 -92 51 -138 130 -138c77 0 129 47 129 138v454h166v-461c0 -97 -28 -169 -84 -218s-126 -73 -211 -73z" />
    <glyph glyph-name="umacron" unicode="&#x16b;" horiz-adv-x="620" 
d="M477 639l-334 -2v137h334v-135zM310 -14c-159 0 -257 92 -257 249v313h157v-314c0 -63 37 -104 100 -104s100 41 100 104v314h157v-313c0 -159 -97 -249 -257 -249z" />
    <glyph glyph-name="Ubreve" unicode="&#x16c;" horiz-adv-x="731" 
d="M366 785c-117 0 -194 74 -202 195h127c3 -51 28 -87 75 -87c48 0 74 36 75 87h129c-8 -121 -85 -195 -204 -195zM366 -13c-84 0 -154 24 -211 73s-85 121 -85 218v461h166v-454c0 -92 51 -138 130 -138c77 0 129 47 129 138v454h166v-461c0 -97 -28 -169 -84 -218
s-126 -73 -211 -73z" />
    <glyph glyph-name="ubreve" unicode="&#x16d;" horiz-adv-x="620" 
d="M117 806h121c3 -48 27 -82 72 -82s70 34 71 82h123c-8 -116 -82 -185 -194 -185s-185 69 -193 185zM310 -14c-159 0 -257 92 -257 249v313h157v-314c0 -63 37 -104 100 -104s100 41 100 104v314h157v-313c0 -159 -97 -249 -257 -249z" />
    <glyph glyph-name="Uring" unicode="&#x16e;" horiz-adv-x="731" 
d="M366 778c-41 0 -75 13 -103 40s-42 60 -42 99s14 73 42 100s62 41 103 41c40 0 74 -14 103 -42c29 -27 43 -60 43 -99s-14 -72 -43 -99s-63 -40 -103 -40zM366 865c29 0 53 23 53 54c0 29 -24 53 -53 53c-31 0 -55 -24 -55 -53c0 -31 24 -54 55 -54zM366 -13
c-84 0 -154 24 -211 73s-85 121 -85 218v461h166v-454c0 -92 51 -138 130 -138c77 0 129 47 129 138v454h166v-461c0 -97 -28 -169 -84 -218s-126 -73 -211 -73z" />
    <glyph glyph-name="uring" unicode="&#x16f;" horiz-adv-x="620" 
d="M449 734c0 -37 -14 -68 -41 -94s-59 -39 -98 -39s-71 13 -98 38c-27 26 -40 58 -40 95s13 69 40 95s59 39 98 39s71 -13 98 -39s41 -58 41 -95zM310 684c28 0 51 23 51 52c0 28 -23 50 -51 50c-29 0 -52 -22 -52 -50c0 -29 23 -52 52 -52zM310 -14
c-159 0 -257 92 -257 249v313h157v-314c0 -63 37 -104 100 -104s100 41 100 104v314h157v-313c0 -159 -97 -249 -257 -249z" />
    <glyph glyph-name="Uhungarumlaut" unicode="&#x170;" horiz-adv-x="733" 
d="M322 795h-135l45 188h171zM543 795h-141l65 188h177zM366 -13c-84 0 -154 24 -211 73s-85 121 -85 218v461h166v-454c0 -92 51 -138 130 -138c77 0 129 47 129 138v454h166v-461c0 -97 -28 -169 -84 -218s-126 -73 -211 -73z" />
    <glyph glyph-name="uhungarumlaut" unicode="&#x171;" horiz-adv-x="615" 
d="M264 627h-129l43 179h163zM474 627h-134l62 179h168zM310 -14c-159 0 -257 92 -257 249v313h157v-314c0 -63 37 -104 100 -104s100 41 100 104v314h157v-313c0 -159 -97 -249 -257 -249z" />
    <glyph glyph-name="Uogonek" unicode="&#x172;" horiz-adv-x="731" 
d="M495 285v454h166v-461c0 -147 -71 -238 -182 -274c-51 -25 -90 -71 -90 -108c0 -24 16 -38 37 -38c11 0 25 4 42 11l30 -98c-36 -20 -73 -30 -112 -30c-79 0 -124 49 -124 116c0 49 24 93 72 131c-77 6 -140 33 -190 81c-49 49 -74 118 -74 209v461h166v-454
c0 -92 51 -138 130 -138c77 0 129 47 129 138z" />
    <glyph glyph-name="uogonek" unicode="&#x173;" horiz-adv-x="620" 
d="M410 234v314h157v-313c0 -123 -57 -205 -160 -236c-51 -24 -90 -71 -90 -108c0 -24 16 -38 37 -38c11 0 25 4 42 11l30 -98c-36 -20 -73 -30 -112 -30c-79 0 -124 49 -124 116c0 51 26 96 78 136c-133 15 -215 104 -215 247v313h157v-314c0 -63 37 -104 100 -104
s100 41 100 104z" />
    <glyph glyph-name="Wcircumflex" unicode="&#x174;" horiz-adv-x="1078" 
d="M473 794h-153l159 190h124l159 -190h-158l-65 90zM395 0h-149l-242 739h182l138 -481l159 481h111l161 -481l136 481h182l-241 -739h-149l-144 460z" />
    <glyph glyph-name="wcircumflex" unicode="&#x175;" horiz-adv-x="890" 
d="M383 625h-145l151 181h118l151 -181h-150l-62 86zM332 1h-139l-187 547h165l103 -341l115 341h111l117 -341l101 341h165l-185 -547h-139l-114 320z" />
    <glyph glyph-name="Ycircumflex" unicode="&#x176;" horiz-adv-x="693" 
d="M280 794h-153l159 190h124l159 -190h-158l-65 90zM493 739h193l-257 -486v-253h-165v253l-255 486h193l144 -306z" />
    <glyph glyph-name="ycircumflex" unicode="&#x177;" horiz-adv-x="614" 
d="M377 626l-62 86l-63 -86h-145l151 181h118l151 -181h-150zM319 209l118 339h170l-217 -563c-56 -145 -130 -218 -247 -218c-45 0 -82 10 -111 29l29 130c24 -13 48 -19 71 -19c43 0 79 28 106 84l7 16l-239 541h181z" />
    <glyph glyph-name="Ydieresis" unicode="&#x178;" horiz-adv-x="693" 
d="M142 884c0 49 40 89 91 89s90 -38 90 -89c0 -52 -38 -90 -90 -90s-91 38 -91 90zM460 794c-52 0 -91 38 -91 90c0 49 40 89 91 89s90 -40 90 -89c0 -52 -39 -90 -90 -90zM493 739h193l-257 -486v-253h-165v253l-255 486h193l144 -306z" />
    <glyph glyph-name="Zacute" unicode="&#x179;" horiz-adv-x="662" 
d="M405 795h-147l65 188h180zM624 0h-588v121l353 466h-339v152h563v-127l-345 -460h356v-152z" />
    <glyph glyph-name="zacute" unicode="&#x17a;" horiz-adv-x="549" 
d="M338 628h-140l62 179h172zM504 438l-255 -308h266v-130h-482v109l261 308h-249v130h459v-109z" />
    <glyph glyph-name="Zdotaccent" unicode="&#x17b;" horiz-adv-x="662" 
d="M338 793c-53 0 -94 40 -94 93s41 93 94 93c52 0 93 -40 93 -93s-41 -93 -93 -93zM624 0h-588v121l353 466h-339v152h563v-127l-345 -460h356v-152z" />
    <glyph glyph-name="zdotaccent" unicode="&#x17c;" horiz-adv-x="549" 
d="M282 606c-53 0 -94 40 -94 93s41 93 94 93c52 0 93 -40 93 -93s-41 -93 -93 -93zM504 438l-255 -308h266v-130h-482v109l261 308h-249v130h459v-109z" />
    <glyph glyph-name="Zcaron" unicode="&#x17d;" horiz-adv-x="662" 
d="M281 796l-151 181h145l63 -86l62 86h150l-151 -181h-118zM624 0h-588v121l353 466h-339v152h563v-127l-345 -460h356v-152z" />
    <glyph glyph-name="zcaron" unicode="&#x17e;" horiz-adv-x="549" 
d="M215 627l-151 181h145l63 -86l62 86h150l-151 -181h-118zM504 438l-255 -308h266v-130h-482v109l261 308h-249v130h459v-109z" />
    <glyph glyph-name="Scommaaccent" unicode="&#x218;" horiz-adv-x="610" 
d="M454 406c89 -40 133 -103 133 -188c0 -67 -26 -123 -78 -166c-51 -43 -119 -65 -203 -65c-117 0 -222 47 -290 134l90 118c55 -65 122 -98 201 -98c56 0 97 26 97 67c0 27 -21 50 -64 69l-66 24c-42 16 -74 30 -95 41c-79 43 -119 106 -119 187c0 64 24 117 73 159
s113 63 190 63c98 0 182 -33 251 -98l-82 -123c-43 41 -112 66 -167 66c-56 0 -88 -25 -88 -61c0 -25 20 -47 60 -65l72 -29c38 -15 66 -26 85 -35zM301 -42c53 0 96 -39 96 -98c0 -67 -49 -124 -156 -201l-55 69c35 26 62 48 81 66c-32 11 -55 42 -55 78c0 48 38 86 89 86z
" />
    <glyph glyph-name="scommaaccent" unicode="&#x219;" horiz-adv-x="503" 
d="M386 304c62 -33 93 -79 93 -140c0 -51 -21 -94 -62 -128s-95 -51 -163 -51c-97 0 -175 34 -234 101l77 102c47 -48 99 -72 157 -72c39 0 67 17 67 44c0 16 -11 29 -34 40c-8 4 -30 12 -65 24c-35 13 -59 22 -71 28c-65 31 -98 80 -98 145c0 50 19 91 58 122s91 47 156 47
c79 0 145 -25 198 -76l-73 -102c-41 34 -84 51 -128 51c-35 0 -57 -16 -57 -39c0 -20 16 -35 49 -46c59 -19 102 -35 130 -50zM250 -48c51 0 93 -38 93 -95c0 -65 -48 -119 -152 -195l-53 67c39 29 65 51 78 64c-31 11 -53 41 -53 76c0 45 38 83 87 83z" />
    <glyph glyph-name="uni021A" unicode="&#x21a;" horiz-adv-x="611" 
d="M14 580v159h583v-159h-208v-580h-166v580h-209zM302 -28c53 0 96 -39 96 -98c0 -67 -49 -124 -156 -201l-55 69c35 26 62 48 81 66c-32 11 -55 42 -55 78c0 48 38 86 89 86z" />
    <glyph glyph-name="uni021B" unicode="&#x21b;" horiz-adv-x="473" 
d="M426 156l44 -125c-47 -30 -103 -45 -168 -45c-131 0 -196 74 -196 221v211h-87v130h88v194h156v-194h176v-130h-176v-196c0 -62 24 -93 73 -93c25 0 55 9 90 27zM283 -47c51 0 93 -38 93 -95c0 -65 -48 -119 -152 -195l-53 67c39 29 65 51 78 64c-31 11 -53 41 -53 76
c0 45 38 83 87 83z" />
    <glyph glyph-name="uni0237" unicode="&#x237;" horiz-adv-x="302" 
d="M21 -234c-59 0 -104 10 -135 31l30 123c28 -11 54 -16 78 -16c60 0 90 35 90 106v538h157v-550c0 -155 -89 -232 -220 -232z" />
    <glyph glyph-name="circumflex" unicode="&#x2c6;" horiz-adv-x="557" 
d="M184 620h-145l151 181h118l151 -181h-150l-62 86z" />
    <glyph glyph-name="caron" unicode="&#x2c7;" horiz-adv-x="547" 
d="M190 623l-151 181h145l63 -86l62 86h150l-151 -181h-118z" />
    <glyph glyph-name="breve" unicode="&#x2d8;" horiz-adv-x="475" 
d="M40 801h121c3 -48 27 -82 72 -82s70 34 71 82h123c-8 -116 -82 -185 -194 -185s-185 69 -193 185z" />
    <glyph glyph-name="dotaccent" unicode="&#x2d9;" horiz-adv-x="300" 
d="M134 595c-53 0 -94 40 -94 93s41 93 94 93c52 0 93 -40 93 -93s-41 -93 -93 -93z" />
    <glyph glyph-name="ring" unicode="&#x2da;" horiz-adv-x="383" 
d="M317 726c0 -37 -14 -68 -41 -94s-59 -39 -98 -39s-71 13 -98 38c-27 26 -40 58 -40 95s13 69 40 95s59 39 98 39s71 -13 98 -39s41 -58 41 -95zM178 676c28 0 51 23 51 52c0 28 -23 50 -51 50c-29 0 -52 -22 -52 -50c0 -29 23 -52 52 -52z" />
    <glyph glyph-name="ogonek" unicode="&#x2db;" horiz-adv-x="352" 
d="M246 -137l30 -98c-36 -20 -73 -30 -112 -30c-79 0 -124 49 -124 116c0 65 42 121 126 167l95 -18c-52 -24 -94 -71 -94 -110c0 -24 16 -38 37 -38c11 0 25 4 42 11z" />
    <glyph glyph-name="tilde" unicode="&#x2dc;" horiz-adv-x="557" 
d="M139 624l-99 49c39 81 84 121 153 121c22 0 47 -7 75 -22c28 -14 47 -21 58 -21c23 0 38 13 59 49l99 -47c-31 -79 -81 -122 -142 -122c-21 0 -46 7 -75 22s-49 22 -62 22c-25 0 -47 -17 -66 -51z" />
    <glyph glyph-name="hungarumlaut" unicode="&#x2dd;" horiz-adv-x="553" 
d="M173 620h-129l43 179h163zM383 620h-134l62 179h168z" />
    <glyph glyph-name="uni0394" unicode="&#x394;" horiz-adv-x="759" 
d="M741 0h-723v113l312 626h101l310 -626v-113zM379 524l-170 -367h341z" />
    <glyph glyph-name="uni03A9" unicode="&#x3a9;" horiz-adv-x="862" 
d="M390 0h-342v145h139c-73 48 -129 141 -129 256c0 99 36 183 107 250c72 67 161 101 266 101s194 -34 265 -101c72 -67 108 -151 108 -250c0 -115 -56 -208 -129 -256h139v-145h-342v151c96 35 159 120 159 224c0 61 -19 111 -58 149c-38 38 -85 57 -142 57
s-104 -19 -143 -58c-38 -38 -57 -87 -57 -148c0 -104 63 -189 159 -224v-151z" />
    <glyph glyph-name="uni03BC" unicode="&#x3bc;" horiz-adv-x="664" 
d="M447 283v252h157v-535h-151v74c-29 -57 -73 -85 -132 -85c-49 0 -85 20 -109 60v-267h-152v753h157v-275c0 -83 40 -128 108 -128c72 0 122 52 122 151z" />
    <glyph glyph-name="pi" unicode="&#x3c0;" horiz-adv-x="638" 
d="M259 0h-157v397h-71v138h576v-138h-70v-397h-159v397h-119v-397z" />
    <glyph glyph-name="uni0401" unicode="&#x401;" horiz-adv-x="647" 
d="M134 884c0 49 40 89 91 89s90 -38 90 -89c0 -52 -38 -90 -90 -90s-91 38 -91 90zM452 794c-52 0 -91 38 -91 90c0 49 40 89 91 89s90 -40 90 -89c0 -52 -39 -90 -90 -90zM593 0h-515v739h516v-154h-350v-137h324v-153h-324v-141h349v-154z" />
    <glyph glyph-name="uni0410" unicode="&#x410;" horiz-adv-x="704" 
d="M697 0h-172l-49 149h-248l-51 -149h-172l277 739h144zM432 294l-79 234l-80 -234h159z" />
    <glyph glyph-name="uni0411" unicode="&#x411;" horiz-adv-x="673" 
d="M241 468h137c214 -1 266 -143 265 -237c0 -67 -23 -122 -68 -166c-45 -43 -106 -65 -184 -65h-313v739h491v-142h-328v-129zM241 143h122c147 -7 144 189 7 182h-129v-182z" />
    <glyph glyph-name="uni0412" unicode="&#x412;" horiz-adv-x="699" 
d="M522 405c92 -23 141 -97 141 -189c0 -61 -22 -113 -65 -154s-100 -62 -171 -62h-349v739h332c68 0 121 -18 158 -55c37 -36 56 -79 56 -128c0 -67 -41 -128 -102 -151zM381 597h-140v-145h133c56 0 86 34 86 74c0 39 -30 71 -79 71zM241 143h151c65 0 100 40 100 87
c0 48 -34 87 -97 87h-154v-174z" />
    <glyph glyph-name="uni0413" unicode="&#x413;" horiz-adv-x="560" 
d="M241 0h-163v739h471v-147h-308v-592z" />
    <glyph glyph-name="uni0414" unicode="&#x414;" horiz-adv-x="811" 
d="M492 739l204 -590h85v-299h-159v150h-433v-150h-159v299h83l208 590h171zM406 544l-126 -395h248z" />
    <glyph glyph-name="uni0415" unicode="&#x415;" horiz-adv-x="647" 
d="M593 0h-515v739h516v-154h-350v-137h324v-153h-324v-141h349v-154z" />
    <glyph glyph-name="uni0416" unicode="&#x416;" horiz-adv-x="1048" 
d="M1017 142l8 -137c-25 -11 -54 -16 -86 -16c-35 0 -65 9 -88 18c-21 11 -46 34 -61 50c-13 17 -35 53 -44 72l-21 41l-21 41c-32 59 -50 82 -81 82h-16v-294h-166v294h-16c-31 0 -49 -23 -81 -82l-21 -41l-21 -41c-9 -19 -30 -55 -45 -72c-13 -16 -38 -39 -61 -50
c-21 -9 -52 -18 -87 -18c-32 0 -61 5 -86 16l8 137c16 -5 34 -8 55 -8c22 0 40 8 53 25c14 17 41 61 82 133l20 34c17 26 28 42 34 48c-17 15 -35 40 -43 56s-26 53 -31 65l-26 48c-5 9 -13 20 -22 31c-17 24 -34 29 -59 29c-11 0 -25 -1 -42 -4l-9 130c23 14 50 21 81 21
c49 0 86 -14 112 -42c26 -27 55 -75 86 -144c3 -7 8 -16 13 -28c19 -43 33 -69 42 -78s26 -14 51 -14h13v294h166v-294h13c25 0 41 5 50 14s24 35 43 78c5 8 8 16 13 28c31 69 60 117 86 144c26 28 63 42 112 42c31 0 58 -7 81 -21l-10 -130c-16 3 -30 4 -41 4
c-25 0 -41 -5 -60 -29c-9 -11 -16 -22 -21 -31l-26 -48l-12 -24l-14 -28c-10 -19 -31 -53 -47 -69c5 -6 16 -22 33 -48c53 -93 85 -147 97 -162c17 -20 36 -30 58 -30c21 0 39 3 55 8z" />
    <glyph glyph-name="uni0417" unicode="&#x417;" horiz-adv-x="621" 
d="M279 -12c-93 0 -180 25 -263 74l61 133c71 -38 140 -57 207 -57c79 0 125 33 125 82c0 47 -42 77 -111 77h-130v145h92c77 0 125 35 126 83c0 45 -42 75 -103 75c-55 0 -114 -19 -176 -56l-74 118c67 56 171 90 271 90c77 0 138 -19 183 -58c46 -38 69 -83 69 -136
c0 -67 -40 -124 -113 -153l-1 -4c89 -24 140 -94 140 -181c0 -65 -27 -120 -80 -165s-128 -67 -223 -67z" />
    <glyph glyph-name="uni0418" unicode="&#x418;" horiz-adv-x="786" 
d="M182 0h-104v739h163v-462l361 462h106v-739h-163v457z" />
    <glyph glyph-name="uni0419" unicode="&#x419;" horiz-adv-x="786" 
d="M187 891l82 85c52 -65 92 -85 144 -85s92 20 144 85l83 -85c-65 -79 -141 -119 -228 -119s-162 40 -225 119zM182 0h-104v739h163v-462l361 462h106v-739h-163v457z" />
    <glyph glyph-name="uni041A" unicode="&#x41a;" horiz-adv-x="706" 
d="M719 0h-203l-186 281l-87 -105v-176h-165v739h165v-330l259 330h200l-264 -332z" />
    <glyph glyph-name="uni041B" unicode="&#x41b;" horiz-adv-x="700" 
d="M185 0h-179l261 739h171l256 -739h-180l-162 522z" />
    <glyph glyph-name="uni041C" unicode="&#x41c;" horiz-adv-x="946" 
d="M241 0h-163v739h116l279 -402l277 402h118v-739h-165v391l-201 -287h-60l-201 287v-391z" />
    <glyph glyph-name="uni041D" unicode="&#x41d;" horiz-adv-x="775" 
d="M243 0h-165v739h165v-289h288v289h166v-739h-166v291h-288v-291z" />
    <glyph glyph-name="uni041E" unicode="&#x41e;" 
d="M37 368c0 107 37 198 111 272c75 75 166 112 275 112s200 -37 274 -112c75 -74 112 -164 112 -271s-37 -197 -111 -271c-74 -73 -166 -110 -276 -110s-202 37 -275 110s-110 163 -110 270zM423 151c61 0 112 21 153 62c41 42 62 94 61 156c-1 63 -22 116 -63 157
c-41 42 -92 63 -151 63c-60 0 -111 -21 -152 -63s-62 -94 -62 -157c0 -62 21 -114 62 -156c41 -41 92 -62 152 -62z" />
    <glyph glyph-name="uni041F" unicode="&#x41f;" horiz-adv-x="775" 
d="M243 0h-165v739h619v-739h-166v580h-288v-580z" />
    <glyph glyph-name="uni0420" unicode="&#x420;" horiz-adv-x="650" 
d="M78 739h283c90 0 157 -24 201 -72c45 -48 67 -107 67 -178s-23 -129 -69 -175s-116 -69 -211 -69h-106v-245h-165v739zM243 394h112c68 0 105 44 105 97s-38 96 -98 96h-119v-193z" />
    <glyph glyph-name="uni0421" unicode="&#x421;" horiz-adv-x="761" 
d="M418 -11c-108 0 -198 35 -271 105c-73 71 -109 162 -109 273c0 112 37 204 111 276c75 73 165 109 271 109c132 0 250 -59 317 -150l-108 -110c-56 67 -123 101 -200 101c-61 0 -113 -21 -156 -64s-64 -96 -64 -161c0 -63 21 -116 63 -158s94 -63 156 -63
c80 0 148 34 205 102l111 -104c-68 -92 -189 -156 -326 -156z" />
    <glyph glyph-name="uni0422" unicode="&#x422;" horiz-adv-x="611" 
d="M223 0v580h-209v159h583v-159h-208v-580h-166z" />
    <glyph glyph-name="uni0423" unicode="&#x423;" horiz-adv-x="640" 
d="M147 -11c-39 0 -72 8 -101 23l12 133c20 -9 41 -13 63 -13c53 0 98 37 134 111l-233 496h194l127 -314l114 314h192l-78 -177c-63 -145 -105 -242 -145 -325c-15 -31 -27 -55 -37 -73c-9 -18 -23 -40 -41 -65c-17 -25 -35 -45 -52 -59c-35 -27 -89 -51 -149 -51z" />
    <glyph glyph-name="uni0424" unicode="&#x424;" horiz-adv-x="955" 
d="M922 370c0 -99 -33 -181 -99 -246c-65 -65 -153 -103 -262 -112v-92h-166v92c-109 9 -197 46 -263 112c-65 66 -98 148 -98 246c0 99 33 182 99 247c67 66 154 103 262 112v90h166v-90c108 -9 195 -47 261 -112c67 -65 100 -148 100 -247zM200 368
c0 -120 75 -203 195 -212v426c-119 -13 -195 -93 -195 -214zM561 582v-426c120 11 195 92 195 212c0 121 -76 201 -195 214z" />
    <glyph glyph-name="uni0425" unicode="&#x425;" horiz-adv-x="684" 
d="M196 0h-193l233 373l-216 366h191l132 -241l140 241h193l-229 -366l227 -373h-191l-142 248z" />
    <glyph glyph-name="uni0426" unicode="&#x426;" horiz-adv-x="762" 
d="M723 -150h-165v150h-480v739h166v-580h233v580h167v-580h79v-309z" />
    <glyph glyph-name="uni0427" unicode="&#x427;" horiz-adv-x="704" 
d="M459 384v355h167v-739h-167v228c-51 -17 -98 -26 -141 -26c-182 0 -273 90 -273 270v267h166v-243c0 -96 39 -134 120 -134c43 0 85 7 128 22z" />
    <glyph glyph-name="uni0428" unicode="&#x428;" horiz-adv-x="1101" 
d="M1023 0h-945v739h166v-580h223v580h167v-580h223v580h166v-739z" />
    <glyph glyph-name="uni0429" unicode="&#x429;" horiz-adv-x="1142" 
d="M1102 -150h-165v150h-859v739h166v-580h223v580h167v-580h223v580h166v-580h79v-309z" />
    <glyph glyph-name="uni042A" unicode="&#x42a;" horiz-adv-x="762" 
d="M464 517c81 0 147 -23 198 -70c51 -46 77 -110 77 -192c0 -71 -23 -131 -69 -181c-45 -49 -112 -74 -201 -74h-295v597h-160v142h322v-243c41 14 84 21 128 21zM336 148h103c87 0 129 42 129 111c0 73 -42 110 -126 110c-33 0 -68 -6 -106 -18v-203z" />
    <glyph glyph-name="uni042B" unicode="&#x42b;" horiz-adv-x="976" 
d="M244 492h134c100 0 176 -34 213 -86c39 -51 55 -104 55 -161c0 -71 -23 -129 -68 -176c-45 -46 -107 -69 -185 -69h-312v739h163v-247zM732 0v739h166v-739h-166zM244 145h121c72 0 111 43 111 102s-39 101 -108 101h-124v-203z" />
    <glyph glyph-name="uni042C" unicode="&#x42c;" horiz-adv-x="667" 
d="M369 517c81 0 147 -23 198 -70c51 -46 77 -110 77 -192c0 -71 -23 -131 -69 -181c-45 -49 -112 -74 -201 -74h-296v739h163v-242c42 13 85 20 128 20zM241 148h102c88 0 130 42 130 111c0 73 -42 110 -126 110c-33 0 -68 -6 -106 -18v-203z" />
    <glyph glyph-name="uni042D" unicode="&#x42d;" horiz-adv-x="765" 
d="M345 752c106 0 196 -36 270 -109c75 -72 112 -164 112 -276c0 -111 -36 -202 -109 -273c-73 -70 -163 -105 -271 -105c-137 0 -258 64 -326 156l111 104c57 -68 125 -102 205 -102c97 0 178 58 207 147h-309v146h310c-28 92 -112 153 -209 153c-77 0 -144 -34 -200 -101
l-108 110c67 91 185 150 317 150z" />
    <glyph glyph-name="uni042E" unicode="&#x42e;" horiz-adv-x="1137" 
d="M714 752c109 0 200 -37 274 -112c75 -74 112 -164 112 -271s-37 -197 -111 -271c-74 -73 -166 -110 -276 -110c-95 0 -177 28 -246 84s-113 128 -131 215h-92v-287h-166v739h166v-293h92c18 89 62 162 131 219c70 58 152 87 247 87zM714 151c61 0 112 21 153 62
c41 42 62 94 61 156c-1 63 -22 116 -63 157c-41 42 -92 63 -151 63c-60 0 -111 -21 -152 -63s-62 -94 -62 -157c0 -62 21 -114 62 -156c41 -41 92 -62 152 -62z" />
    <glyph glyph-name="uni042F" unicode="&#x42f;" horiz-adv-x="688" 
d="M342 739h268v-739h-163v246c-27 -5 -59 -8 -98 -9l-138 -237h-187l165 264c-89 40 -133 115 -133 224c0 74 24 134 72 181c49 47 120 70 214 70zM353 380c31 0 63 3 94 9v200h-96c-84 0 -126 -34 -126 -103c0 -71 43 -106 128 -106z" />
    <glyph glyph-name="uni0430" unicode="&#x430;" horiz-adv-x="683" 
d="M472 490v58h148v-548h-148v56c-47 -47 -103 -70 -169 -70c-78 0 -143 28 -194 83c-51 56 -76 125 -76 208c0 82 26 150 77 204s116 81 193 81c66 0 122 -24 169 -72zM190 275c0 -41 13 -75 39 -104c27 -28 60 -42 101 -42s74 14 101 43s41 63 41 103s-14 74 -41 102
s-60 42 -101 42s-74 -14 -101 -42c-26 -28 -39 -62 -39 -102z" />
    <glyph glyph-name="uni0431" unicode="&#x431;" horiz-adv-x="693" 
d="M388 540c73 0 136 -25 190 -74c55 -49 82 -115 82 -198c0 -81 -27 -148 -82 -202c-54 -54 -127 -81 -218 -81c-115 0 -202 49 -250 126s-71 168 -71 271c0 215 99 337 248 373c17 4 40 9 69 14s51 10 66 13c29 8 84 32 137 72l59 -124c-28 -28 -58 -48 -90 -61
c-32 -12 -85 -25 -159 -40c-47 -9 -73 -17 -106 -37c-44 -25 -74 -76 -82 -166c40 73 119 114 207 114zM361 126c39 0 72 14 99 41s40 60 40 99s-13 71 -40 98c-26 27 -58 40 -97 40s-72 -13 -99 -39c-27 -25 -40 -58 -40 -98c0 -39 13 -72 38 -100c26 -27 59 -41 99 -41z
" />
    <glyph glyph-name="uni0432" unicode="&#x432;" horiz-adv-x="654" 
d="M485 426c87 -24 136 -100 136 -201c0 -64 -25 -120 -76 -167c-50 -47 -118 -71 -205 -71c-55 0 -101 6 -154 33c-75 38 -136 116 -136 268v184c0 104 27 181 80 232c54 51 123 76 206 76c75 0 135 -18 180 -55c46 -37 69 -86 69 -147c0 -68 -39 -129 -100 -152zM334 636
c-43 0 -74 -17 -95 -50s-31 -71 -31 -115v-6h109c81 0 112 40 112 89c0 52 -38 82 -95 82zM342 130c75 0 119 46 119 102c0 66 -40 99 -119 99h-134v-42c0 -100 45 -159 134 -159z" />
    <glyph glyph-name="uni0433" unicode="&#x433;" horiz-adv-x="514" 
d="M251 -13c-143 0 -220 62 -220 154c0 197 265 176 265 251c0 28 -22 42 -66 42c-42 0 -90 -11 -145 -32l-37 116c69 29 139 44 212 44c127 0 210 -56 210 -147c0 -68 -41 -117 -93 -142c-74 -35 -169 -57 -169 -107c0 -32 33 -48 81 -48c52 0 107 14 165 42l33 -122
c-78 -34 -157 -51 -236 -51z" />
    <glyph glyph-name="uni0434" unicode="&#x434;" horiz-adv-x="677" 
d="M475 494v54h143v-474c0 -201 -117 -307 -317 -307c-66 0 -141 14 -226 41l33 127c63 -23 126 -34 188 -34c116 0 172 52 172 141v21c-41 -43 -95 -64 -162 -64c-81 -1 -146 25 -197 78s-76 120 -76 202c0 83 27 151 80 204s120 79 199 79c65 0 120 -23 163 -68zM470 278
c0 81 -59 140 -139 140c-40 0 -73 -13 -100 -40c-27 -26 -40 -59 -40 -100s13 -75 40 -102s60 -41 100 -41s73 13 99 40c27 27 40 62 40 103z" />
    <glyph glyph-name="uni0435" unicode="&#x435;" horiz-adv-x="632" 
d="M600 287c0 -19 -2 -41 -5 -66h-403c19 -69 69 -103 149 -103c62 0 119 18 171 53l62 -107c-67 -51 -147 -76 -240 -76c-97 0 -171 28 -223 83c-51 55 -77 123 -77 204c0 83 27 151 80 205c53 55 123 82 209 82c81 0 147 -25 199 -74s78 -116 78 -201zM323 435
c-64 0 -115 -38 -132 -102h258c-15 63 -61 102 -126 102z" />
    <glyph glyph-name="uni0436" unicode="&#x436;" horiz-adv-x="904" 
d="M874 124l6 -120c-24 -9 -50 -13 -77 -13c-64 -1 -102 23 -131 50c-11 12 -28 36 -35 48l-28 51c-24 44 -40 60 -67 60h-13v-201h-154v201h-13c-27 0 -43 -16 -68 -60l-16 -28c-15 -28 -19 -33 -36 -57c-16 -23 -30 -32 -54 -45c-23 -13 -52 -19 -87 -19
c-27 0 -53 4 -78 13l7 120c15 -4 29 -6 42 -6c19 0 35 7 49 22s39 50 75 105l21 30c-14 11 -30 34 -49 71l-26 46c-11 17 -32 36 -60 36c-13 0 -25 -1 -35 -2l-7 113c20 11 44 17 72 17c84 0 125 -36 161 -115l12 -27l21 -40c9 -15 14 -16 23 -23c11 -7 20 -8 35 -8h11v205
h154v-205h11c22 0 35 8 46 16c7 5 17 24 21 32s19 38 24 50c36 79 77 115 161 115c28 0 52 -6 72 -17l-7 -113c-11 1 -23 2 -36 2c-14 0 -26 -4 -37 -12c-20 -15 -25 -26 -49 -70c-19 -37 -35 -60 -48 -71l21 -30c35 -54 60 -89 74 -104s31 -23 50 -23c12 0 26 2 42 6z" />
    <glyph glyph-name="uni0437" unicode="&#x437;" horiz-adv-x="561" 
d="M259 -231c-93 0 -178 27 -255 81l53 122c64 -41 123 -62 177 -62c83 0 132 40 132 101c0 59 -47 93 -120 93h-101v133h69c88 0 130 40 130 95c0 56 -45 88 -105 88c-48 0 -101 -20 -158 -61l-68 111c29 27 67 49 112 66c46 17 92 26 139 26c71 0 130 -20 176 -60
c46 -39 69 -87 69 -143c0 -69 -40 -131 -111 -162v-4c84 -24 134 -98 134 -189c0 -66 -24 -122 -73 -167c-48 -45 -115 -68 -200 -68z" />
    <glyph glyph-name="uni0438" unicode="&#x438;" horiz-adv-x="658" 
d="M442 548h156v-548h-151v78c-28 -51 -100 -92 -184 -92c-59 0 -109 19 -149 58s-60 98 -60 177v327h157v-301c0 -75 37 -117 104 -117c77 0 127 52 127 135v283z" />
    <glyph glyph-name="uni0439" unicode="&#x439;" horiz-adv-x="658" 
d="M329 583c-78 0 -145 36 -202 107l74 77c47 -59 82 -77 129 -77s82 18 130 77l75 -77c-59 -71 -127 -107 -206 -107zM442 548h156v-548h-151v78c-28 -51 -100 -92 -184 -92c-59 0 -109 19 -149 58s-60 98 -60 177v327h157v-301c0 -75 37 -117 104 -117
c77 0 127 52 127 135v283z" />
    <glyph glyph-name="uni043A" unicode="&#x43a;" horiz-adv-x="597" 
d="M611 0h-190l-173 227l-31 -29v-198h-157v761h157v-388l184 175h194l-240 -223z" />
    <glyph glyph-name="uni043B" unicode="&#x43b;" horiz-adv-x="623" 
d="M181 0h-174l224 548h167l218 -548h-174l-128 366z" />
    <glyph glyph-name="uni043C" unicode="&#x43c;" horiz-adv-x="786" 
d="M212 0h-152v548h116l217 -275l216 275h116v-548h-151v270l-153 -186h-57l-152 186v-270z" />
    <glyph glyph-name="uni043D" unicode="&#x43d;" horiz-adv-x="636" 
d="M420 344v204h155v-548h-155v203h-204v-203h-156v548h156v-204h204z" />
    <glyph glyph-name="uni043E" unicode="&#x43e;" horiz-adv-x="657" 
d="M328 -15c-87 0 -158 28 -213 83c-55 56 -82 125 -82 206s27 150 82 205c55 56 126 84 213 84s159 -28 214 -84c55 -55 83 -124 83 -205s-28 -150 -83 -206c-55 -55 -127 -83 -214 -83zM468 275c0 39 -14 73 -41 100c-27 28 -60 42 -99 42s-72 -14 -99 -42
c-27 -27 -40 -61 -40 -100c0 -41 13 -75 40 -103c27 -27 60 -41 99 -41s72 14 99 41c27 28 41 62 41 103z" />
    <glyph glyph-name="uni043F" unicode="&#x43f;" horiz-adv-x="652" 
d="M217 0h-157v548h153v-76c29 52 94 91 173 91c59 0 110 -20 151 -59s62 -96 62 -169v-335h-157v294c0 80 -42 125 -107 125c-71 0 -118 -52 -118 -129v-290z" />
    <glyph glyph-name="uni0440" unicode="&#x440;" horiz-adv-x="684" 
d="M382 562c78 0 142 -28 193 -84c51 -55 76 -123 76 -203c0 -81 -26 -149 -77 -205s-115 -84 -192 -84c-65 0 -120 23 -165 70v-282h-157v774h155v-61c45 50 101 75 167 75zM492 274c0 40 -13 74 -39 101c-26 28 -59 42 -100 42c-40 0 -73 -14 -99 -42
c-26 -27 -39 -61 -39 -101c0 -81 57 -144 138 -144s139 63 139 144z" />
    <glyph glyph-name="uni0441" unicode="&#x441;" horiz-adv-x="605" 
d="M324 -12c-86 0 -156 27 -210 80c-54 54 -81 123 -81 207s27 153 82 206c55 54 125 81 212 81c113 0 213 -56 258 -156l-125 -67c-32 52 -75 78 -130 78c-41 0 -74 -14 -101 -41s-40 -61 -40 -101c0 -41 13 -76 39 -103c27 -27 60 -40 100 -40c55 0 106 32 129 77l127 -75
c-48 -89 -145 -146 -260 -146z" />
    <glyph glyph-name="uni0442" unicode="&#x442;" horiz-adv-x="1012" 
d="M733 563c65 0 118 -20 161 -60s64 -97 64 -170v-333h-157v303c0 76 -41 116 -101 116c-65 0 -112 -46 -112 -121v-298h-157v302c0 73 -42 117 -103 117c-64 0 -111 -46 -111 -122v-297h-157v548h153v-78c31 59 98 94 169 93c67 0 128 -30 157 -93c41 60 115 93 194 93z
" />
    <glyph glyph-name="uni0443" unicode="&#x443;" horiz-adv-x="614" 
d="M318 209l118 339h170l-217 -563c-56 -145 -130 -218 -247 -218c-45 0 -82 10 -111 29l29 130c24 -13 48 -19 71 -19c43 0 79 28 106 84l7 16l-239 541h181z" />
    <glyph glyph-name="uni0444" unicode="&#x444;" horiz-adv-x="862" 
d="M829 274c0 -87 -29 -156 -87 -205s-137 -76 -236 -81v-216h-149v216c-99 5 -177 32 -236 81c-59 50 -88 119 -88 206s29 155 87 206c59 51 138 78 237 81v199h149v-199c99 -3 177 -30 235 -81c59 -50 88 -119 88 -207zM357 121v306c-111 -4 -170 -60 -170 -153
s62 -152 170 -153zM506 427v-306c108 1 170 61 170 154c0 92 -59 148 -170 152z" />
    <glyph glyph-name="uni0445" unicode="&#x445;" horiz-adv-x="570" 
d="M388 275l172 -275h-181l-95 171l-101 -171h-179l177 278l-157 270h179l84 -160l92 160h176z" />
    <glyph glyph-name="uni0446" unicode="&#x446;" horiz-adv-x="736" 
d="M599 548v-360c-3 -71 37 -86 130 -86v-282h-136v170c-71 0 -124 40 -132 112c-27 -68 -106 -116 -198 -116c-59 0 -109 19 -149 58s-60 98 -60 177v327h157v-301c0 -75 37 -117 104 -117c77 0 127 52 127 135v283h157z" />
    <glyph glyph-name="uni0447" unicode="&#x447;" horiz-adv-x="596" 
d="M380 297v251h156v-548h-156v158c-41 -10 -80 -15 -116 -15c-64 0 -112 11 -157 40c-44 31 -70 91 -70 178v187h156v-176c0 -57 30 -86 91 -86c34 0 66 4 96 11z" />
    <glyph glyph-name="uni0448" unicode="&#x448;" horiz-adv-x="983" 
d="M765 256v292h158v-548h-149v78c-13 -25 -36 -47 -67 -65s-64 -27 -101 -27c-64 0 -124 30 -153 89c-39 -61 -110 -89 -182 -89c-61 0 -112 20 -154 60c-42 41 -63 101 -63 181v321h158v-306c0 -73 33 -112 93 -112c65 0 105 49 105 126v292h158v-309
c0 -69 33 -109 90 -109c65 0 107 51 107 126z" />
    <glyph glyph-name="uni0449" unicode="&#x449;" horiz-adv-x="1063" 
d="M922 548v-360c0 -71 41 -86 134 -86v-282h-136v170c-71 0 -124 40 -131 112c-27 -68 -101 -116 -188 -116c-63 0 -120 29 -148 88c-39 -60 -110 -88 -182 -88c-61 0 -112 20 -154 60c-42 41 -63 101 -63 181v321h157v-306c0 -73 34 -112 94 -112c65 0 105 49 105 126v292
h157v-309c0 -69 34 -109 91 -109c65 0 107 51 107 126v292h157z" />
    <glyph glyph-name="uni044A" unicode="&#x44a;" horiz-adv-x="659" 
d="M402 449c63 0 117 -21 162 -64s67 -97 67 -163c0 -65 -21 -121 -63 -167s-106 -69 -191 -69c-97 0 -167 37 -200 94s-46 114 -46 179v160h-118v129h271v-131c37 21 77 32 118 32zM381 121c61 0 95 42 95 98c0 59 -34 96 -101 96c-29 0 -60 -7 -91 -20v-59
c0 -30 7 -57 21 -80s39 -35 76 -35z" />
    <glyph glyph-name="uni044B" unicode="&#x44b;" horiz-adv-x="810" 
d="M209 385h104c169 1 222 -104 222 -191c0 -57 -19 -103 -57 -140c-38 -36 -91 -54 -159 -54h-259v548h150zM594 0v548h156v-548h-156zM208 127h96c108 -6 103 138 2 132h-97z" />
    <glyph glyph-name="uni044C" unicode="&#x44c;" horiz-adv-x="581" 
d="M322 449c65 0 120 -21 164 -64c45 -42 67 -96 67 -163c0 -65 -21 -121 -63 -167s-106 -69 -191 -69c-97 0 -167 37 -200 94s-46 114 -46 179v289h154v-128c37 19 75 29 115 29zM303 121c61 0 95 42 95 98c0 59 -34 96 -101 96c-29 0 -59 -7 -90 -20v-59
c0 -77 32 -115 96 -115z" />
    <glyph glyph-name="uni044D" unicode="&#x44d;" horiz-adv-x="604" 
d="M280 562c85 0 155 -27 209 -81c54 -53 81 -122 81 -206s-27 -153 -80 -207c-53 -53 -122 -80 -207 -80c-117 0 -215 57 -262 146l122 73c23 -45 78 -80 135 -80c59 0 111 37 132 93h-182v109h182c-21 55 -74 93 -135 93c-56 0 -106 -33 -134 -81l-122 65
c48 101 146 156 261 156z" />
    <glyph glyph-name="uni044E" unicode="&#x44e;" horiz-adv-x="894" 
d="M565 563c87 0 158 -28 213 -84c55 -55 83 -124 83 -205s-28 -150 -83 -206c-55 -55 -126 -83 -213 -83c-74 0 -137 21 -189 62c-52 42 -85 96 -100 162h-61v-209h-155v761h155v-425h60c14 66 47 120 99 163c53 43 116 64 191 64zM704 275c0 40 -13 74 -40 101
s-60 41 -99 41s-72 -14 -99 -42c-27 -27 -40 -61 -40 -100c0 -41 13 -75 40 -103c27 -27 60 -41 99 -41s72 14 99 41c27 28 40 62 40 103z" />
    <glyph glyph-name="uni044F" unicode="&#x44f;" horiz-adv-x="589" 
d="M299 548h230v-548h-152v172c-24 -3 -52 -6 -84 -7l-103 -165h-170l130 190c-67 31 -101 86 -101 167c0 116 85 191 250 191zM298 288c23 0 49 2 79 7v129h-72c-67 0 -100 -23 -100 -70c0 -44 31 -66 93 -66z" />
    <glyph glyph-name="uni0451" unicode="&#x451;" horiz-adv-x="632" 
d="M220 599c-52 0 -90 37 -90 89c0 49 39 88 90 88s89 -39 89 -88c0 -52 -38 -89 -89 -89zM444 599c-52 0 -90 37 -90 89c0 49 39 88 90 88s89 -39 89 -88c0 -52 -38 -89 -89 -89zM600 287c0 -19 -2 -41 -5 -66h-403c19 -69 69 -103 149 -103c62 0 119 18 171 53l62 -107
c-67 -51 -147 -76 -240 -76c-97 0 -171 28 -223 83c-51 55 -77 123 -77 204c0 83 27 151 80 205c53 55 123 82 209 82c81 0 147 -25 199 -74s78 -116 78 -201zM323 435c-64 0 -115 -38 -132 -102h258c-15 63 -61 102 -126 102z" />
    <glyph glyph-name="Wgrave" unicode="&#x1e80;" horiz-adv-x="1078" 
d="M551 984l66 -189h-149l-99 189h182zM395 0h-149l-242 739h182l138 -481l159 481h111l161 -481l136 481h182l-241 -739h-149l-144 460z" />
    <glyph glyph-name="wgrave" unicode="&#x1e81;" horiz-adv-x="890" 
d="M460 806l63 -179h-140l-94 179h171zM332 1h-139l-187 547h165l103 -341l115 341h111l117 -341l101 341h165l-185 -547h-139l-114 320z" />
    <glyph glyph-name="Wacute" unicode="&#x1e82;" horiz-adv-x="1078" 
d="M619 794h-147l65 188h180zM395 0h-149l-242 739h182l138 -481l159 481h111l161 -481l136 481h182l-241 -739h-149l-144 460z" />
    <glyph glyph-name="wacute" unicode="&#x1e83;" horiz-adv-x="890" 
d="M518 628h-140l62 179h172zM332 1h-139l-187 547h165l103 -341l115 341h111l117 -341l101 341h165l-185 -547h-139l-114 320z" />
    <glyph glyph-name="Wdieresis" unicode="&#x1e84;" horiz-adv-x="1078" 
d="M335 884c0 49 40 89 91 89s90 -38 90 -89c0 -52 -38 -90 -90 -90s-91 38 -91 90zM653 794c-52 0 -91 38 -91 90c0 49 40 89 91 89s90 -40 90 -89c0 -52 -39 -90 -90 -90zM395 0h-149l-242 739h182l138 -481l159 481h111l161 -481l136 481h182l-241 -739h-149l-144 460z
" />
    <glyph glyph-name="wdieresis" unicode="&#x1e85;" horiz-adv-x="890" 
d="M334 616c-52 0 -90 37 -90 89c0 49 39 88 90 88s89 -39 89 -88c0 -52 -38 -89 -89 -89zM558 616c-52 0 -90 37 -90 89c0 49 39 88 90 88s89 -39 89 -88c0 -52 -38 -89 -89 -89zM332 1h-139l-187 547h165l103 -341l115 341h111l117 -341l101 341h165l-185 -547h-139
l-114 320z" />
    <glyph glyph-name="Ygrave" unicode="&#x1ef2;" horiz-adv-x="693" 
d="M366 984l66 -189h-149l-99 189h182zM493 739h193l-257 -486v-253h-165v253l-255 486h193l144 -306z" />
    <glyph glyph-name="ygrave" unicode="&#x1ef3;" horiz-adv-x="614" 
d="M325 807l63 -179h-140l-94 179h171zM319 209l118 339h170l-217 -563c-56 -145 -130 -218 -247 -218c-45 0 -82 10 -111 29l29 130c24 -13 48 -19 71 -19c43 0 79 28 106 84l7 16l-239 541h181z" />
    <glyph glyph-name="uni2009" unicode="&#x2009;" horiz-adv-x="78" 
 />
    <glyph glyph-name="endash" unicode="&#x2013;" horiz-adv-x="721" 
d="M664 204h-606v146h606v-146z" />
    <glyph glyph-name="emdash" unicode="&#x2014;" horiz-adv-x="1040" 
d="M983 204h-925v146h925v-146z" />
    <glyph glyph-name="quoteleft" unicode="&#x2018;" horiz-adv-x="257" 
d="M137 684c40 0 75 -36 75 -79c0 -49 -41 -87 -90 -87c-53 0 -93 44 -93 101c0 73 52 144 156 211l43 -62c-49 -37 -79 -65 -91 -84z" />
    <glyph glyph-name="quoteright" unicode="&#x2019;" horiz-adv-x="255" 
d="M138 824c53 0 94 -42 94 -101c0 -73 -52 -143 -156 -210l-43 61c49 37 79 65 91 84c-41 0 -75 36 -75 79c0 49 40 87 89 87z" />
    <glyph glyph-name="quotesinglbase" unicode="&#x201a;" horiz-adv-x="264" 
d="M130 158c53 0 94 -42 94 -101c0 -73 -52 -143 -156 -210l-43 61c49 37 79 65 91 84c-41 0 -75 36 -75 79c0 49 40 87 89 87z" />
    <glyph glyph-name="quotedblleft" unicode="&#x201c;" horiz-adv-x="513" 
d="M187 830l43 -62c-49 -37 -79 -65 -91 -84c40 0 75 -36 75 -79c0 -49 -41 -87 -90 -87c-53 0 -93 44 -93 101c0 73 52 144 156 211zM394 684c40 0 75 -36 75 -79c0 -49 -41 -87 -90 -87c-53 0 -93 44 -93 101c0 73 52 144 156 211l43 -62c-49 -37 -79 -65 -91 -84z" />
    <glyph glyph-name="quotedblright" unicode="&#x201d;" horiz-adv-x="508" 
d="M137 828c53 0 93 -44 93 -101c0 -73 -52 -144 -156 -211l-43 62c49 37 79 65 91 84c-40 0 -75 36 -75 79c0 49 41 87 90 87zM392 828c53 0 93 -44 93 -101c0 -73 -52 -144 -156 -211l-43 62c49 37 79 65 91 84c-40 0 -75 36 -75 79c0 49 41 87 90 87z" />
    <glyph glyph-name="quotedblbase" unicode="&#x201e;" horiz-adv-x="517" 
d="M128 157c53 0 93 -44 93 -101c0 -73 -52 -144 -156 -211l-43 62c49 37 79 65 91 84c-40 0 -75 36 -75 79c0 49 41 87 90 87zM383 157c53 0 93 -44 93 -101c0 -73 -52 -144 -156 -211l-43 62c49 37 79 65 91 84c-40 0 -75 36 -75 79c0 49 41 87 90 87z" />
    <glyph glyph-name="dagger" unicode="&#x2020;" horiz-adv-x="518" 
d="M337 541h143v-143h-143v-576h-156v576h-144v143h144v308h156v-308z" />
    <glyph glyph-name="daggerdbl" unicode="&#x2021;" horiz-adv-x="518" 
d="M481 583v-143h-144v-210h144v-143h-144v-265h-156v265h-144v143h144v210h-144v143h144v266h156v-266h144z" />
    <glyph glyph-name="bullet" unicode="&#x2022;" horiz-adv-x="472" 
d="M235 166c-47 0 -88 17 -122 51s-51 75 -51 123c0 49 17 90 51 124s75 51 122 51c49 0 90 -17 124 -51c35 -34 52 -75 52 -124c0 -48 -17 -89 -52 -123c-34 -34 -75 -51 -124 -51z" />
    <glyph glyph-name="ellipsis" unicode="&#x2026;" horiz-adv-x="760" 
d="M128 -16c-51 0 -89 37 -89 88c0 49 38 87 89 87c48 0 86 -39 86 -87c0 -51 -38 -88 -86 -88zM381 -16c-51 0 -89 37 -89 88c0 49 38 87 89 87c47 0 86 -39 86 -87c0 -51 -38 -88 -86 -88zM635 -16c-51 0 -89 37 -89 88c0 49 38 87 89 87c47 0 86 -39 86 -87
c0 -51 -38 -88 -86 -88z" />
    <glyph glyph-name="perthousand" unicode="&#x2030;" horiz-adv-x="1321" 
d="M221 384c-53 0 -98 18 -135 53c-37 36 -56 79 -56 129c0 51 19 95 56 131s82 54 135 54s99 -18 136 -54s56 -80 56 -131c0 -50 -19 -93 -56 -129c-37 -35 -83 -53 -136 -53zM259 0h-150l537 739h150zM167 512c31 -28 77 -28 108 0c31 29 31 81 0 110s-77 29 -108 0
c-29 -29 -29 -81 0 -110zM689 -12c-53 0 -98 18 -135 53c-37 36 -56 79 -56 130s19 94 56 130s82 54 135 54s99 -18 136 -54s56 -79 56 -130s-19 -94 -56 -130c-37 -35 -83 -53 -136 -53zM1105 -12c-53 0 -99 18 -136 53c-37 36 -56 79 -56 130s19 94 56 129
c37 36 83 54 136 54s98 -18 135 -54c37 -35 56 -78 56 -129s-19 -94 -56 -130c-37 -35 -82 -53 -135 -53zM1105 91c43 0 80 35 80 80c0 47 -36 81 -80 81c-45 0 -81 -34 -81 -81c0 -45 37 -80 81 -80zM689 95c43 0 78 32 78 77c0 43 -37 77 -78 77s-76 -33 -76 -77
c0 -45 35 -77 76 -77z" />
    <glyph glyph-name="guilsinglleft" unicode="&#x2039;" horiz-adv-x="372" 
d="M329 88h-165l-134 203l134 203h165l-139 -203z" />
    <glyph glyph-name="guilsinglright" unicode="&#x203a;" horiz-adv-x="372" 
d="M342 291l-134 -203h-165l139 203l-139 203h165z" />
    <glyph glyph-name="fraction" unicode="&#x2044;" horiz-adv-x="221" 
d="M-114 0h-125l578 739h123z" />
    <glyph glyph-name="uni2070" unicode="&#x2070;" horiz-adv-x="391" 
d="M23 706c0 123 62 206 173 206s173 -83 173 -206c0 -121 -62 -205 -173 -205s-173 84 -173 205zM196 594c45 0 67 37 67 112s-22 112 -67 112s-68 -37 -68 -112s23 -112 68 -112z" />
    <glyph glyph-name="uni2074" unicode="&#x2074;" horiz-adv-x="372" 
d="M300 674h42v-81h-42v-86h-93v86h-175l-21 61l209 249h80v-229zM207 778l-89 -104h89v104z" />
    <glyph glyph-name="uni2075" unicode="&#x2075;" horiz-adv-x="339" 
d="M175 764c83 0 137 -54 137 -129c0 -76 -61 -134 -156 -134c-53 0 -100 15 -141 44l38 79c35 -23 67 -34 98 -34c39 0 64 21 64 49c0 27 -23 47 -59 47c-23 0 -45 -9 -66 -26l-48 48l24 192h218v-84h-151l-8 -60c15 5 31 8 50 8z" />
    <glyph glyph-name="uni2076" unicode="&#x2076;" horiz-adv-x="356" 
d="M197 764c79 0 134 -53 134 -128c0 -39 -14 -72 -42 -97c-27 -25 -62 -38 -105 -38c-104 0 -160 80 -160 192c0 63 16 115 47 156c32 42 78 63 138 63c44 0 83 -12 116 -35l-39 -72c-23 15 -47 23 -72 23c-56 0 -94 -41 -102 -98c20 23 48 34 85 34zM183 582
c32 0 56 22 56 53c0 29 -24 52 -55 52c-32 0 -55 -21 -55 -52s23 -53 54 -53z" />
    <glyph glyph-name="uni2077" unicode="&#x2077;" horiz-adv-x="304" 
d="M12 809v93h278v-71l-147 -321h-109l140 299h-162z" />
    <glyph glyph-name="uni2078" unicode="&#x2078;" horiz-adv-x="373" 
d="M187 501c-97 0 -157 49 -157 116c0 45 26 79 79 102v1c-36 15 -61 46 -61 83c0 64 55 109 139 109c83 0 139 -45 139 -109c0 -38 -21 -66 -63 -83v-2c53 -21 80 -55 80 -100c0 -67 -60 -117 -156 -117zM186 751c44 0 66 44 35 71c-27 26 -89 7 -84 -30
c0 -23 21 -41 49 -41zM187 581c35 0 59 20 59 48s-24 48 -60 48c-78 5 -77 -101 1 -96z" />
    <glyph glyph-name="uni2079" unicode="&#x2079;" horiz-adv-x="362" 
d="M172 912c104 0 158 -79 158 -194c0 -62 -16 -114 -47 -155s-76 -62 -136 -62c-47 0 -85 12 -116 35l37 72c25 -15 50 -23 74 -23c56 0 93 40 101 101c-22 -25 -51 -37 -87 -37c-81 0 -132 53 -132 126c0 81 60 137 148 137zM226 777c0 31 -23 54 -54 54
c-32 0 -56 -23 -56 -54c0 -29 23 -51 55 -51s55 22 55 51z" />
    <glyph glyph-name="uni2080" unicode="&#x2080;" horiz-adv-x="391" 
d="M23 44c0 123 62 206 173 206s173 -83 173 -206c0 -121 -62 -205 -173 -205s-173 84 -173 205zM196 -68c45 0 67 37 67 112s-22 112 -67 112s-68 -37 -68 -112s23 -112 68 -112z" />
    <glyph glyph-name="uni2081" unicode="&#x2081;" horiz-adv-x="281" 
d="M8 130l147 110h76v-395h-102v254l-69 -50z" />
    <glyph glyph-name="uni2082" unicode="&#x2082;" horiz-adv-x="347" 
d="M254 10l-75 -76h133v-89h-276v81l129 130c28 29 42 52 42 68c0 21 -17 36 -42 36s-57 -18 -96 -55l-48 74c43 47 94 71 151 71c80 0 138 -52 138 -125c0 -37 -19 -76 -56 -115z" />
    <glyph glyph-name="uni2083" unicode="&#x2083;" horiz-adv-x="334" 
d="M147 -161c-47 0 -94 13 -139 40l40 78c38 -18 69 -27 94 -27c38 0 57 13 57 38c0 21 -23 36 -56 36h-54v85h47c27 0 54 11 54 36c0 21 -16 32 -47 32c-23 0 -48 -9 -77 -26l-48 71c39 32 85 48 138 48c39 0 71 -10 97 -30c27 -20 40 -45 40 -74c0 -43 -29 -76 -72 -89v-2
c53 -12 83 -49 83 -96c0 -71 -64 -120 -157 -120z" />
    <glyph glyph-name="uni2084" unicode="&#x2084;" horiz-adv-x="372" 
d="M300 12h42v-81h-42v-86h-93v86h-175l-21 61l209 249h80v-229zM207 116l-89 -104h89v104z" />
    <glyph glyph-name="uni2085" unicode="&#x2085;" horiz-adv-x="339" 
d="M175 102c83 0 137 -54 137 -129c0 -76 -61 -134 -156 -134c-53 0 -100 15 -141 44l38 79c35 -23 67 -34 98 -34c39 0 64 21 64 49c0 27 -23 47 -59 47c-23 0 -45 -9 -66 -26l-48 48l24 192h218v-84h-151l-8 -60c15 5 31 8 50 8z" />
    <glyph glyph-name="uni2086" unicode="&#x2086;" horiz-adv-x="356" 
d="M197 102c79 0 134 -53 134 -128c0 -39 -14 -72 -42 -97c-27 -25 -62 -38 -105 -38c-104 0 -160 80 -160 192c0 63 16 115 47 156c32 42 78 63 138 63c44 0 83 -12 116 -35l-39 -72c-23 15 -47 23 -72 23c-56 0 -94 -41 -102 -98c20 23 48 34 85 34zM183 -80
c32 0 56 22 56 53c0 29 -24 52 -55 52c-32 0 -55 -21 -55 -52s23 -53 54 -53z" />
    <glyph glyph-name="uni2087" unicode="&#x2087;" horiz-adv-x="304" 
d="M12 147v93h278v-71l-147 -321h-109l140 299h-162z" />
    <glyph glyph-name="uni2088" unicode="&#x2088;" horiz-adv-x="373" 
d="M187 -161c-97 0 -157 49 -157 116c0 45 26 79 79 102v1c-36 15 -61 46 -61 83c0 64 55 109 139 109c83 0 139 -45 139 -109c0 -38 -21 -66 -63 -83v-2c53 -21 80 -55 80 -100c0 -67 -60 -117 -156 -117zM186 89c44 0 66 44 35 71c-27 26 -89 7 -84 -30
c0 -23 21 -41 49 -41zM187 -81c35 0 59 20 59 48s-24 48 -60 48c-78 5 -77 -101 1 -96z" />
    <glyph glyph-name="uni2089" unicode="&#x2089;" horiz-adv-x="362" 
d="M172 250c104 0 158 -79 158 -194c0 -62 -16 -114 -47 -155s-76 -62 -136 -62c-47 0 -85 12 -116 35l37 72c25 -15 50 -23 74 -23c56 0 93 40 101 101c-22 -25 -51 -37 -87 -37c-81 0 -132 53 -132 126c0 81 60 137 148 137zM226 115c0 31 -23 54 -54 54
c-32 0 -56 -23 -56 -54c0 -29 23 -51 55 -51s55 22 55 51z" />
    <glyph glyph-name="Euro" unicode="&#x20ac;" horiz-adv-x="773" 
d="M561 245h-227c39 -63 105 -102 184 -102c59 0 132 21 179 48v-156c-49 -28 -132 -46 -200 -46c-82 0 -155 23 -218 70s-107 109 -131 186h-121l40 100h64c-1 11 -1 37 0 48h-85l40 100h62c23 79 66 141 129 188s137 71 220 71c87 0 181 -26 241 -69l-77 -130
c-43 30 -90 45 -141 45c-79 0 -147 -40 -186 -105h328l-45 -100h-315c-1 -11 -1 -37 0 -48h300z" />
    <glyph glyph-name="trademark" unicode="&#x2122;" horiz-adv-x="817" 
d="M128 652h-96v87h283v-87h-96v-263h-91v263zM548 555l130 184h69v-350h-89v171l-90 -126h-38l-89 124v-169h-90v350h70z" />
    <glyph glyph-name="estimated" unicode="&#x212e;" horiz-adv-x="950" 
d="M482 -17c-123 0 -227 37 -312 110s-127 164 -127 273s42 201 127 274c85 74 189 111 312 111c121 0 225 -36 310 -109c86 -73 129 -166 129 -281v-21c0 -3 -2 -5 -7 -5h-686v-230c0 -2 1 -3 4 -4c69 -48 152 -72 250 -72c137 0 258 51 326 142l35 -29
c-80 -99 -213 -159 -361 -159zM228 628v-243h508v244c0 2 -1 3 -3 4c-71 49 -154 73 -251 73s-181 -24 -252 -73c-1 -1 -2 -3 -2 -5z" />
    <glyph glyph-name="uni2150" unicode="&#x2150;" horiz-adv-x="897" 
d="M254 347h-101v255l-70 -51l-52 81l148 110h75v-395zM85 0l578 739h124l-577 -739h-125zM575 302v93h278v-71l-147 -321h-109l140 299h-162z" />
    <glyph glyph-name="uni2151" unicode="&#x2151;" horiz-adv-x="921" 
d="M252 347h-101v255l-70 -51l-52 81l148 110h75v-395zM93 0l578 739h123l-576 -739h-125zM722 405c104 0 158 -79 158 -194c0 -62 -16 -114 -47 -155s-76 -62 -136 -62c-47 0 -85 12 -116 35l37 72c25 -15 50 -23 74 -23c56 0 93 40 101 101c-22 -25 -51 -37 -87 -37
c-81 0 -132 53 -132 126c0 81 60 137 148 137zM776 270c0 31 -23 54 -54 54c-32 0 -56 -23 -56 -54c0 -29 23 -51 55 -51s55 22 55 51z" />
    <glyph glyph-name="uni2153" unicode="&#x2153;" horiz-adv-x="889" 
d="M253 347h-101v255l-70 -51l-52 81l148 110h75v-395zM86 0l578 739h124l-577 -739h-125zM761 213v-2c53 -12 83 -49 83 -96c0 -71 -64 -120 -157 -120c-47 0 -94 13 -139 40l40 78c38 -18 69 -27 94 -27c38 0 57 13 57 38c0 21 -23 36 -56 36h-54v85h47c27 0 54 11 54 36
c0 21 -16 32 -47 32c-23 0 -48 -9 -77 -26l-48 71c39 32 85 48 138 48c39 0 71 -10 97 -30c27 -20 40 -45 40 -74c0 -43 -29 -76 -72 -89z" />
    <glyph glyph-name="uni2154" unicode="&#x2154;" horiz-adv-x="885" 
d="M46 347v81l129 130c28 29 42 52 42 68c0 21 -17 36 -42 36s-57 -18 -96 -55l-48 74c43 47 94 71 151 71c80 0 138 -52 138 -125c0 -37 -19 -76 -56 -115l-75 -76h133v-89h-276zM113 0l578 739h124l-577 -739h-125zM752 211v-2c53 -12 83 -49 83 -96
c0 -71 -64 -120 -157 -120c-47 0 -94 13 -139 40l40 78c38 -18 69 -27 94 -27c38 0 57 13 57 38c0 21 -23 36 -56 36h-54v85h47c25 0 54 11 54 36c0 21 -16 32 -47 32c-23 0 -48 -9 -77 -26l-48 71c39 32 85 48 138 48c39 0 71 -10 97 -30c27 -20 40 -45 40 -74
c0 -43 -29 -76 -72 -89z" />
    <glyph glyph-name="uni2155" unicode="&#x2155;" horiz-adv-x="879" 
d="M252 347h-101v255l-70 -51l-52 81l148 110h75v-395zM88 0l578 739h124l-577 -739h-125zM710 257c83 0 137 -54 137 -129c0 -76 -61 -134 -156 -134c-53 0 -100 15 -141 44l38 79c35 -23 67 -34 98 -34c39 0 64 21 64 49c0 27 -23 47 -59 47c-22 0 -44 -9 -66 -26l-48 48
l24 192h218v-84h-151l-8 -60c15 5 31 8 50 8z" />
    <glyph glyph-name="uni2156" unicode="&#x2156;" horiz-adv-x="876" 
d="M46 347v81l129 130c28 29 42 52 42 68c0 21 -17 36 -42 36s-57 -18 -96 -55l-48 74c43 47 94 71 151 71c80 0 138 -52 138 -125c0 -37 -19 -76 -56 -115l-75 -76h133v-89h-276zM109 0l578 739h124l-577 -739h-125zM686 257c83 0 137 -54 137 -129
c0 -76 -61 -134 -156 -134c-53 0 -100 15 -141 44l38 79c35 -23 67 -34 98 -34c39 0 64 21 64 49c0 27 -23 47 -59 47c-22 0 -44 -9 -66 -26l-48 48l24 192h218v-84h-151l-8 -60c15 5 31 8 50 8z" />
    <glyph glyph-name="uni2157" unicode="&#x2157;" horiz-adv-x="839" 
d="M154 432c38 0 57 13 57 38c0 21 -23 36 -56 36h-54v85h47c27 0 54 11 54 36c0 21 -16 32 -47 32c-23 0 -48 -9 -77 -26l-48 71c39 32 85 48 138 48c39 0 71 -10 97 -30c27 -20 40 -45 40 -74c0 -43 -29 -76 -72 -89v-2c53 -12 83 -49 83 -96c0 -71 -64 -120 -157 -120
c-47 0 -94 13 -139 40l40 78c38 -18 69 -27 94 -27zM75 0l578 739h124l-577 -739h-125zM658 257c83 0 137 -54 137 -129c0 -76 -61 -134 -156 -134c-53 0 -100 15 -141 44l38 79c35 -23 67 -34 98 -34c39 0 64 21 64 49c0 27 -23 47 -59 47c-22 0 -44 -9 -66 -26l-48 48
l24 192h218v-84h-151l-8 -60c15 5 31 8 50 8z" />
    <glyph glyph-name="uni2158" unicode="&#x2158;" horiz-adv-x="898" 
d="M314 347h-93v86h-175l-21 61l209 249h80v-229h42v-81h-42v-86zM125 0l578 739h124l-576 -739h-126zM221 618l-89 -104h89v104zM704 257c83 0 137 -54 137 -129c0 -76 -61 -134 -156 -134c-53 0 -100 15 -141 44l38 79c35 -23 67 -34 98 -34c39 0 64 21 64 49
c0 27 -23 47 -59 47c-22 0 -44 -9 -66 -26l-48 48l24 192h218v-84h-151l-8 -60c15 5 31 8 50 8z" />
    <glyph glyph-name="uni2159" unicode="&#x2159;" horiz-adv-x="869" 
d="M252 347h-101v255l-70 -51l-52 81l148 110h75v-395zM84 0l578 739h123l-576 -739h-125zM703 257c83 0 137 -54 137 -129c0 -76 -61 -134 -156 -134c-53 0 -100 15 -141 44l38 79c35 -23 67 -34 98 -34c39 0 64 21 64 49c0 27 -23 47 -59 47c-22 0 -44 -9 -66 -26l-48 48
l24 192h218v-84h-151l-8 -60c15 5 31 8 50 8z" />
    <glyph glyph-name="uni215A" unicode="&#x215a;" horiz-adv-x="880" 
d="M161 430c39 0 64 21 64 49c0 27 -23 47 -59 47c-23 0 -45 -9 -66 -26l-48 48l24 192h218v-84h-151l-8 -60c15 5 31 8 50 8c83 0 137 -54 137 -129c0 -76 -61 -134 -156 -134c-53 0 -100 15 -141 44l38 79c35 -23 67 -34 98 -34zM97 0l578 739h124l-577 -739h-125z
M701 257c79 0 134 -53 134 -128c0 -39 -14 -72 -42 -97c-27 -25 -62 -38 -105 -38c-104 0 -160 80 -160 192c0 63 16 115 47 156c32 42 78 63 138 63c44 0 83 -12 116 -35l-39 -72c-23 15 -47 23 -72 23c-56 0 -94 -41 -102 -98c20 23 48 34 85 34zM687 75c32 0 56 22 56 53
c0 29 -24 52 -55 52c-32 0 -55 -21 -55 -52s23 -53 54 -53z" />
    <glyph glyph-name="oneeighth" unicode="&#x215b;" horiz-adv-x="897" 
d="M252 347h-101v255l-70 -51l-52 81l148 110h75v-395zM93 0l578 739h123l-576 -739h-125zM781 213v-2c53 -21 80 -55 80 -100c0 -67 -60 -117 -156 -117c-97 0 -157 49 -157 116c0 45 26 79 79 102v1c-36 15 -61 46 -61 83c0 64 55 109 139 109c83 0 139 -45 139 -109
c0 -38 -21 -66 -63 -83zM655 285c0 -23 21 -41 49 -41c44 0 66 44 35 71c-27 26 -89 7 -84 -30zM705 74c35 0 59 20 59 48s-24 48 -60 48c-78 5 -77 -101 1 -96z" />
    <glyph glyph-name="threeeighths" unicode="&#x215c;" horiz-adv-x="872" 
d="M159 341c-47 0 -94 13 -139 40l40 78c38 -18 69 -27 94 -27c38 0 57 13 57 38c0 21 -23 36 -56 36h-54v85h47c27 0 54 11 54 36c0 21 -16 32 -47 32c-23 0 -48 -9 -77 -26l-48 71c39 32 85 48 138 48c39 0 71 -10 97 -30c27 -20 40 -45 40 -74c0 -43 -29 -76 -72 -89v-2
c53 -12 83 -49 83 -96c0 -71 -64 -120 -157 -120zM220 0h-125l578 739h124zM683 -6c-97 0 -157 49 -157 116c0 45 26 79 79 102v1c-36 15 -61 46 -61 83c0 64 55 109 139 109c83 0 139 -45 139 -109c0 -38 -21 -66 -63 -83v-2c53 -21 80 -55 80 -100
c0 -67 -60 -117 -156 -117zM682 244c44 0 66 44 35 71c-27 26 -89 7 -84 -30c0 -23 21 -41 49 -41zM683 74c35 0 59 20 59 48s-24 48 -60 48c-78 5 -77 -101 1 -96z" />
    <glyph glyph-name="fiveeighths" unicode="&#x215d;" horiz-adv-x="887" 
d="M161 430c39 0 64 21 64 49c0 27 -23 47 -59 47c-23 0 -45 -9 -66 -26l-48 48l24 192h218v-84h-151l-8 -60c15 5 31 8 50 8c83 0 137 -54 137 -129c0 -76 -61 -134 -156 -134c-53 0 -100 15 -141 44l38 79c35 -23 67 -34 98 -34zM111 0l578 739h123l-576 -739h-125z
M775 213v-2c53 -21 80 -55 80 -100c0 -67 -60 -117 -156 -117c-97 0 -157 49 -157 116c0 45 26 79 79 102v1c-36 15 -61 46 -61 83c0 64 55 109 139 109c83 0 139 -45 139 -109c0 -38 -21 -66 -63 -83zM649 285c0 -23 21 -41 49 -41c44 0 66 44 35 71c-27 26 -89 7 -84 -30z
M699 74c35 0 59 20 59 48s-24 48 -60 48c-78 5 -77 -101 1 -96z" />
    <glyph glyph-name="seveneighths" unicode="&#x215e;" horiz-adv-x="822" 
d="M163 350h-109l140 299h-162v93h278v-71zM40 0l578 739h124l-577 -739h-125zM710 213v-2c53 -21 80 -55 80 -100c0 -67 -60 -117 -156 -117c-97 0 -157 49 -157 116c0 45 26 79 79 102v1c-36 15 -61 46 -61 83c0 64 55 109 139 109c83 0 139 -45 139 -109
c0 -38 -21 -66 -63 -83zM584 285c0 -23 21 -41 49 -41c44 0 66 44 35 71c-27 26 -89 7 -84 -30zM634 74c35 0 59 20 59 48s-24 48 -60 48c-78 5 -77 -101 1 -96z" />
    <glyph glyph-name="partialdiff" unicode="&#x2202;" horiz-adv-x="621" 
d="M290 -12c-75 0 -136 24 -185 72s-73 108 -73 181c0 72 22 132 67 179c45 48 103 73 173 74c57 1 104 -21 143 -66c-37 111 -127 207 -240 270l93 111c53 -27 104 -60 163 -119c29 -29 55 -60 76 -93c44 -65 76 -161 76 -258c0 -100 -27 -184 -82 -251
c-54 -67 -124 -100 -211 -100zM296 123c32 0 59 12 81 35c23 23 34 52 34 85c0 67 -49 116 -112 116c-64 0 -113 -51 -113 -118c0 -32 10 -60 31 -83s48 -35 79 -35z" />
    <glyph glyph-name="product" unicode="&#x220f;" horiz-adv-x="764" 
d="M33 734h697v-159h-91v-693h-166v693h-182v-693h-166v693h-92v159z" />
    <glyph glyph-name="summation" unicode="&#x2211;" horiz-adv-x="659" 
d="M624 -179h-580v132l203 326l-203 328v132h580v-154h-373l180 -306l-180 -304h373v-154z" />
    <glyph glyph-name="minus" unicode="&#x2212;" horiz-adv-x="584" 
d="M523 258h-462v146h462v-146z" />
    <glyph glyph-name="radical" unicode="&#x221a;" horiz-adv-x="758" 
d="M439 -118h-139l-169 432h-128v145h249l120 -340l234 689h175z" />
    <glyph glyph-name="infinity" unicode="&#x221e;" horiz-adv-x="954" 
d="M699 582c60 0 111 -21 152 -63c42 -41 63 -91 63 -149s-21 -108 -64 -150c-43 -41 -94 -62 -153 -62c-39 0 -74 10 -105 30s-69 53 -115 99c-48 -47 -88 -81 -120 -100s-67 -29 -105 -29c-59 0 -110 21 -151 62s-61 91 -61 150c0 58 21 108 63 149c42 42 92 63 151 63
c35 0 68 -9 100 -27c33 -18 74 -50 123 -97c49 47 89 79 121 97c33 18 66 27 101 27zM174 367c0 -45 35 -83 78 -83c39 0 76 27 139 88c-57 53 -101 80 -132 80c-49 0 -85 -38 -85 -85zM693 284c48 0 87 38 87 85s-39 83 -87 83c-39 0 -74 -22 -130 -78
c36 -37 62 -61 79 -73c17 -11 34 -17 51 -17z" />
    <glyph glyph-name="integral" unicode="&#x222b;" horiz-adv-x="496" 
d="M111 -210c-49 0 -93 11 -132 32l34 132c23 -13 47 -20 71 -20c52 0 90 33 90 113v546c0 157 85 231 205 231c50 0 97 -12 141 -36l-43 -131c-22 13 -46 20 -71 20c-52 0 -89 -34 -89 -114v-544c1 -171 -116 -230 -206 -229z" />
    <glyph glyph-name="approxequal" unicode="&#x2248;" horiz-adv-x="651" 
d="M408 383c-35 0 -74 10 -115 29c-41 20 -70 30 -86 30c-28 0 -49 -14 -86 -61l-89 75c37 76 103 116 180 116c35 0 73 -10 115 -30c42 -19 71 -29 88 -29c29 0 50 15 85 67l94 -78c-45 -79 -107 -119 -186 -119zM413 156c-35 0 -74 10 -115 29c-41 20 -70 30 -86 30
c-28 0 -49 -14 -86 -61l-89 75c37 76 103 116 180 116c35 0 73 -10 114 -30c42 -19 72 -29 89 -29c29 0 50 15 85 67l94 -78c-45 -79 -107 -119 -186 -119z" />
    <glyph glyph-name="notequal" unicode="&#x2260;" horiz-adv-x="585" 
d="M524 492v-128h-174l-30 -73h204v-128h-256l-42 -103h-86l42 103h-120v128h172l30 73h-202v128h254l43 105h86l-43 -105h122z" />
    <glyph glyph-name="lessequal" unicode="&#x2264;" horiz-adv-x="574" 
d="M507 339v-146l-453 181v107l453 186v-146l-262 -92zM507 162v-128h-457v128h457z" />
    <glyph glyph-name="greaterequal" unicode="&#x2265;" horiz-adv-x="574" 
d="M520 374l-453 -181v146l262 90l-262 92v146l453 -186v-107zM524 34h-457v128h457v-128z" />
    <glyph glyph-name="lozenge" unicode="&#x25ca;" horiz-adv-x="708" 
d="M420 -42h-133l-258 418l258 416h133l258 -416zM213 377l141 -232l140 232l-140 230z" />
    <glyph glyph-name="Euro.osf" horiz-adv-x="599" 
d="M459 226h-224c27 -75 93 -124 182 -124c44 0 94 15 150 44v-120c-39 -21 -110 -37 -165 -37c-75 0 -139 22 -193 65c-54 44 -88 101 -102 172h-100l18 41h-13l39 87h54c13 73 48 133 103 179c55 47 121 70 196 70c72 0 152 -22 201 -55l-52 -99c-43 25 -88 37 -133 37
c-92 0 -164 -52 -188 -132h289l-40 -87h-3z" />
    <glyph glyph-name="I_J.loclNLD" horiz-adv-x="915" 
d="M78 0v739h166v-739h-166zM556 -12c-94 0 -172 30 -234 90l76 131c43 -41 91 -62 144 -62c85 0 138 57 138 149v443h165v-449c0 -101 -27 -177 -82 -227c-54 -50 -123 -75 -207 -75z" />
    <glyph glyph-name="Iacute_J.loclNLD" horiz-adv-x="910" 
d="M234 795h-147l65 188h180zM831 794h-147l65 188h180zM78 0v739h166v-739h-166zM556 -12c-94 0 -172 30 -234 90l76 131c43 -41 91 -62 144 -62c85 0 138 57 138 149v443h165v-449c0 -101 -27 -177 -82 -227c-54 -50 -123 -75 -207 -75z" />
    <glyph glyph-name="J.loclNLD" horiz-adv-x="589" 
d="M510 794h-147l65 188h180zM235 -12c-94 0 -172 30 -234 90l76 131c43 -41 91 -62 144 -62c85 0 138 57 138 149v443h165v-449c0 -101 -27 -177 -82 -227c-54 -50 -123 -75 -207 -75z" />
    <glyph glyph-name="Jacute" horiz-adv-x="589" 
d="M512 794h-147l65 188h180zM235 -12c-94 0 -172 30 -234 90l76 131c43 -41 91 -62 144 -62c85 0 138 57 138 149v443h165v-449c0 -101 -27 -177 -82 -227c-54 -50 -123 -75 -207 -75z" />
    <glyph glyph-name="_1" horiz-adv-x="0" 
 />
    <glyph glyph-name="a.ss02" horiz-adv-x="586" 
d="M280 562c67 0 123 -14 172 -49c51 -35 81 -101 81 -189v-324h-141v57c-40 -47 -97 -70 -170 -70c-61 0 -109 17 -144 50c-34 33 -51 75 -51 126c0 113 97 172 248 175h45l67 3c-7 57 -46 86 -115 86c-58 0 -115 -15 -171 -44l-52 116c75 42 152 63 231 63zM251 110
c71 0 128 50 135 119c-34 -2 -65 -3 -93 -3c-77 -1 -116 -15 -116 -59c0 -35 27 -57 74 -57z" />
    <glyph glyph-name="aacute.ss02" horiz-adv-x="586" 
d="M279 807h172l-94 -179h-140zM280 562c67 0 123 -14 172 -49c51 -35 81 -101 81 -189v-324h-141v57c-40 -47 -97 -70 -170 -70c-61 0 -109 17 -144 50c-34 33 -51 75 -51 126c0 113 97 172 248 175h45l67 3c-7 57 -46 86 -115 86c-58 0 -115 -15 -171 -44l-52 116
c75 42 152 63 231 63zM251 110c71 0 128 50 135 119c-34 -2 -65 -3 -93 -3c-77 -1 -116 -15 -116 -59c0 -35 27 -57 74 -57z" />
    <glyph glyph-name="abreve.ss02" horiz-adv-x="586" 
d="M101 807h121c3 -48 27 -82 72 -82s70 34 71 82h123c-8 -116 -82 -185 -194 -185s-185 69 -193 185zM280 562c67 0 123 -14 172 -49c51 -35 81 -101 81 -189v-324h-141v57c-40 -47 -97 -70 -170 -70c-61 0 -109 17 -144 50c-34 33 -51 75 -51 126c0 113 97 172 248 175h45
l67 3c-7 57 -46 86 -115 86c-58 0 -115 -15 -171 -44l-52 116c75 42 152 63 231 63zM251 110c71 0 128 50 135 119c-34 -2 -65 -3 -93 -3c-77 -1 -116 -15 -116 -59c0 -35 27 -57 74 -57z" />
    <glyph glyph-name="acircumflex.ss02" horiz-adv-x="586" 
d="M349 627l-62 86l-63 -86h-145l151 181h118l151 -181h-150zM280 562c67 0 123 -14 172 -49c51 -35 81 -101 81 -189v-324h-141v57c-40 -47 -97 -70 -170 -70c-61 0 -109 17 -144 50c-34 33 -51 75 -51 126c0 113 97 172 248 175h45l67 3c-7 57 -46 86 -115 86
c-58 0 -115 -15 -171 -44l-52 116c75 42 152 63 231 63zM251 110c71 0 128 50 135 119c-34 -2 -65 -3 -93 -3c-77 -1 -116 -15 -116 -59c0 -35 27 -57 74 -57z" />
    <glyph glyph-name="acute.case" horiz-adv-x="350" 
d="M188 795h-147l65 188h180z" />
    <glyph glyph-name="adieresis.ss02" horiz-adv-x="586" 
d="M184 617c-52 0 -90 37 -90 89c0 49 39 88 90 88s89 -39 89 -88c0 -52 -38 -89 -89 -89zM408 617c-52 0 -90 37 -90 89c0 49 39 88 90 88s89 -39 89 -88c0 -52 -38 -89 -89 -89zM280 562c67 0 123 -14 172 -49c51 -35 81 -101 81 -189v-324h-141v57
c-40 -47 -97 -70 -170 -70c-61 0 -109 17 -144 50c-34 33 -51 75 -51 126c0 113 97 172 248 175h45l67 3c-7 57 -46 86 -115 86c-58 0 -115 -15 -171 -44l-52 116c75 42 152 63 231 63zM251 110c71 0 128 50 135 119c-34 -2 -65 -3 -93 -3c-77 -1 -116 -15 -116 -59
c0 -35 27 -57 74 -57z" />
    <glyph glyph-name="agrave.ss02" horiz-adv-x="586" 
d="M316 807l63 -179h-140l-94 179h171zM280 562c67 0 123 -14 172 -49c51 -35 81 -101 81 -189v-324h-141v57c-40 -47 -97 -70 -170 -70c-61 0 -109 17 -144 50c-34 33 -51 75 -51 126c0 113 97 172 248 175h45l67 3c-7 57 -46 86 -115 86c-58 0 -115 -15 -171 -44l-52 116
c75 42 152 63 231 63zM251 110c71 0 128 50 135 119c-34 -2 -65 -3 -93 -3c-77 -1 -116 -15 -116 -59c0 -35 27 -57 74 -57z" />
    <glyph glyph-name="amacron.ss02" horiz-adv-x="586" 
d="M129 774h334v-135l-334 -2v137zM280 562c67 0 123 -14 172 -49c51 -35 81 -101 81 -189v-324h-141v57c-40 -47 -97 -70 -170 -70c-61 0 -109 17 -144 50c-34 33 -51 75 -51 126c0 113 97 172 248 175h45l67 3c-7 57 -46 86 -115 86c-58 0 -115 -15 -171 -44l-52 116
c75 42 152 63 231 63zM251 110c71 0 128 50 135 119c-34 -2 -65 -3 -93 -3c-77 -1 -116 -15 -116 -59c0 -35 27 -57 74 -57z" />
    <glyph glyph-name="aogonek.ss02" horiz-adv-x="583" 
d="M518 -137l30 -98c-36 -20 -73 -30 -112 -30c-79 0 -124 49 -124 116c0 56 32 106 96 149h-16v57c-40 -47 -97 -70 -170 -70c-61 0 -109 17 -144 50c-34 33 -51 75 -51 126c0 113 97 172 248 175h45l67 3c-7 57 -46 86 -115 86c-58 0 -115 -15 -171 -44l-52 116
c75 42 152 63 231 63c67 0 123 -14 172 -49c51 -35 81 -101 81 -189v-324c-52 -24 -94 -71 -94 -110c0 -24 16 -38 37 -38c11 0 25 4 42 11zM251 110c71 0 128 50 135 119c-34 -2 -65 -3 -93 -3c-77 -1 -116 -15 -116 -59c0 -35 27 -57 74 -57z" />
    <glyph glyph-name="aring.ss02" horiz-adv-x="586" 
d="M433 741c0 -37 -14 -68 -41 -94s-59 -39 -98 -39s-71 13 -98 38c-27 26 -40 58 -40 95s13 69 40 95s59 39 98 39s71 -13 98 -39s41 -58 41 -95zM294 793c-29 0 -52 -22 -52 -50c0 -29 23 -52 52 -52c28 0 51 23 51 52c0 28 -23 50 -51 50zM280 562c67 0 123 -14 172 -49
c51 -35 81 -101 81 -189v-324h-141v57c-40 -47 -97 -70 -170 -70c-61 0 -109 17 -144 50c-34 33 -51 75 -51 126c0 113 97 172 248 175h45l67 3c-7 57 -46 86 -115 86c-58 0 -115 -15 -171 -44l-52 116c75 42 152 63 231 63zM251 110c71 0 128 50 135 119
c-34 -2 -65 -3 -93 -3c-77 -1 -116 -15 -116 -59c0 -35 27 -57 74 -57z" />
    <glyph glyph-name="at.case" horiz-adv-x="964" 
d="M577 531v39h117v-252c0 -40 19 -59 40 -59s41 14 58 43c18 29 27 66 27 109c0 87 -32 160 -96 219s-141 87 -232 86c-95 -2 -175 -37 -241 -104c-65 -67 -98 -148 -98 -243c0 -97 34 -180 103 -249s153 -103 251 -103c93 0 191 35 262 90l52 -89
c-33 -29 -78 -54 -136 -75s-119 -32 -182 -32c-85 0 -164 21 -235 63c-71 41 -127 97 -168 167c-40 70 -60 146 -60 229c0 125 44 232 132 319c88 88 196 132 323 132c126 0 230 -39 313 -118s125 -174 125 -285c0 -78 -21 -142 -63 -193c-41 -51 -93 -76 -154 -76
c-57 0 -97 24 -119 72c-35 -48 -84 -72 -149 -72c-57 0 -106 21 -145 62s-58 93 -58 155s19 114 58 156s87 63 146 63c54 0 97 -18 129 -54zM471 260c57 0 104 46 104 106c0 31 -10 57 -30 78c-19 21 -44 32 -73 32s-54 -10 -75 -31c-20 -21 -30 -46 -30 -77
c0 -61 45 -108 104 -108z" />
    <glyph glyph-name="atilde.ss02" horiz-adv-x="586" 
d="M237 670c-25 0 -47 -17 -66 -51l-99 49c39 81 84 121 153 121c22 0 47 -7 75 -22c28 -14 47 -21 58 -21c23 0 38 13 59 49l99 -47c-31 -79 -81 -122 -142 -122c-21 0 -46 7 -75 22s-49 22 -62 22zM280 562c67 0 123 -14 172 -49c51 -35 81 -101 81 -189v-324h-141v57
c-40 -47 -97 -70 -170 -70c-61 0 -109 17 -144 50c-34 33 -51 75 -51 126c0 113 97 172 248 175h45l67 3c-7 57 -46 86 -115 86c-58 0 -115 -15 -171 -44l-52 116c75 42 152 63 231 63zM251 110c71 0 128 50 135 119c-34 -2 -65 -3 -93 -3c-77 -1 -116 -15 -116 -59
c0 -35 27 -57 74 -57z" />
    <glyph glyph-name="backslash.case" horiz-adv-x="614" 
d="M192 739l403 -739h-173l-405 739h175z" />
    <glyph glyph-name="braceleft.case" horiz-adv-x="428" 
d="M206 371v-3c51 -16 97 -58 97 -119c0 -16 -2 -45 -6 -86s-6 -70 -6 -87c0 -49 25 -74 75 -74h26v-152h-77c-123 0 -185 64 -185 191c0 18 1 47 4 86s5 68 5 85c0 69 -39 89 -115 94v129c77 8 115 26 115 95c0 17 -2 45 -5 86s-4 71 -4 91c0 123 65 185 194 185h68v-153
h-26c-50 0 -75 -25 -75 -74c0 -17 2 -46 6 -88c4 -41 6 -70 6 -85c0 -63 -46 -104 -97 -121z" />
    <glyph glyph-name="braceright.case" horiz-adv-x="428" 
d="M222 369v4c-51 16 -97 59 -97 120c0 15 2 44 6 86s6 71 6 88c0 49 -25 73 -74 73h-27v153h68c130 0 195 -61 195 -184c0 -21 -2 -51 -5 -92s-4 -69 -4 -86c0 -69 36 -87 115 -95v-128c-77 -7 -115 -26 -115 -95c0 -17 1 -46 4 -85s5 -67 5 -85c0 -128 -62 -192 -185 -192
h-78v153h27c49 0 74 25 74 74c0 17 -2 45 -6 86s-6 70 -6 86c0 61 46 104 97 119z" />
    <glyph glyph-name="bracketleft.case" horiz-adv-x="430" 
d="M406 -144h-327v1038h327v-142h-167v-755h167v-141z" />
    <glyph glyph-name="bracketright.case" horiz-adv-x="430" 
d="M352 -144h-327v141h167v755h-167v142h327v-1038z" />
    <glyph glyph-name="breve.case" horiz-adv-x="495" 
d="M243 787c-117 0 -194 74 -202 195h127c3 -51 28 -87 75 -87c48 0 74 36 75 87h129c-8 -121 -85 -195 -204 -195z" />
    <glyph glyph-name="brevecombcy" horiz-adv-x="0" 
d="M-472 706l82 85c52 -65 92 -85 144 -85s92 20 144 85l83 -85c-65 -79 -141 -119 -228 -119s-162 40 -225 119z" />
    <glyph glyph-name="caron.alt" horiz-adv-x="315" 
d="M156 625h-133l67 184h162z" />
    <glyph glyph-name="caron.case" horiz-adv-x="556" 
d="M222 793l-151 181h145l63 -86l62 86h150l-151 -181h-118z" />
    <glyph glyph-name="cedilla.case" horiz-adv-x="355" 
d="M239 18l-27 -66c60 -4 107 -44 107 -103c0 -67 -56 -123 -152 -123c-40 0 -82 10 -127 31l32 88c29 -14 56 -21 81 -21c33 0 51 16 51 36c0 22 -19 33 -57 33h-53l-8 29l39 98z" />
    <glyph glyph-name="circumflex.case" horiz-adv-x="544" 
d="M192 795h-153l159 190h124l159 -190h-158l-65 90z" />
    <glyph glyph-name="colon.case" horiz-adv-x="300" 
d="M152 435c-51 0 -89 37 -89 88c0 49 38 87 89 87c48 0 86 -38 86 -87c0 -51 -38 -88 -86 -88zM152 97c-51 0 -89 37 -89 88c0 49 38 87 89 87c48 0 86 -38 86 -87c0 -51 -38 -88 -86 -88z" />
    <glyph glyph-name="comma.ss03" horiz-adv-x="270" 
d="M4 -181l83 322h152l-112 -322h-123z" />
    <glyph glyph-name="commaccent" horiz-adv-x="256" 
d="M140 -62c51 0 93 -38 93 -95c0 -65 -48 -119 -152 -195l-53 67c39 29 65 51 78 64c-31 11 -53 41 -53 76c0 45 38 83 87 83z" />
    <glyph glyph-name="commaccent.case" horiz-adv-x="248" 
d="M146 -64c53 0 96 -39 96 -98c0 -67 -49 -124 -156 -201l-55 69c35 26 62 48 81 66c-32 11 -55 42 -55 78c0 48 38 86 89 86z" />
    <glyph glyph-name="dieresis.case" horiz-adv-x="499" 
d="M42 888c0 49 40 89 91 89s90 -38 90 -89c0 -52 -38 -90 -90 -90s-91 38 -91 90zM360 798c-52 0 -91 38 -91 90c0 49 40 89 91 89s90 -40 90 -89c0 -52 -39 -90 -90 -90z" />
    <glyph glyph-name="dollar.osf" horiz-adv-x="530" 
d="M505 171c0 -87 -66 -152 -162 -175v-119h-136v115c-80 14 -141 53 -184 117l94 90c35 -48 92 -81 152 -81c47 0 76 19 76 48c0 24 -18 36 -55 52c-61 25 -108 46 -140 65c-63 39 -94 86 -94 142c0 89 60 150 156 170v111h136v-111c51 -10 98 -33 143 -70l-77 -102
c-47 35 -92 52 -136 52c-45 0 -73 -17 -73 -44c0 -23 21 -39 72 -60l46 -20c41 -16 69 -28 90 -40c61 -35 92 -81 92 -140z" />
    <glyph glyph-name="dotaccent.case" horiz-adv-x="301" 
d="M134 796c-53 0 -94 40 -94 93s41 93 94 93c52 0 93 -40 93 -93s-41 -93 -93 -93z" />
    <glyph glyph-name="eight.dnom" horiz-adv-x="373" 
d="M187 -6c-97 0 -157 49 -157 116c0 45 26 79 79 102v1c-36 15 -61 46 -61 83c0 64 55 109 139 109c83 0 139 -45 139 -109c0 -38 -21 -66 -63 -83v-2c53 -21 80 -55 80 -100c0 -67 -60 -117 -156 -117zM186 244c44 0 66 44 35 71c-27 26 -89 7 -84 -30
c0 -23 21 -41 49 -41zM187 74c35 0 59 20 59 48s-24 48 -60 48c-78 5 -77 -101 1 -96z" />
    <glyph glyph-name="eight.lf" horiz-adv-x="639" 
d="M320 -12c-84 0 -152 20 -203 60c-51 41 -77 93 -77 157c0 84 52 158 136 187v2c-63 31 -105 87 -105 160c0 58 23 105 68 142c46 37 106 56 181 56c74 0 134 -19 180 -56s69 -85 69 -142c0 -73 -42 -129 -107 -160v-3c84 -29 138 -102 138 -186c0 -64 -26 -116 -78 -157
c-51 -40 -119 -60 -202 -60zM320 618c-60 0 -100 -35 -100 -83c0 -23 9 -43 27 -59c18 -15 42 -23 72 -23s54 8 71 23c18 15 27 35 27 59c0 48 -38 83 -97 83zM205 225c0 -55 47 -92 115 -92s114 38 114 91s-45 91 -114 91s-115 -38 -115 -90z" />
    <glyph glyph-name="eight.num" horiz-adv-x="373" 
d="M187 341c-97 0 -157 49 -157 116c0 45 26 79 79 102v1c-36 15 -61 46 -61 83c0 64 55 109 139 109c83 0 139 -45 139 -109c0 -38 -21 -66 -63 -83v-2c53 -21 80 -55 80 -100c0 -67 -60 -117 -156 -117zM186 591c44 0 66 44 35 71c-27 26 -89 7 -84 -30
c0 -23 21 -41 49 -41zM187 421c35 0 59 20 59 48s-24 48 -60 48c-78 5 -77 -101 1 -96z" />
    <glyph glyph-name="eight.osf" horiz-adv-x="633" 
d="M317 -11c-84 0 -152 19 -203 58s-77 89 -77 150c0 80 53 150 136 178v2c-64 28 -105 83 -105 152c0 55 23 101 68 136c46 36 106 54 181 54c74 0 134 -18 180 -54c46 -35 69 -81 69 -136c0 -69 -36 -120 -107 -152v-3c84 -27 137 -97 137 -177c0 -61 -26 -111 -77 -150
s-119 -58 -202 -58zM415 511c0 45 -39 78 -98 78c-61 0 -101 -33 -101 -78c0 -44 40 -77 100 -77s99 33 99 77zM317 129c67 0 114 37 114 86s-45 85 -114 85c-71 0 -116 -36 -116 -84c0 -51 48 -87 116 -87z" />
    <glyph glyph-name="eight.tf" horiz-adv-x="628" 
d="M314 -12c-84 0 -152 20 -203 60c-51 41 -77 93 -77 157c0 84 52 158 136 187v2c-64 31 -105 87 -105 160c0 58 23 105 68 142c46 37 106 56 181 56c74 0 134 -19 180 -56s69 -85 69 -142c0 -73 -42 -129 -107 -160v-3c84 -29 138 -102 138 -186c0 -64 -26 -116 -78 -157
c-51 -40 -119 -60 -202 -60zM314 618c-60 0 -100 -35 -100 -83c0 -23 9 -43 27 -59c18 -15 42 -23 72 -23s54 8 71 23c18 15 27 35 27 59c0 48 -38 83 -97 83zM199 225c0 -55 47 -92 115 -92s114 38 114 91s-45 91 -114 91s-115 -38 -115 -90z" />
    <glyph glyph-name="eight_fraction_nine" horiz-adv-x="882" 
d="M346 458c0 -67 -60 -117 -156 -117c-97 0 -157 49 -157 116c0 45 26 79 79 102v1c-36 15 -61 46 -61 83c0 64 55 109 139 109c83 0 139 -45 139 -109c0 -38 -21 -66 -63 -83v-2c53 -21 80 -55 80 -100zM91 0l578 739h124l-577 -739h-125zM140 632c0 -23 21 -41 49 -41
c44 0 66 44 35 71c-27 26 -89 7 -84 -30zM190 421c35 0 59 20 59 48s-24 48 -60 48c-78 5 -77 -101 1 -96zM685 405c104 0 158 -79 158 -194c0 -62 -16 -114 -47 -155s-76 -62 -136 -62c-47 0 -85 12 -116 35l37 72c25 -15 50 -23 74 -23c56 0 93 40 101 101
c-22 -25 -51 -37 -87 -37c-81 0 -132 53 -132 126c0 81 60 137 148 137zM739 270c0 31 -23 54 -54 54c-32 0 -56 -23 -56 -54c0 -29 23 -51 55 -51s55 22 55 51z" />
    <glyph glyph-name="emdash.case" horiz-adv-x="1048" 
d="M987 293h-925v158h925v-158z" />
    <glyph glyph-name="endash.case" horiz-adv-x="729" 
d="M668 293h-606v158h606v-158z" />
    <glyph glyph-name="exclamdown.case" horiz-adv-x="306" 
d="M171 757c48 0 86 -38 86 -89c0 -48 -39 -86 -86 -86c-51 0 -90 38 -90 86c0 51 39 89 90 89zM88 -14l9 544h143l11 -544h-163z" />
    <glyph glyph-name="five.dnom" horiz-adv-x="339" 
d="M175 257c83 0 137 -54 137 -129c0 -76 -61 -134 -156 -134c-53 0 -100 15 -141 44l38 79c35 -23 67 -34 98 -34c39 0 64 21 64 49c0 27 -23 47 -59 47c-23 0 -45 -9 -66 -26l-48 48l24 192h218v-84h-151l-8 -60c15 5 31 8 50 8z" />
    <glyph glyph-name="five.lf" horiz-adv-x="594" 
d="M309 474c71 0 130 -22 177 -65c48 -43 72 -100 72 -170c0 -72 -25 -132 -76 -180c-51 -47 -119 -71 -204 -71c-89 0 -173 26 -252 79l63 132c63 -39 123 -59 181 -59c79 0 123 43 123 99c0 55 -48 96 -113 96c-43 0 -83 -16 -118 -47l-92 81l38 370h400v-152h-278
l-13 -128c30 10 61 15 92 15z" />
    <glyph glyph-name="five.num" horiz-adv-x="339" 
d="M175 604c83 0 137 -54 137 -129c0 -76 -61 -134 -156 -134c-53 0 -100 15 -141 44l38 79c35 -23 67 -34 98 -34c39 0 64 21 64 49c0 27 -23 47 -59 47c-23 0 -45 -9 -66 -26l-48 48l24 192h218v-84h-151l-8 -60c15 5 31 8 50 8z" />
    <glyph glyph-name="five.osf" horiz-adv-x="578" 
d="M302 341c70 0 129 -20 176 -61c48 -41 72 -94 72 -159c0 -67 -26 -123 -77 -168s-118 -67 -203 -67c-88 0 -172 24 -251 73l63 126c64 -36 124 -54 180 -54c79 0 123 39 123 88c0 48 -48 87 -112 87c-43 0 -83 -14 -118 -42l-92 79l38 345h399v-143h-277l-13 -119
c30 10 61 15 92 15z" />
    <glyph glyph-name="five.tf" horiz-adv-x="628" 
d="M321 474c71 0 130 -22 177 -65c48 -43 72 -100 72 -170c0 -72 -25 -132 -76 -180c-51 -47 -119 -71 -204 -71c-89 0 -173 26 -252 79l63 132c63 -39 123 -59 181 -59c79 0 123 43 123 99c0 55 -48 96 -113 96c-43 0 -83 -16 -118 -47l-92 81l38 370h400v-152h-278
l-13 -128c30 10 61 15 92 15z" />
    <glyph glyph-name="five_fraction_nine" horiz-adv-x="880" 
d="M161 430c39 0 64 21 64 49c0 27 -23 47 -59 47c-23 0 -45 -9 -66 -26l-48 48l24 192h218v-84h-151l-8 -60c15 5 31 8 50 8c83 0 137 -54 137 -129c0 -76 -61 -134 -156 -134c-53 0 -100 15 -141 44l38 79c35 -23 67 -34 98 -34zM88 0l578 739h124l-577 -739h-125z
M682 405c104 0 158 -79 158 -194c0 -62 -16 -114 -47 -155s-76 -62 -136 -62c-47 0 -85 12 -116 35l37 72c25 -15 50 -23 74 -23c56 0 93 40 101 101c-22 -25 -51 -37 -87 -37c-81 0 -132 53 -132 126c0 81 60 137 148 137zM736 270c0 31 -23 54 -54 54
c-32 0 -56 -23 -56 -54c0 -29 23 -51 55 -51s55 22 55 51z" />
    <glyph glyph-name="five_fraction_seven" horiz-adv-x="873" 
d="M165 430c39 0 64 21 64 49c0 27 -23 47 -59 47c-23 0 -45 -9 -66 -26l-48 48l24 192h218v-84h-151l-8 -60c15 5 31 8 50 8c83 0 137 -54 137 -129c0 -76 -61 -134 -156 -134c-53 0 -100 15 -141 44l38 79c35 -23 67 -34 98 -34zM85 0l578 739h124l-577 -739h-125z
M553 302v93h278v-71l-147 -321h-109l140 299h-162z" />
    <glyph glyph-name="four.dnom" horiz-adv-x="372" 
d="M300 167h42v-81h-42v-86h-93v86h-175l-21 61l209 249h80v-229zM207 271l-89 -104h89v104z" />
    <glyph glyph-name="four.lf" horiz-adv-x="623" 
d="M507 303h79v-136h-79v-167h-153v167h-319l-32 107l381 465h123v-436zM354 514l-170 -211h170v211z" />
    <glyph glyph-name="four.num" horiz-adv-x="372" 
d="M300 514h42v-81h-42v-86h-93v86h-175l-21 61l209 249h80v-229zM207 618l-89 -104h89v104z" />
    <glyph glyph-name="four.osf" horiz-adv-x="626" 
d="M512 191h79v-132h-79v-159h-152v159h-315l-32 105l377 426h122v-399zM360 377l-162 -186h162v186z" />
    <glyph glyph-name="four.tf" horiz-adv-x="628" 
d="M520 303h79v-136h-79v-167h-153v167h-319l-32 107l381 465h123v-436zM367 514l-170 -211h170v211z" />
    <glyph glyph-name="four_fraction_nine" horiz-adv-x="964" 
d="M315 347h-93v86h-175l-21 61l209 249h80v-229h42v-81h-42v-86zM157 0l578 739h124l-577 -739h-125zM222 618l-89 -104h89v104zM758 405c104 0 158 -79 158 -194c0 -62 -16 -114 -47 -155s-76 -62 -136 -62c-47 0 -85 12 -116 35l37 72c25 -15 50 -23 74 -23
c56 0 93 40 101 101c-22 -25 -51 -37 -87 -37c-81 0 -132 53 -132 126c0 81 60 137 148 137zM812 270c0 31 -23 54 -54 54c-32 0 -56 -23 -56 -54c0 -29 23 -51 55 -51s55 22 55 51z" />
    <glyph glyph-name="four_fraction_seven" horiz-adv-x="925" 
d="M315 347h-93v86h-175l-21 61l209 249h80v-229h42v-81h-42v-86zM131 0l578 739h124l-577 -739h-125zM222 618l-89 -104h89v104zM599 302v93h278v-71l-147 -321h-109l140 299h-162z" />
    <glyph glyph-name="grave.case" horiz-adv-x="344" 
d="M222 984l66 -189h-149l-99 189h182z" />
    <glyph glyph-name="guillemotleft.case" horiz-adv-x="618" 
d="M333 171h-165l-134 203l134 203h165l-139 -203zM572 171h-166l-133 203l133 203h166l-139 -203z" />
    <glyph glyph-name="guillemotright.case" horiz-adv-x="618" 
d="M345 374l-132 -203h-167l139 203l-139 203h166zM584 374l-134 -203h-165l139 203l-139 203h165z" />
    <glyph glyph-name="guilsinglleft.case" horiz-adv-x="380" 
d="M333 171h-165l-134 203l134 203h165l-139 -203z" />
    <glyph glyph-name="guilsinglright.case" horiz-adv-x="380" 
d="M346 374l-134 -203h-165l139 203l-139 203h165z" />
    <glyph glyph-name="hungarumlaut.case" horiz-adv-x="574" 
d="M180 795h-135l45 188h171zM401 795h-141l65 188h177z" />
    <glyph glyph-name="hyphen.case" horiz-adv-x="543" 
d="M481 293h-419v158h419v-158z" />
    <glyph glyph-name="i.loclTRK" horiz-adv-x="278" 
d="M143 604c-53 0 -94 40 -94 93s41 93 94 93c52 0 93 -40 93 -93s-41 -93 -93 -93zM220 548v-548h-157v548h157z" />
    <glyph glyph-name="i_j.loclNLD" horiz-adv-x="605" 
d="M143 604c-53 0 -94 40 -94 93s41 93 94 93c52 0 93 -40 93 -93s-41 -93 -93 -93zM427 604c-53 0 -94 40 -94 93s41 93 94 93c52 0 93 -40 93 -93s-41 -93 -93 -93zM220 548v-548h-157v548h157zM285 -234c-59 0 -104 10 -135 31l30 123c28 -11 54 -16 78 -16
c60 0 90 35 90 106v538h157v-550c0 -155 -89 -232 -220 -232z" />
    <glyph glyph-name="iacute_j.loclNLD" horiz-adv-x="566" 
d="M206 628h-140l62 179h172zM500 628h-140l62 179h172zM217 548v-548h-157v548h157zM285 -234c-59 0 -104 10 -135 31l30 123c28 -11 54 -16 78 -16c60 0 90 35 90 106v538h157v-550c0 -155 -89 -232 -220 -232z" />
    <glyph glyph-name="j.loclNLD" horiz-adv-x="302" 
d="M163 604c-53 0 -94 40 -94 93s41 93 94 93c52 0 93 -40 93 -93s-41 -93 -93 -93zM21 -234c-59 0 -104 10 -135 31l30 123c28 -11 54 -16 78 -16c60 0 90 35 90 106v538h157v-550c0 -155 -89 -232 -220 -232z" />
    <glyph glyph-name="jacute" horiz-adv-x="302" 
d="M226 628h-140l62 179h172zM21 -234c-59 0 -104 10 -135 31l30 123c28 -11 54 -16 78 -16c60 0 90 35 90 106v538h157v-550c0 -155 -89 -232 -220 -232z" />
    <glyph glyph-name="macron.case" horiz-adv-x="481" 
d="M420 814l-378 -2v137h378v-135z" />
    <glyph glyph-name="nine.dnom" horiz-adv-x="362" 
d="M172 405c104 0 158 -79 158 -194c0 -62 -16 -114 -47 -155s-76 -62 -136 -62c-47 0 -85 12 -116 35l37 72c25 -15 50 -23 74 -23c56 0 93 40 101 101c-22 -25 -51 -37 -87 -37c-81 0 -132 53 -132 126c0 81 60 137 148 137zM226 270c0 31 -23 54 -54 54
c-32 0 -56 -23 -56 -54c0 -29 23 -51 55 -51s55 22 55 51z" />
    <glyph glyph-name="nine.lf" horiz-adv-x="625" 
d="M306 752c91 0 161 -33 210 -99s74 -152 74 -257c0 -214 -101 -408 -321 -408c-83 0 -152 22 -208 66l60 122c43 -29 88 -43 137 -43c100 0 158 72 173 188c-37 -37 -89 -56 -156 -56c-69 0 -125 22 -170 66c-45 45 -67 101 -67 170c0 73 25 133 74 180
c50 47 115 71 194 71zM303 402c61 0 106 44 106 104c0 61 -46 106 -106 106s-106 -43 -106 -106c0 -60 46 -104 106 -104z" />
    <glyph glyph-name="nine.num" horiz-adv-x="362" 
d="M172 752c104 0 158 -79 158 -194c0 -62 -16 -114 -47 -155s-76 -62 -136 -62c-47 0 -85 12 -116 35l37 72c25 -15 50 -23 74 -23c56 0 93 40 101 101c-22 -25 -51 -37 -87 -37c-81 0 -132 53 -132 126c0 81 60 137 148 137zM226 617c0 31 -23 54 -54 54
c-32 0 -56 -23 -56 -54c0 -29 23 -51 55 -51s55 22 55 51z" />
    <glyph glyph-name="nine.osf" horiz-adv-x="612" 
d="M295 612c90 0 159 -32 207 -95c49 -63 73 -144 73 -243c0 -205 -100 -388 -316 -388c-81 0 -149 21 -206 63l60 118c42 -27 87 -40 135 -40c99 0 157 67 170 175c-36 -35 -87 -53 -153 -53c-67 0 -123 21 -168 63c-44 43 -66 97 -66 162c0 69 24 125 73 170
s113 68 191 68zM293 474c-60 0 -106 -41 -106 -98c0 -28 10 -51 30 -69s45 -27 75 -27s55 9 75 27c21 18 31 41 31 69c0 56 -46 98 -105 98z" />
    <glyph glyph-name="nine.tf" horiz-adv-x="628" 
d="M307 752c91 0 161 -33 210 -99s74 -152 74 -257c0 -214 -101 -408 -321 -408c-83 0 -152 22 -208 66l60 122c43 -29 88 -43 137 -43c100 0 158 72 173 188c-37 -37 -89 -56 -156 -56c-69 0 -125 22 -170 66c-45 45 -67 101 -67 170c0 73 25 133 74 180
c50 47 115 71 194 71zM304 402c61 0 106 44 106 104c0 61 -46 106 -106 106s-106 -43 -106 -106c0 -60 46 -104 106 -104z" />
    <glyph glyph-name="ogonek.case" horiz-adv-x="329" 
d="M246 -137l30 -98c-36 -20 -73 -30 -112 -30c-79 0 -124 49 -124 116c0 65 42 121 126 167l95 -18c-52 -24 -94 -71 -94 -110c0 -24 16 -38 37 -38c11 0 25 4 42 11z" />
    <glyph glyph-name="one.dnom" horiz-adv-x="281" 
d="M8 285l148 110h75v-395h-101v255l-70 -51z" />
    <glyph glyph-name="one.lf" horiz-adv-x="429" 
d="M-5 555l236 184h120v-739h-161v522l-112 -85z" />
    <glyph glyph-name="one.num" horiz-adv-x="281" 
d="M8 632l147 110h76v-395h-102v254l-69 -50z" />
    <glyph glyph-name="one.numalt" horiz-adv-x="340" 
d="M17 632l148 110h75v-395h-101v255l-70 -51z" />
    <glyph glyph-name="one.osf" horiz-adv-x="517" 
d="M373 594v-458h131v-136h-455v136h167v272l-140 -90l-72 117l243 159h126z" />
    <glyph glyph-name="one.tf" horiz-adv-x="628" 
d="M416 739v-588h150v-152h-467v152h156v371l-112 -85l-83 118l236 184h120z" />
    <glyph glyph-name="parenleft.case" horiz-adv-x="426" 
d="M413 -18l-73 -123c-199 108 -305 290 -305 515c0 227 107 408 311 515l68 -126c-138 -93 -207 -222 -207 -389c0 -161 69 -292 206 -392z" />
    <glyph glyph-name="parenright.case" horiz-adv-x="426" 
d="M85 -141l-72 123c137 100 206 231 206 392c0 167 -69 297 -206 389l67 126c204 -107 311 -288 311 -515s-106 -407 -306 -515z" />
    <glyph glyph-name="periodcentered.case" horiz-adv-x="268" 
d="M136 274c-51 0 -89 37 -89 88c0 49 38 87 89 87c48 0 86 -39 86 -87c0 -51 -38 -88 -86 -88z" />
    <glyph glyph-name="questiondown.case" horiz-adv-x="565" 
d="M246 732c35 35 89 35 124 0c36 -33 36 -91 1 -124s-92 -33 -125 0s-33 91 0 124zM234 540h152v-63c0 -59 -27 -109 -62 -141c-51 -47 -115 -89 -115 -147c0 -47 37 -79 88 -79c47 0 97 30 148 89l97 -108c-68 -86 -154 -129 -257 -129c-73 0 -132 21 -177 62
s-67 93 -67 155c0 61 31 115 68 150c56 52 125 96 125 158v53z" />
    <glyph glyph-name="quotedblbase.ss03" horiz-adv-x="517" 
d="M14 -152l83 322h152l-112 -322h-123zM254 -152l83 322h152l-112 -322h-123z" />
    <glyph glyph-name="quotedblleft.ss03" horiz-adv-x="502" 
d="M261 856l-83 -322h-152l112 322h123zM502 856l-83 -322h-152l112 322h123z" />
    <glyph glyph-name="quotedblright.ss03" horiz-adv-x="508" 
d="M23 535l83 322h152l-112 -322h-123zM263 535l83 322h152l-112 -322h-123z" />
    <glyph glyph-name="quoteleft.ss03" horiz-adv-x="257" 
d="M255 856l-83 -322h-152l112 322h123z" />
    <glyph glyph-name="quoteright.ss03" horiz-adv-x="255" 
d="M21 535l83 322h152l-112 -322h-123z" />
    <glyph glyph-name="quotesinglbase.ss03" horiz-adv-x="264" 
d="M-2 -152l83 322h152l-112 -322h-123z" />
    <glyph glyph-name="ring.case" horiz-adv-x="377" 
d="M186 775c-41 0 -75 13 -103 40s-42 60 -42 99s14 73 42 100s62 41 103 41c40 0 74 -14 103 -42c29 -27 43 -60 43 -99s-14 -72 -43 -99s-63 -40 -103 -40zM186 862c29 0 53 23 53 54c0 29 -24 53 -53 53c-31 0 -55 -24 -55 -53c0 -31 24 -54 55 -54z" />
    <glyph glyph-name="semicolon.case" horiz-adv-x="311" 
d="M165 431c-52 0 -92 39 -92 91c0 51 40 90 92 90c49 0 89 -39 89 -90c0 -52 -40 -91 -89 -91zM160 280c56 0 96 -44 96 -103c0 -79 -55 -155 -165 -226l-45 60l44 34c17 15 47 44 59 65h-3c-41 0 -77 37 -77 81c0 51 42 89 91 89z" />
    <glyph glyph-name="semicolon.case.ss03" horiz-adv-x="311" 
d="M165 431c-52 0 -92 39 -92 91c0 51 40 90 92 90c49 0 89 -39 89 -90c0 -52 -40 -91 -89 -91zM2 -151l83 322h152l-112 -322h-123z" />
    <glyph glyph-name="semicolon.ss03" horiz-adv-x="296" 
d="M156 338c-52 0 -92 39 -92 91c0 51 40 90 92 90c49 0 89 -39 89 -90c0 -52 -40 -91 -89 -91zM0 -181l83 322h152l-112 -322h-123z" />
    <glyph glyph-name="seven.dnom" horiz-adv-x="304" 
d="M12 302v93h278v-71l-147 -321h-109l140 299h-162z" />
    <glyph glyph-name="seven.lf" horiz-adv-x="532" 
d="M22 586v153h487v-117l-256 -622h-172l244 586h-303z" />
    <glyph glyph-name="seven.num" horiz-adv-x="304" 
d="M12 649v93h278v-71l-147 -321h-109l140 299h-162z" />
    <glyph glyph-name="seven.osf" horiz-adv-x="519" 
d="M17 439v149h487v-114l-258 -574h-172l243 539h-300z" />
    <glyph glyph-name="seven.tf" horiz-adv-x="628" 
d="M71 591v148h506v-106l-303 -633h-173l288 591h-318z" />
    <glyph glyph-name="seven_fraction_nine" horiz-adv-x="840" 
d="M162 350h-109l140 299h-162v93h278v-71zM33 0l578 739h123l-576 -739h-125zM642 405c104 0 158 -79 158 -194c0 -62 -16 -114 -47 -155s-76 -62 -136 -62c-47 0 -85 12 -116 35l37 72c25 -15 50 -23 74 -23c56 0 93 40 101 101c-22 -25 -51 -37 -87 -37
c-81 0 -132 53 -132 126c0 81 60 137 148 137zM696 270c0 31 -23 54 -54 54c-32 0 -56 -23 -56 -54c0 -29 23 -51 55 -51s55 22 55 51z" />
    <glyph glyph-name="six.dnom" horiz-adv-x="356" 
d="M197 257c79 0 134 -53 134 -128c0 -39 -14 -72 -42 -97c-27 -25 -62 -38 -105 -38c-104 0 -160 80 -160 192c0 63 16 115 47 156c32 42 78 63 138 63c44 0 83 -12 116 -35l-39 -72c-23 15 -47 23 -72 23c-56 0 -94 -41 -102 -98c20 23 48 34 85 34zM183 75
c32 0 56 22 56 53c0 29 -24 52 -55 52c-32 0 -55 -21 -55 -52s23 -53 54 -53z" />
    <glyph glyph-name="six.lf" horiz-adv-x="632" 
d="M359 477c71 0 129 -22 174 -67c46 -45 69 -101 69 -169c0 -72 -25 -132 -76 -179c-50 -47 -115 -71 -194 -71c-194 1 -293 159 -289 356c0 105 27 203 78 279c52 77 140 126 248 126c77 0 147 -22 209 -66l-72 -124c-40 28 -83 42 -129 42c-52 0 -94 -19 -125 -57
c-31 -37 -48 -84 -53 -141c35 47 89 71 160 71zM439 238c0 59 -46 103 -106 103c-61 0 -109 -43 -109 -103c0 -61 47 -107 108 -107s107 47 107 107z" />
    <glyph glyph-name="six.num" horiz-adv-x="356" 
d="M197 604c79 0 134 -53 134 -128c0 -39 -14 -72 -42 -97c-27 -25 -62 -38 -105 -38c-104 0 -160 80 -160 192c0 63 16 115 47 156c32 42 78 63 138 63c44 0 83 -12 116 -35l-39 -72c-23 15 -47 23 -72 23c-56 0 -94 -41 -102 -98c20 23 48 34 85 34zM183 422
c32 0 56 22 56 53c0 29 -24 52 -55 52c-32 0 -55 -21 -55 -52s23 -53 54 -53z" />
    <glyph glyph-name="six.osf" horiz-adv-x="621" 
d="M344 455c69 0 127 -22 172 -65s68 -97 68 -162c0 -68 -25 -125 -75 -170s-114 -68 -192 -68c-93 0 -163 32 -212 96c-48 64 -72 145 -72 244c0 197 101 387 321 387c75 0 144 -21 206 -63l-71 -120c-41 27 -84 40 -127 40c-104 0 -167 -79 -176 -188c35 46 88 69 158 69z
M423 226c0 56 -45 96 -105 96s-106 -40 -106 -97s46 -99 106 -99s105 43 105 100z" />
    <glyph glyph-name="six.tf" horiz-adv-x="628" 
d="M357 477c71 0 129 -22 174 -67c46 -45 69 -101 69 -169c0 -72 -25 -132 -76 -179c-50 -47 -115 -71 -194 -71c-194 1 -293 159 -289 356c0 105 27 203 78 279c52 77 140 126 248 126c77 0 147 -22 209 -66l-72 -124c-40 28 -83 42 -129 42c-52 0 -94 -19 -125 -57
c-31 -37 -48 -84 -53 -141c35 47 89 71 160 71zM437 238c0 59 -46 103 -106 103c-61 0 -109 -43 -109 -103c0 -61 47 -107 108 -107s107 47 107 107z" />
    <glyph glyph-name="six_fraction_seven" horiz-adv-x="875" 
d="M337 476c0 -39 -14 -72 -42 -97c-27 -25 -62 -38 -105 -38c-104 0 -160 80 -160 192c0 63 16 115 47 156c32 42 78 63 138 63c44 0 83 -12 116 -35l-39 -72c-23 15 -47 23 -72 23c-56 0 -94 -41 -102 -98c20 23 48 34 85 34c79 0 134 -53 134 -128zM86 0l578 739h124
l-577 -739h-125zM189 422c32 0 56 22 56 53c0 29 -24 52 -55 52c-32 0 -55 -21 -55 -52s23 -53 54 -53zM555 302v93h278v-71l-147 -321h-109l140 299h-162z" />
    <glyph glyph-name="slash.case" horiz-adv-x="614" 
d="M192 0h-173l403 739h175z" />
    <glyph glyph-name="sterling.osf" horiz-adv-x="502" 
d="M440 241h-180c-1 -39 -18 -75 -50 -108h285v-133h-452v109c49 45 73 88 73 131v1h-78v104h47c-7 23 -11 44 -11 63c0 57 21 104 64 139c43 36 96 54 158 55c88 0 166 -40 207 -105l-95 -86c-23 37 -55 56 -96 56c-55 0 -89 -40 -89 -85c0 -12 2 -24 7 -37h210v-104z" />
    <glyph glyph-name="three.dnom" horiz-adv-x="334" 
d="M147 -6c-47 0 -94 13 -139 40l40 78c38 -18 69 -27 94 -27c38 0 57 13 57 38c0 21 -23 36 -56 36h-54v85h47c27 0 54 11 54 36c0 21 -16 32 -47 32c-23 0 -48 -9 -77 -26l-48 71c39 32 85 48 138 48c39 0 71 -10 97 -30c27 -20 40 -45 40 -74c0 -43 -29 -76 -72 -89v-2
c53 -12 83 -49 83 -96c0 -71 -64 -120 -157 -120z" />
    <glyph glyph-name="three.lf" horiz-adv-x="569" 
d="M256 -12c-85 0 -167 24 -246 73l68 132c60 -35 116 -53 167 -53c69 0 110 33 110 81c0 47 -40 78 -100 78h-95v148h77c64 0 102 31 102 76s-39 74 -92 74c-41 0 -88 -18 -142 -55l-78 119c60 56 150 91 241 91c67 0 124 -18 169 -55c46 -37 69 -82 69 -137
c0 -77 -53 -140 -124 -165v-4c92 -20 145 -93 145 -182c0 -65 -25 -119 -76 -160c-50 -41 -115 -61 -195 -61z" />
    <glyph glyph-name="three.num" horiz-adv-x="334" 
d="M147 341c-47 0 -94 13 -139 40l40 78c38 -18 69 -27 94 -27c38 0 57 13 57 38c0 21 -23 36 -56 36h-54v85h47c27 0 54 11 54 36c0 21 -16 32 -47 32c-23 0 -48 -9 -77 -26l-48 71c39 32 85 48 138 48c39 0 71 -10 97 -30c27 -20 40 -45 40 -74c0 -43 -29 -76 -72 -89v-2
c53 -12 83 -49 83 -96c0 -71 -64 -120 -157 -120z" />
    <glyph glyph-name="three.osf" horiz-adv-x="553" 
d="M248 -115c-83 0 -165 23 -245 69l68 128c60 -33 118 -49 173 -49c69 0 110 30 110 73c0 41 -40 69 -100 69h-101v144h83c63 0 102 28 102 67c0 41 -39 67 -92 67c-44 0 -93 -17 -147 -50l-79 115c60 52 150 85 241 85c67 0 123 -17 168 -52c45 -34 68 -77 68 -128
c0 -73 -52 -131 -123 -154v-4c92 -19 145 -87 145 -171c0 -61 -25 -111 -76 -150c-50 -39 -115 -59 -195 -59z" />
    <glyph glyph-name="three.tf" horiz-adv-x="628" 
d="M281 -12c-85 0 -167 24 -246 73l68 132c60 -35 116 -53 167 -53c69 0 110 33 110 81c0 47 -40 78 -100 78h-95v148h77c64 0 102 31 102 76s-39 74 -92 74c-41 0 -88 -18 -142 -55l-78 119c60 56 150 91 241 91c67 0 124 -18 169 -55c46 -37 69 -82 69 -137
c0 -77 -53 -140 -124 -165v-4c92 -20 145 -93 145 -182c0 -65 -25 -119 -76 -160c-50 -41 -115 -61 -195 -61z" />
    <glyph glyph-name="three_fraction_seven" horiz-adv-x="883" 
d="M156 432c38 0 57 13 57 38c0 21 -23 36 -56 36h-54v85h47c27 0 54 11 54 36c0 21 -16 32 -47 32c-23 0 -48 -9 -77 -26l-48 71c39 32 85 48 138 48c39 0 71 -10 97 -30c27 -20 40 -45 40 -74c0 -43 -29 -76 -72 -89v-2c53 -12 83 -49 83 -96c0 -71 -64 -120 -157 -120
c-47 0 -94 13 -139 40l40 78c38 -18 69 -27 94 -27zM91 0l578 739h124l-577 -739h-125zM563 302v93h278v-71l-147 -321h-109l140 299h-162z" />
    <glyph glyph-name="tilde.case" horiz-adv-x="571" 
d="M142 808l-102 51c40 84 86 125 158 125c23 0 49 -8 77 -23c29 -15 49 -22 60 -22c24 0 38 14 61 51l102 -49c-33 -83 -82 -125 -147 -125c-21 0 -46 7 -76 22s-52 23 -65 23c-25 0 -48 -18 -68 -53z" />
    <glyph glyph-name="two.dnom" horiz-adv-x="347" 
d="M254 165l-75 -76h133v-89h-276v81l129 130c28 29 42 51 42 68c0 21 -17 36 -42 36s-57 -18 -96 -55l-48 74c43 47 94 71 151 71c80 0 138 -52 138 -125c0 -37 -19 -76 -56 -115z" />
    <glyph glyph-name="two.lf" horiz-adv-x="593" 
d="M384 259l-103 -108h259v-152h-489v138l227 236c38 39 62 68 71 86c10 18 15 36 15 53c0 51 -39 84 -91 84c-49 0 -103 -27 -162 -81l-89 119c81 79 170 118 267 118c71 0 129 -22 175 -65c47 -43 70 -97 70 -162c0 -81 -49 -161 -150 -266z" />
    <glyph glyph-name="two.num" horiz-adv-x="347" 
d="M254 512l-75 -76h133v-89h-276v81l129 130c28 29 42 52 42 68c0 21 -17 36 -42 36s-57 -18 -96 -55l-48 74c43 47 94 71 151 71c80 0 138 -52 138 -125c0 -37 -19 -76 -56 -115z" />
    <glyph glyph-name="two.osf" horiz-adv-x="552" 
d="M335 184l-58 -48h228v-137h-456v125l190 159c26 21 44 37 55 47c21 20 43 50 43 75c0 33 -26 57 -70 57c-40 0 -95 -28 -165 -84l-80 111c81 75 166 113 255 113c67 0 121 -18 162 -54s62 -80 62 -131c0 -77 -55 -144 -166 -233z" />
    <glyph glyph-name="two.tf" horiz-adv-x="628" 
d="M401 259l-103 -108h259v-152h-489v138l227 236c38 39 62 68 71 86c10 18 15 36 15 53c0 51 -39 84 -91 84c-49 0 -103 -27 -162 -81l-89 119c81 79 170 118 267 118c71 0 129 -22 175 -65c47 -43 70 -97 70 -162c0 -81 -49 -161 -150 -266z" />
    <glyph glyph-name="two_fraction_nine" horiz-adv-x="930" 
d="M45 347v81l129 130c28 29 42 52 42 68c0 21 -17 36 -42 36s-57 -18 -96 -55l-48 74c43 47 94 71 151 71c80 0 138 -52 138 -125c0 -37 -19 -76 -56 -115l-75 -76h133v-89h-276zM133 0l578 739h123l-576 -739h-125zM733 405c104 0 158 -79 158 -194
c0 -62 -16 -114 -47 -155s-76 -62 -136 -62c-47 0 -85 12 -116 35l37 72c25 -15 50 -23 74 -23c56 0 93 40 101 101c-22 -25 -51 -37 -87 -37c-81 0 -132 53 -132 126c0 81 60 137 148 137zM787 270c0 31 -23 54 -54 54c-32 0 -56 -23 -56 -54c0 -29 23 -51 55 -51
s55 22 55 51z" />
    <glyph glyph-name="two_fraction_seven" horiz-adv-x="917" 
d="M49 347v81l129 130c28 29 42 52 42 68c0 21 -17 36 -42 36s-57 -18 -96 -55l-48 74c43 47 94 71 151 71c80 0 138 -52 138 -125c0 -37 -19 -76 -56 -115l-75 -76h133v-89h-276zM130 0l578 739h123l-576 -739h-125zM597 302v93h278v-71l-147 -321h-109l140 299h-162z" />
    <glyph glyph-name="uni0414.ss01" horiz-adv-x="793" 
d="M675 739v-585h79v-304h-165v150h-393v-150h-165v304h65c48 87 84 237 109 450l16 135h454zM269 154h241v429h-145l-8 -48c-23 -169 -53 -296 -88 -381z" />
    <glyph glyph-name="uni0416.ss01" horiz-adv-x="956" 
d="M683 377l283 -377h-190l-218 297v-297h-160v297l-218 -297h-190l283 377l-267 362h186l206 -295v295h160v-294l206 294h186z" />
    <glyph glyph-name="uni041B.ss01" horiz-adv-x="756" 
d="M79 -10c-14 0 -28 1 -42 3l-31 140c5 -1 11 -1 20 -1c43 0 77 19 100 57c23 36 38 81 51 165c7 42 11 77 14 104s8 74 14 139l15 142h458v-739h-166v579h-143l-8 -73l-9 -78c-1 -15 -4 -38 -9 -70c-4 -32 -8 -57 -12 -75l-15 -64c-12 -49 -27 -86 -46 -118
c-43 -74 -106 -111 -191 -111z" />
    <glyph glyph-name="uni0424.ss01" horiz-adv-x="981" 
d="M574 41v-121h-167v121c-113 6 -203 38 -272 95c-68 58 -102 136 -102 235c0 98 34 176 101 234s158 90 273 95v119h167v-119c113 -5 203 -37 271 -96c69 -58 103 -136 103 -233s-34 -175 -103 -233c-68 -58 -158 -90 -271 -97zM574 554v-369c128 5 208 78 208 185
s-79 177 -208 184zM199 370c0 -109 77 -180 208 -185v368c-131 -5 -208 -75 -208 -183z" />
    <glyph glyph-name="uni042A.ss01" horiz-adv-x="762" 
d="M338 492h134c100 0 176 -34 213 -86c39 -51 55 -104 55 -161c0 -71 -23 -129 -68 -176c-45 -46 -107 -69 -185 -69h-312v597h-161v142h324v-247zM338 145h121c72 0 111 43 111 102s-39 101 -108 101h-124v-203z" />
    <glyph glyph-name="uni042C.ss01" horiz-adv-x="664" 
d="M241 492h134c100 0 176 -34 213 -86c39 -51 55 -104 55 -161c0 -71 -23 -129 -68 -176c-45 -46 -107 -69 -185 -69h-312v739h163v-247zM241 145h121c72 0 111 43 111 102s-39 101 -108 101h-124v-203z" />
    <glyph glyph-name="uni0431.ss01" horiz-adv-x="683" 
d="M375 540c74 0 138 -25 193 -74s82 -116 82 -199c0 -79 -27 -146 -81 -201c-54 -54 -124 -81 -211 -81c-226 0 -319 200 -319 382c0 66 9 123 26 171c36 97 85 144 168 185c41 21 80 36 115 45c36 9 78 21 127 34s89 26 120 39v-148c-28 -12 -62 -23 -101 -34l-102 -28
c-88 -21 -183 -66 -211 -176c45 57 110 85 194 85zM360 126c39 0 71 14 97 41c27 27 40 61 40 100c0 37 -13 69 -40 96c-26 27 -58 40 -96 40s-71 -13 -98 -39c-27 -25 -40 -58 -40 -97s13 -72 39 -100c26 -27 59 -41 98 -41z" />
    <glyph glyph-name="uni0432.ss01" horiz-adv-x="589" 
d="M447 303c72 -16 110 -70 110 -139c0 -96 -77 -164 -198 -164h-299v548h294c109 0 171 -62 171 -135c0 -55 -26 -92 -78 -110zM336 429h-129v-93h127c36 0 53 23 53 48c0 24 -18 45 -51 45zM207 122h138c79 -6 82 116 2 109h-140v-109z" />
    <glyph glyph-name="uni0433.ss01" horiz-adv-x="457" 
d="M60 548h384v-139h-228v-409h-156v548z" />
    <glyph glyph-name="uni0434.ss01" horiz-adv-x="667" 
d="M572 549v-415h60v-253h-148v119h-312v-119h-147v253h59c40 74 71 187 93 340l11 75h384zM318 426l-7 -36c-14 -99 -36 -185 -67 -256h175v292h-101z" />
    <glyph glyph-name="uni0436.ss01" horiz-adv-x="807" 
d="M596 280l220 -280h-175l-164 215v-215h-147v214l-164 -214h-174l219 280l-202 268h171l150 -216v216h147v-216l150 216h171z" />
    <glyph glyph-name="uni0437.ss01" horiz-adv-x="535" 
d="M16 46l50 112c64 -29 126 -43 186 -43c63 0 98 21 98 56c0 31 -28 47 -85 47h-118v117h88c63 0 95 16 95 49c0 31 -33 49 -84 49c-49 0 -100 -14 -152 -42l-65 103c64 45 142 68 234 68c65 0 118 -15 157 -44c40 -29 60 -63 60 -102c0 -48 -36 -91 -100 -112v-3
c77 -21 123 -73 123 -138c0 -47 -22 -88 -67 -123s-107 -52 -188 -52s-158 19 -232 58z" />
    <glyph glyph-name="uni0438.ss01" horiz-adv-x="654" 
d="M161 0h-101v548h153v-308l279 308h101v-548h-152v304z" />
    <glyph glyph-name="uni0439.ss01" horiz-adv-x="654" 
d="M335 582c-78 0 -145 36 -202 107l74 77c47 -59 82 -77 129 -77s82 18 130 77l75 -77c-59 -71 -127 -107 -206 -107zM161 0h-101v548h153v-308l279 308h101v-548h-152v304z" />
    <glyph glyph-name="uni043A.ss01" horiz-adv-x="584" 
d="M594 0h-183l-160 214l-39 -39v-175h-152v548h152v-193l191 193h185l-235 -233z" />
    <glyph glyph-name="uni043B.ss01" horiz-adv-x="632" 
d="M75 -9c-7 0 -18 1 -33 2l-39 120c5 -1 11 -1 17 -1c37 0 65 16 85 47c13 19 23 48 32 85c9 38 16 73 20 106c5 33 11 86 19 161l4 37h392v-548h-156v407h-100l-5 -39l-6 -42l-5 -38c-2 -19 -4 -32 -6 -41c-4 -16 -10 -55 -17 -75c-11 -32 -24 -69 -41 -95
c-36 -57 -90 -86 -161 -86z" />
    <glyph glyph-name="uni043F.ss01" horiz-adv-x="625" 
d="M60 548h504v-548h-155v407h-193v-407h-156v548z" />
    <glyph glyph-name="uni0442.ss01" horiz-adv-x="504" 
d="M13 548h478v-135h-161v-413h-156v413h-161v135z" />
    <glyph glyph-name="uni0444.ss01" horiz-adv-x="864" 
d="M830 274c0 -87 -29 -156 -87 -205s-137 -76 -236 -81v-147h-150v147c-99 5 -177 32 -236 81c-58 50 -87 119 -87 206s29 155 87 206c59 51 137 78 236 81v148h150v-148c98 -3 176 -30 235 -81c59 -50 88 -119 88 -207zM187 274c0 -93 62 -152 170 -153v306
c-111 -4 -170 -61 -170 -153zM507 427v-306c108 1 170 61 170 154c0 92 -59 148 -170 152z" />
    <glyph glyph-name="uni0446.ss01" horiz-adv-x="680" 
d="M659 -180h-151v180h-448v548h157v-403h196v403h156v-403h90v-325z" />
    <glyph glyph-name="uni0448.ss01" horiz-adv-x="943" 
d="M883 0h-823v548h157v-403h176v403h157v-403h177v403h156v-548z" />
    <glyph glyph-name="uni0449.ss01" horiz-adv-x="994" 
d="M883 548v-403h89v-325h-150v180h-762v548h157v-403h176v403h157v-403h177v403h156z" />
    <glyph glyph-name="uni044A.ss01" horiz-adv-x="626" 
d="M283 385h101c169 1 222 -104 222 -191c0 -57 -19 -103 -57 -140c-38 -36 -91 -54 -159 -54h-256v409h-115v139h264v-163zM282 127h93c108 -6 103 138 2 132h-95v-132z" />
    <glyph glyph-name="uni044C.ss01" horiz-adv-x="555" 
d="M209 385h104c169 1 222 -104 222 -191c0 -57 -19 -103 -57 -140c-38 -36 -91 -54 -159 -54h-259v548h150zM208 127h96c108 -6 103 138 2 132h-97z" />
    <glyph glyph-name="uni044E.ss01" horiz-adv-x="894" 
d="M565 563c87 0 158 -28 213 -84c55 -55 83 -124 83 -205s-28 -150 -83 -206c-55 -55 -126 -83 -213 -83c-74 0 -137 21 -189 62c-52 42 -85 96 -100 162h-61v-209h-155v548h155v-212h60c14 66 47 120 99 163c53 43 116 64 191 64zM704 275c0 40 -13 74 -40 101
s-60 41 -99 41s-72 -14 -99 -42c-27 -27 -40 -61 -40 -100c0 -41 13 -75 40 -103c27 -27 60 -41 99 -41s72 14 99 41c27 28 40 62 40 103z" />
    <glyph glyph-name="yen.osf" horiz-adv-x="523" 
d="M382 594h160l-139 -250h72v-100h-128l-9 -16v-15h137v-100h-137v-113h-150v113h-138v100h138v15l-9 16h-129v100h74l-139 250h160l118 -237z" />
    <glyph glyph-name="zero.dnom" horiz-adv-x="391" 
d="M23 200c0 123 62 206 173 206s173 -83 173 -206c0 -121 -62 -205 -173 -205s-173 84 -173 205zM196 88c45 0 67 37 67 112s-22 112 -67 112s-68 -37 -68 -112s23 -112 68 -112z" />
    <glyph glyph-name="zero.lf" horiz-adv-x="691" 
d="M345 -12c-97 0 -171 36 -224 107c-52 71 -78 163 -78 275s26 204 78 275c53 71 127 107 224 107c98 0 173 -36 225 -107c53 -71 79 -163 79 -275s-26 -204 -79 -275c-52 -71 -127 -107 -225 -107zM485 370c0 67 -12 121 -36 163c-23 43 -58 64 -103 64
c-46 0 -81 -21 -104 -64c-23 -42 -35 -96 -35 -163c0 -136 46 -227 139 -227s139 91 139 227z" />
    <glyph glyph-name="zero.num" horiz-adv-x="391" 
d="M23 546c0 123 62 206 173 206s173 -83 173 -206c0 -121 -62 -205 -173 -205s-173 84 -173 205zM196 434c45 0 67 37 67 112s-22 112 -67 112s-68 -37 -68 -112s23 -112 68 -112z" />
    <glyph glyph-name="zero.osf" horiz-adv-x="631" 
d="M316 -12c-88 0 -156 29 -203 86s-70 131 -70 222s23 165 70 222s115 86 203 86c87 0 155 -29 202 -86s71 -131 71 -222s-24 -165 -71 -222s-115 -86 -202 -86zM317 467c-79 0 -120 -66 -120 -171s42 -171 119 -171s119 66 119 171s-41 171 -118 171z" />
    <glyph glyph-name="zero.slash" horiz-adv-x="691" 
d="M345 752c98 0 173 -36 225 -107c53 -71 79 -163 79 -275s-26 -204 -79 -275c-52 -71 -127 -107 -225 -107c-97 0 -171 36 -224 107c-52 71 -78 163 -78 275s26 204 78 275c53 71 127 107 224 107zM346 615c-49 0 -87 -23 -112 -69c-25 -45 -37 -104 -37 -176
c0 -53 6 -98 19 -135l216 344c-23 24 -51 36 -86 36zM346 125c49 0 86 23 111 68s38 104 38 177c0 48 -5 90 -16 126l-214 -341c22 -20 49 -30 81 -30z" />
    <glyph glyph-name="zero.tf" horiz-adv-x="628" 
d="M313 -12c-92 0 -163 36 -214 107c-50 71 -75 163 -75 275s25 204 75 275c51 71 122 107 214 107c93 0 165 -36 216 -107s76 -163 76 -275s-25 -204 -76 -275s-123 -107 -216 -107zM315 143c85 0 129 92 129 227c0 67 -11 121 -33 163c-22 43 -54 64 -96 64
c-43 0 -76 -21 -98 -64c-22 -42 -33 -96 -33 -163c0 -136 44 -227 131 -227z" />
    </font>
</defs>
</svg>
